<svg width="921" height="200" viewBox="0 0 921 200" fill="none" xmlns="http://www.w3.org/2000/svg">
<rect width="900" height="200" fill="#FF2222"/>
<rect y="25" width="900" height="150" fill="#202554"/>
<path d="M41.5455 55.9091V149H30.8182V55.9091H41.5455ZM89.5568 150.455C83.2538 150.455 77.7235 148.955 72.9659 145.955C68.2386 142.955 64.5417 138.758 61.875 133.364C59.2386 127.97 57.9205 121.667 57.9205 114.455C57.9205 107.182 59.2386 100.833 61.875 95.4091C64.5417 89.9848 68.2386 85.7727 72.9659 82.7727C77.7235 79.7727 83.2538 78.2727 89.5568 78.2727C95.8598 78.2727 101.375 79.7727 106.102 82.7727C110.86 85.7727 114.557 89.9848 117.193 95.4091C119.86 100.833 121.193 107.182 121.193 114.455C121.193 121.667 119.86 127.97 117.193 133.364C114.557 138.758 110.86 142.955 106.102 145.955C101.375 148.955 95.8598 150.455 89.5568 150.455ZM89.5568 140.818C94.3447 140.818 98.2841 139.591 101.375 137.136C104.466 134.682 106.754 131.455 108.239 127.455C109.723 123.455 110.466 119.121 110.466 114.455C110.466 109.788 109.723 105.439 108.239 101.409C106.754 97.3788 104.466 94.1212 101.375 91.6364C98.2841 89.1515 94.3447 87.9091 89.5568 87.9091C84.7689 87.9091 80.8295 89.1515 77.7386 91.6364C74.6477 94.1212 72.3598 97.3788 70.875 101.409C69.3902 105.439 68.6477 109.788 68.6477 114.455C68.6477 119.121 69.3902 123.455 70.875 127.455C72.3598 131.455 74.6477 134.682 77.7386 137.136C80.8295 139.591 84.7689 140.818 89.5568 140.818ZM137.568 149V79.1818H147.932V89.7273H148.659C149.932 86.2727 152.235 83.4697 155.568 81.3182C158.902 79.1667 162.659 78.0909 166.841 78.0909C167.629 78.0909 168.614 78.1061 169.795 78.1364C170.977 78.1667 171.871 78.2121 172.477 78.2727V89.1818C172.114 89.0909 171.28 88.9545 169.977 88.7727C168.705 88.5606 167.356 88.4545 165.932 88.4545C162.538 88.4545 159.508 89.1667 156.841 90.5909C154.205 91.9848 152.114 93.9242 150.568 96.4091C149.053 98.8636 148.295 101.667 148.295 104.818V149H137.568ZM212.341 150.455C205.614 150.455 199.811 148.97 194.932 146C190.083 143 186.341 138.818 183.705 133.455C181.098 128.061 179.795 121.788 179.795 114.636C179.795 107.485 181.098 101.182 183.705 95.7273C186.341 90.2424 190.008 85.9697 194.705 82.9091C199.432 79.8182 204.947 78.2727 211.25 78.2727C214.886 78.2727 218.477 78.8788 222.023 80.0909C225.568 81.303 228.795 83.2727 231.705 86C234.614 88.697 236.932 92.2727 238.659 96.7273C240.386 101.182 241.25 106.667 241.25 113.182V117.727H187.432V108.455H230.341C230.341 104.515 229.553 101 227.977 97.9091C226.432 94.8182 224.22 92.3788 221.341 90.5909C218.492 88.803 215.129 87.9091 211.25 87.9091C206.977 87.9091 203.28 88.9697 200.159 91.0909C197.068 93.1818 194.689 95.9091 193.023 99.2727C191.356 102.636 190.523 106.242 190.523 110.091V116.273C190.523 121.545 191.432 126.015 193.25 129.682C195.098 133.318 197.659 136.091 200.932 138C204.205 139.879 208.008 140.818 212.341 140.818C215.159 140.818 217.705 140.424 219.977 139.636C222.28 138.818 224.265 137.606 225.932 136C227.598 134.364 228.886 132.333 229.795 129.909L240.159 132.818C239.068 136.333 237.235 139.424 234.659 142.091C232.083 144.727 228.902 146.788 225.114 148.273C221.326 149.727 217.068 150.455 212.341 150.455ZM257.568 149V79.1818H267.932V90.0909H268.841C270.295 86.3636 272.644 83.4697 275.886 81.4091C279.129 79.3182 283.023 78.2727 287.568 78.2727C292.174 78.2727 296.008 79.3182 299.068 81.4091C302.159 83.4697 304.568 86.3636 306.295 90.0909H307.023C308.811 86.4848 311.492 83.6212 315.068 81.5C318.644 79.3485 322.932 78.2727 327.932 78.2727C334.174 78.2727 339.28 80.2273 343.25 84.1364C347.22 88.0151 349.205 94.0606 349.205 102.273V149H338.477V102.273C338.477 97.1212 337.068 93.4394 334.25 91.2273C331.432 89.0151 328.114 87.9091 324.295 87.9091C319.386 87.9091 315.583 89.3939 312.886 92.3636C310.189 95.303 308.841 99.0303 308.841 103.545V149H297.932V101.182C297.932 97.2121 296.644 94.0152 294.068 91.5909C291.492 89.1364 288.174 87.9091 284.114 87.9091C281.326 87.9091 278.72 88.6515 276.295 90.1364C273.902 91.6212 271.962 93.6818 270.477 96.3182C269.023 98.9242 268.295 101.939 268.295 105.364V149H257.568ZM548.818 149V79.1818H559.545V149H548.818ZM554.273 67.5455C552.182 67.5455 550.379 66.8333 548.864 65.4091C547.379 63.9848 546.636 62.2727 546.636 60.2727C546.636 58.2727 547.379 56.5606 548.864 55.1364C550.379 53.7121 552.182 53 554.273 53C556.364 53 558.152 53.7121 559.636 55.1364C561.152 56.5606 561.909 58.2727 561.909 60.2727C561.909 62.2727 561.152 63.9848 559.636 65.4091C558.152 66.8333 556.364 67.5455 554.273 67.5455ZM579.193 175.182V79.1818H589.557V90.2727H590.83C591.617 89.0606 592.708 87.5151 594.102 85.6364C595.527 83.7273 597.557 82.0303 600.193 80.5455C602.86 79.0303 606.466 78.2727 611.011 78.2727C616.89 78.2727 622.072 79.7424 626.557 82.6818C631.042 85.6212 634.542 89.7879 637.057 95.1818C639.572 100.576 640.83 106.939 640.83 114.273C640.83 121.667 639.572 128.076 637.057 133.5C634.542 138.894 631.057 143.076 626.602 146.045C622.148 148.985 617.011 150.455 611.193 150.455C606.708 150.455 603.117 149.712 600.42 148.227C597.723 146.712 595.648 145 594.193 143.091C592.739 141.152 591.617 139.545 590.83 138.273H589.92V175.182H579.193ZM589.739 114.091C589.739 119.364 590.511 124.015 592.057 128.045C593.602 132.045 595.86 135.182 598.83 137.455C601.799 139.697 605.436 140.818 609.739 140.818C614.223 140.818 617.966 139.636 620.966 137.273C623.996 134.879 626.269 131.667 627.784 127.636C629.33 123.576 630.102 119.061 630.102 114.091C630.102 109.182 629.345 104.758 627.83 100.818C626.345 96.8485 624.087 93.7121 621.057 91.4091C618.057 89.0758 614.284 87.9091 609.739 87.9091C605.375 87.9091 601.708 89.0151 598.739 91.2273C595.769 93.4091 593.527 96.4697 592.011 100.409C590.496 104.318 589.739 108.879 589.739 114.091ZM706.648 94.8182L697.011 97.5455C696.405 95.9394 695.511 94.3788 694.33 92.8636C693.178 91.3182 691.602 90.0455 689.602 89.0455C687.602 88.0455 685.042 87.5455 681.92 87.5455C677.648 87.5455 674.087 88.5303 671.239 90.5C668.42 92.4394 667.011 94.9091 667.011 97.9091C667.011 100.576 667.981 102.682 669.92 104.227C671.86 105.773 674.89 107.061 679.011 108.091L689.375 110.636C695.617 112.152 700.269 114.47 703.33 117.591C706.39 120.682 707.92 124.667 707.92 129.545C707.92 133.545 706.769 137.121 704.466 140.273C702.193 143.424 699.011 145.909 694.92 147.727C690.83 149.545 686.072 150.455 680.648 150.455C673.527 150.455 667.633 148.909 662.966 145.818C658.299 142.727 655.345 138.212 654.102 132.273L664.284 129.727C665.254 133.485 667.087 136.303 669.784 138.182C672.511 140.061 676.072 141 680.466 141C685.466 141 689.436 139.939 692.375 137.818C695.345 135.667 696.83 133.091 696.83 130.091C696.83 127.667 695.981 125.636 694.284 124C692.587 122.333 689.981 121.091 686.466 120.273L674.83 117.545C668.436 116.03 663.739 113.682 660.739 110.5C657.769 107.288 656.284 103.273 656.284 98.4545C656.284 94.5151 657.39 91.0303 659.602 88C661.845 84.9697 664.89 82.5909 668.739 80.8636C672.617 79.1364 677.011 78.2727 681.92 78.2727C688.83 78.2727 694.254 79.7879 698.193 82.8182C702.163 85.8485 704.981 89.8485 706.648 94.8182ZM768.068 120.455V79.1818H778.795V149H768.068V137.182H767.341C765.705 140.727 763.159 143.742 759.705 146.227C756.25 148.682 751.886 149.909 746.614 149.909C742.25 149.909 738.371 148.955 734.977 147.045C731.583 145.106 728.917 142.197 726.977 138.318C725.038 134.409 724.068 129.485 724.068 123.545V79.1818H734.795V122.818C734.795 127.909 736.22 131.97 739.068 135C741.947 138.03 745.614 139.545 750.068 139.545C752.735 139.545 755.447 138.864 758.205 137.5C760.992 136.136 763.326 134.045 765.205 131.227C767.114 128.409 768.068 124.818 768.068 120.455ZM798.443 149V79.1818H808.807V90.0909H809.716C811.17 86.3636 813.519 83.4697 816.761 81.4091C820.004 79.3182 823.898 78.2727 828.443 78.2727C833.049 78.2727 836.883 79.3182 839.943 81.4091C843.034 83.4697 845.443 86.3636 847.17 90.0909H847.898C849.686 86.4848 852.367 83.6212 855.943 81.5C859.519 79.3485 863.807 78.2727 868.807 78.2727C875.049 78.2727 880.155 80.2273 884.125 84.1364C888.095 88.0151 890.08 94.0606 890.08 102.273V149H879.352V102.273C879.352 97.1212 877.943 93.4394 875.125 91.2273C872.307 89.0151 868.989 87.9091 865.17 87.9091C860.261 87.9091 856.458 89.3939 853.761 92.3636C851.064 95.303 849.716 99.0303 849.716 103.545V149H838.807V101.182C838.807 97.2121 837.519 94.0152 834.943 91.5909C832.367 89.1364 829.049 87.9091 824.989 87.9091C822.201 87.9091 819.595 88.6515 817.17 90.1364C814.777 91.6212 812.837 93.6818 811.352 96.3182C809.898 98.9242 809.17 101.939 809.17 105.364V149H798.443Z" fill="black"/>
</svg>
