<svg width="900" height="151" viewBox="0 0 900 151" fill="none" xmlns="http://www.w3.org/2000/svg">
<rect width="900" height="150" fill="#FF2222"/>
<path d="M20.5455 30.9091V124H9.81818V30.9091H20.5455ZM68.5568 125.455C62.2538 125.455 56.7235 123.955 51.9659 120.955C47.2386 117.955 43.5417 113.758 40.875 108.364C38.2386 102.97 36.9205 96.6667 36.9205 89.4545C36.9205 82.1818 38.2386 75.8333 40.875 70.4091C43.5417 64.9848 47.2386 60.7727 51.9659 57.7727C56.7235 54.7727 62.2538 53.2727 68.5568 53.2727C74.8598 53.2727 80.375 54.7727 85.1023 57.7727C89.8599 60.7727 93.5568 64.9848 96.1932 70.4091C98.8599 75.8333 100.193 82.1818 100.193 89.4545C100.193 96.6667 98.8599 102.97 96.1932 108.364C93.5568 113.758 89.8599 117.955 85.1023 120.955C80.375 123.955 74.8598 125.455 68.5568 125.455ZM68.5568 115.818C73.3447 115.818 77.2841 114.591 80.375 112.136C83.4659 109.682 85.7538 106.455 87.2386 102.455C88.7235 98.4545 89.4659 94.1212 89.4659 89.4545C89.4659 84.7879 88.7235 80.4394 87.2386 76.4091C85.7538 72.3788 83.4659 69.1212 80.375 66.6364C77.2841 64.1515 73.3447 62.9091 68.5568 62.9091C63.7689 62.9091 59.8295 64.1515 56.7386 66.6364C53.6477 69.1212 51.3598 72.3788 49.875 76.4091C48.3902 80.4394 47.6477 84.7879 47.6477 89.4545C47.6477 94.1212 48.3902 98.4545 49.875 102.455C51.3598 106.455 53.6477 109.682 56.7386 112.136C59.8295 114.591 63.7689 115.818 68.5568 115.818ZM116.568 124V54.1818H126.932V64.7273H127.659C128.932 61.2727 131.235 58.4697 134.568 56.3182C137.902 54.1667 141.659 53.0909 145.841 53.0909C146.629 53.0909 147.614 53.1061 148.795 53.1364C149.977 53.1667 150.871 53.2121 151.477 53.2727V64.1818C151.114 64.0909 150.28 63.9545 148.977 63.7727C147.705 63.5606 146.356 63.4545 144.932 63.4545C141.538 63.4545 138.508 64.1667 135.841 65.5909C133.205 66.9848 131.114 68.9242 129.568 71.4091C128.053 73.8636 127.295 76.6667 127.295 79.8182V124H116.568ZM191.341 125.455C184.614 125.455 178.811 123.97 173.932 121C169.083 118 165.341 113.818 162.705 108.455C160.098 103.061 158.795 96.7879 158.795 89.6364C158.795 82.4848 160.098 76.1818 162.705 70.7273C165.341 65.2424 169.008 60.9697 173.705 57.9091C178.432 54.8182 183.947 53.2727 190.25 53.2727C193.886 53.2727 197.477 53.8788 201.023 55.0909C204.568 56.303 207.795 58.2727 210.705 61C213.614 63.697 215.932 67.2727 217.659 71.7273C219.386 76.1818 220.25 81.6667 220.25 88.1818V92.7273H166.432V83.4545H209.341C209.341 79.5151 208.553 76 206.977 72.9091C205.432 69.8182 203.22 67.3788 200.341 65.5909C197.492 63.803 194.129 62.9091 190.25 62.9091C185.977 62.9091 182.28 63.9697 179.159 66.0909C176.068 68.1818 173.689 70.9091 172.023 74.2727C170.356 77.6364 169.523 81.2424 169.523 85.0909V91.2727C169.523 96.5455 170.432 101.015 172.25 104.682C174.098 108.318 176.659 111.091 179.932 113C183.205 114.879 187.008 115.818 191.341 115.818C194.159 115.818 196.705 115.424 198.977 114.636C201.28 113.818 203.265 112.606 204.932 111C206.598 109.364 207.886 107.333 208.795 104.909L219.159 107.818C218.068 111.333 216.235 114.424 213.659 117.091C211.083 119.727 207.902 121.788 204.114 123.273C200.326 124.727 196.068 125.455 191.341 125.455ZM236.568 124V54.1818H246.932V65.0909H247.841C249.295 61.3636 251.644 58.4697 254.886 56.4091C258.129 54.3182 262.023 53.2727 266.568 53.2727C271.174 53.2727 275.008 54.3182 278.068 56.4091C281.159 58.4697 283.568 61.3636 285.295 65.0909H286.023C287.811 61.4848 290.492 58.6212 294.068 56.5C297.644 54.3485 301.932 53.2727 306.932 53.2727C313.174 53.2727 318.28 55.2273 322.25 59.1364C326.22 63.0151 328.205 69.0606 328.205 77.2727V124H317.477V77.2727C317.477 72.1212 316.068 68.4394 313.25 66.2273C310.432 64.0151 307.114 62.9091 303.295 62.9091C298.386 62.9091 294.583 64.3939 291.886 67.3636C289.189 70.303 287.841 74.0303 287.841 78.5455V124H276.932V76.1818C276.932 72.2121 275.644 69.0152 273.068 66.5909C270.492 64.1364 267.174 62.9091 263.114 62.9091C260.326 62.9091 257.72 63.6515 255.295 65.1364C252.902 66.6212 250.962 68.6818 249.477 71.3182C248.023 73.9242 247.295 76.9394 247.295 80.3636V124H236.568ZM527.818 124V54.1818H538.545V124H527.818ZM533.273 42.5455C531.182 42.5455 529.379 41.8333 527.864 40.4091C526.379 38.9848 525.636 37.2727 525.636 35.2727C525.636 33.2727 526.379 31.5606 527.864 30.1364C529.379 28.7121 531.182 28 533.273 28C535.364 28 537.152 28.7121 538.636 30.1364C540.152 31.5606 540.909 33.2727 540.909 35.2727C540.909 37.2727 540.152 38.9848 538.636 40.4091C537.152 41.8333 535.364 42.5455 533.273 42.5455ZM558.193 150.182V54.1818H568.557V65.2727H569.83C570.617 64.0606 571.708 62.5151 573.102 60.6364C574.527 58.7273 576.557 57.0303 579.193 55.5455C581.86 54.0303 585.466 53.2727 590.011 53.2727C595.89 53.2727 601.072 54.7424 605.557 57.6818C610.042 60.6212 613.542 64.7879 616.057 70.1818C618.572 75.5758 619.83 81.9394 619.83 89.2727C619.83 96.6667 618.572 103.076 616.057 108.5C613.542 113.894 610.057 118.076 605.602 121.045C601.148 123.985 596.011 125.455 590.193 125.455C585.708 125.455 582.117 124.712 579.42 123.227C576.723 121.712 574.648 120 573.193 118.091C571.739 116.152 570.617 114.545 569.83 113.273H568.92V150.182H558.193ZM568.739 89.0909C568.739 94.3636 569.511 99.0152 571.057 103.045C572.602 107.045 574.86 110.182 577.83 112.455C580.799 114.697 584.436 115.818 588.739 115.818C593.223 115.818 596.966 114.636 599.966 112.273C602.996 109.879 605.269 106.667 606.784 102.636C608.33 98.5758 609.102 94.0606 609.102 89.0909C609.102 84.1818 608.345 79.7576 606.83 75.8182C605.345 71.8485 603.087 68.7121 600.057 66.4091C597.057 64.0758 593.284 62.9091 588.739 62.9091C584.375 62.9091 580.708 64.0151 577.739 66.2273C574.769 68.4091 572.527 71.4697 571.011 75.4091C569.496 79.3182 568.739 83.8788 568.739 89.0909ZM685.648 69.8182L676.011 72.5455C675.405 70.9394 674.511 69.3788 673.33 67.8636C672.178 66.3182 670.602 65.0455 668.602 64.0455C666.602 63.0455 664.042 62.5455 660.92 62.5455C656.648 62.5455 653.087 63.5303 650.239 65.5C647.42 67.4394 646.011 69.9091 646.011 72.9091C646.011 75.5758 646.981 77.6818 648.92 79.2273C650.86 80.7727 653.89 82.0606 658.011 83.0909L668.375 85.6364C674.617 87.1515 679.269 89.4697 682.33 92.5909C685.39 95.6818 686.92 99.6667 686.92 104.545C686.92 108.545 685.769 112.121 683.466 115.273C681.193 118.424 678.011 120.909 673.92 122.727C669.83 124.545 665.072 125.455 659.648 125.455C652.527 125.455 646.633 123.909 641.966 120.818C637.299 117.727 634.345 113.212 633.102 107.273L643.284 104.727C644.254 108.485 646.087 111.303 648.784 113.182C651.511 115.061 655.072 116 659.466 116C664.466 116 668.436 114.939 671.375 112.818C674.345 110.667 675.83 108.091 675.83 105.091C675.83 102.667 674.981 100.636 673.284 99C671.587 97.3333 668.981 96.0909 665.466 95.2727L653.83 92.5455C647.436 91.0303 642.739 88.6818 639.739 85.5C636.769 82.2879 635.284 78.2727 635.284 73.4545C635.284 69.5151 636.39 66.0303 638.602 63C640.845 59.9697 643.89 57.5909 647.739 55.8636C651.617 54.1364 656.011 53.2727 660.92 53.2727C667.83 53.2727 673.254 54.7879 677.193 57.8182C681.163 60.8485 683.981 64.8485 685.648 69.8182ZM747.068 95.4545V54.1818H757.795V124H747.068V112.182H746.341C744.705 115.727 742.159 118.742 738.705 121.227C735.25 123.682 730.886 124.909 725.614 124.909C721.25 124.909 717.371 123.955 713.977 122.045C710.583 120.106 707.917 117.197 705.977 113.318C704.038 109.409 703.068 104.485 703.068 98.5455V54.1818H713.795V97.8182C713.795 102.909 715.22 106.97 718.068 110C720.947 113.03 724.614 114.545 729.068 114.545C731.735 114.545 734.447 113.864 737.205 112.5C739.992 111.136 742.326 109.045 744.205 106.227C746.114 103.409 747.068 99.8182 747.068 95.4545ZM777.443 124V54.1818H787.807V65.0909H788.716C790.17 61.3636 792.519 58.4697 795.761 56.4091C799.004 54.3182 802.898 53.2727 807.443 53.2727C812.049 53.2727 815.883 54.3182 818.943 56.4091C822.034 58.4697 824.443 61.3636 826.17 65.0909H826.898C828.686 61.4848 831.367 58.6212 834.943 56.5C838.519 54.3485 842.807 53.2727 847.807 53.2727C854.049 53.2727 859.155 55.2273 863.125 59.1364C867.095 63.0151 869.08 69.0606 869.08 77.2727V124H858.352V77.2727C858.352 72.1212 856.943 68.4394 854.125 66.2273C851.307 64.0151 847.989 62.9091 844.17 62.9091C839.261 62.9091 835.458 64.3939 832.761 67.3636C830.064 70.303 828.716 74.0303 828.716 78.5455V124H817.807V76.1818C817.807 72.2121 816.519 69.0152 813.943 66.5909C811.367 64.1364 808.049 62.9091 803.989 62.9091C801.201 62.9091 798.595 63.6515 796.17 65.1364C793.777 66.6212 791.837 68.6818 790.352 71.3182C788.898 73.9242 788.17 76.9394 788.17 80.3636V124H777.443Z" fill="black"/>
</svg>
