<?xml version="1.0" encoding="utf-8"?>
<!-- Generator: Adobe Illustrator 26.0.1, SVG Export Plug-In . SVG Version: 6.00 Build 0)  -->
<svg version="1.1" id="Layer_1" xmlns="http://www.w3.org/2000/svg" xmlns:xlink="http://www.w3.org/1999/xlink" x="0px" y="0px"
	 viewBox="0 0 42 42" style="enable-background:new 0 0 42 42;" xml:space="preserve">
<style type="text/css">
	.st0{display:none;fill:none;stroke:#58595B;stroke-width:2;stroke-miterlimit:10;}
	.st1{display:none;}
	.st2{display:inline;}
	.st3{fill:#434A54;}
	.st4{fill:#8DC63F;}
	.st5{display:inline;fill:#434A54;}
</style>
<path class="st0" d="M37,41H5c-2.2,0-4-1.8-4-4V5c0-2.2,1.8-4,4-4h32c2.2,0,4,1.8,4,4v32C41,39.2,39.2,41,37,41z"/>
<g id="login" class="st1">
	<g class="st2">
		<path class="st3" d="M21,16.81c-0.92,0-1.67-0.75-1.67-1.67V3.02c0-0.92,0.75-1.67,1.67-1.67c0.92,0,1.67,0.75,1.67,1.67v12.12
			C22.67,16.07,21.92,16.81,21,16.81z"/>
	</g>
	<g class="st2">
		<path class="st3" d="M21,40.64c-9.65,0-17.5-7.85-17.5-17.5c0-7.43,4.72-14.06,11.75-16.51c0.87-0.31,1.82,0.16,2.12,1.03
			c0.3,0.87-0.16,1.82-1.03,2.12c-5.69,1.98-9.51,7.35-9.51,13.36c0,7.81,6.36,14.17,14.17,14.17c7.81,0,14.17-6.36,14.17-14.17
			c0-6.01-3.82-11.38-9.51-13.36c-0.87-0.3-1.33-1.25-1.03-2.12c0.3-0.87,1.25-1.33,2.12-1.03c7.03,2.45,11.75,9.08,11.75,16.51
			C38.5,32.79,30.65,40.64,21,40.64z"/>
	</g>
</g>
<g id="logout_00000060723646236635977960000014448659135934792874_" class="st1">
	<g class="st2">
		<path class="st4" d="M21.22,18.89c-0.55,0-1-0.45-1-1v-7.28c0-0.55,0.45-1,1-1c0.55,0,1,0.45,1,1v7.28
			C22.22,18.45,21.77,18.89,21.22,18.89z"/>
	</g>
	<g class="st2">
		<path class="st4" d="M21.22,33.2c-5.79,0-10.5-4.71-10.5-10.5c0-4.46,2.83-8.44,7.05-9.91c0.52-0.18,1.09,0.09,1.27,0.62
			c0.18,0.52-0.09,1.09-0.62,1.27c-3.42,1.19-5.71,4.41-5.71,8.02c0,4.69,3.81,8.5,8.5,8.5c4.69,0,8.5-3.81,8.5-8.5
			c0-3.61-2.29-6.83-5.71-8.02c-0.52-0.18-0.8-0.75-0.62-1.27c0.18-0.52,0.75-0.8,1.27-0.62c4.22,1.47,7.05,5.45,7.05,9.91
			C31.72,28.49,27.01,33.2,21.22,33.2z"/>
	</g>
</g>
<g id="cart" class="st1">
	<g class="st2">
		<path class="st3" d="M33.59,27.28H15.04c-0.62,0-1.17-0.41-1.33-1.01l-3.53-12.81c-0.11-0.42-0.03-0.86,0.23-1.2
			c0.26-0.34,0.67-0.54,1.1-0.54h25.61c0.43,0,0.84,0.2,1.1,0.54c0.26,0.34,0.35,0.79,0.23,1.2c-1.18,4.27-2.36,8.54-3.53,12.81
			C34.75,26.86,34.21,27.28,33.59,27.28z M16.09,24.52h16.44c0.92-3.35,1.85-6.7,2.77-10.05H13.32L16.09,24.52z"/>
	</g>
	<g class="st2">
		<path class="st3" d="M15.04,27.28c-0.61,0-1.16-0.4-1.33-1.01L9.11,9.46L4.82,9.27C4.06,9.24,3.47,8.59,3.5,7.83
			c0.03-0.76,0.64-1.35,1.44-1.32l5.29,0.23c0.6,0.03,1.11,0.44,1.27,1.01l4.87,17.78c0.2,0.74-0.23,1.49-0.97,1.7
			C15.28,27.26,15.16,27.28,15.04,27.28z"/>
	</g>
	<g class="st2">
		<path class="st3" d="M18.33,35.49c-2.09,0-3.79-1.7-3.79-3.79s1.7-3.79,3.79-3.79c2.09,0,3.79,1.7,3.79,3.79
			S20.43,35.49,18.33,35.49z M18.33,30.66c-0.57,0-1.03,0.46-1.03,1.03c0,0.57,0.46,1.03,1.03,1.03c0.57,0,1.03-0.46,1.03-1.03
			C19.37,31.12,18.9,30.66,18.33,30.66z"/>
	</g>
	<g class="st2">
		<path class="st3" d="M29.83,35.49c-2.09,0-3.79-1.7-3.79-3.79s1.7-3.79,3.79-3.79c2.09,0,3.79,1.7,3.79,3.79
			S31.93,35.49,29.83,35.49z M29.83,30.66c-0.57,0-1.03,0.46-1.03,1.03c0,0.57,0.46,1.03,1.03,1.03c0.57,0,1.03-0.46,1.03-1.03
			C30.87,31.12,30.4,30.66,29.83,30.66z"/>
	</g>
</g>
<g id="account">
	<path class="st3" d="M21,39.44c-4.56,0-9.17-0.37-13.69-1.09c-1.75-0.33-3.23-1.98-3.41-3.78c-0.13-1.27-0.26-2.54-0.38-3.82
		c-0.18-1.75,0.92-3.77,2.5-4.6c2.94-1.4,6.04-2.37,9.26-2.9l-0.05-0.35c-0.87-0.74-1.43-1.68-1.51-2.58c-0.03-0.3-0.07-0.6-0.1-0.9
		c-0.72-0.31-1.25-0.99-1.34-1.82l-0.38-3.61c-0.06-0.58,0.1-1.16,0.48-1.63c0.11-0.14,0.24-0.26,0.38-0.37l-0.12-1.09
		c-0.12-1.21-0.39-4.06,1.83-6.03c1.48-1.46,3.88-2.32,6.54-2.32c2.65,0,5.06,0.87,6.6,2.37c2.16,1.92,1.89,4.77,1.77,5.98
		l-0.03,0.29c-0.03,0.28-0.06,0.54-0.09,0.79c0.14,0.1,0.26,0.23,0.37,0.37C30,12.83,30.17,13.41,30.1,14l-0.37,3.59
		c-0.08,0.83-0.61,1.52-1.34,1.83l-0.11,0.94c-0.07,0.86-0.62,1.8-1.5,2.54l-0.05,0.35c3.22,0.53,6.31,1.49,9.2,2.87
		c1.63,0.85,2.73,2.88,2.55,4.64c-0.12,1.21-0.24,2.42-0.36,3.64l-0.02,0.17c-0.19,1.8-1.67,3.45-3.38,3.77
		C30.17,39.08,25.56,39.44,21,39.44z M15.26,16.31c0.07,0.01,0.15,0.03,0.22,0.05c0.57,0.19,0.98,0.7,1.05,1.29l0.03,0.25
		c0.08,0.7,0.16,1.4,0.24,2.11c0.03,0.1,0.25,0.43,0.71,0.72c0.38,0.24,0.64,0.64,0.7,1.09l0.35,2.52c0.06,0.41-0.05,0.83-0.3,1.17
		c-0.25,0.33-0.63,0.55-1.05,0.6c-3.45,0.42-6.75,1.36-9.81,2.81c-0.45,0.24-0.85,1.06-0.8,1.53c0.12,1.28,0.25,2.54,0.38,3.8
		c0.05,0.46,0.52,0.98,0.85,1.04c8.64,1.39,17.65,1.39,26.36-0.01c0.3-0.06,0.77-0.56,0.82-1.03l0.02-0.17
		c0.12-1.21,0.24-2.41,0.36-3.63c0.05-0.47-0.35-1.3-0.85-1.56c-3-1.43-6.3-2.37-9.75-2.79c-0.42-0.05-0.79-0.27-1.05-0.6
		c-0.25-0.33-0.36-0.75-0.3-1.17l0.36-2.53c0.07-0.45,0.32-0.84,0.7-1.08c0.45-0.29,0.67-0.62,0.7-0.72l0.28-2.37
		c0.07-0.6,0.48-1.1,1.05-1.29c0.07-0.02,0.14-0.04,0.21-0.05l0.18-1.73c-0.08-0.04-0.16-0.08-0.24-0.13
		c-0.48-0.33-0.74-0.89-0.67-1.47l0.27-2.37c0.12-1.21,0.16-2.57-0.8-3.42c-1-0.98-2.66-1.53-4.48-1.53c-1.82,0-3.47,0.55-4.42,1.48
		c-1.01,0.91-0.97,2.27-0.86,3.47l0.27,2.37c0.07,0.57-0.19,1.14-0.67,1.46c-0.08,0.05-0.16,0.1-0.24,0.13L15.26,16.31z"/>
</g>
<g id="doctors" class="st1">
	<g class="st2">
		<path class="st3" d="M33.34,34.73H8.66c-1.47,0-2.66-1.2-2.66-2.67V14.85c0-1.47,1.19-2.66,2.66-2.66h24.68
			c1.47,0,2.66,1.2,2.66,2.66v17.22C36,33.54,34.81,34.73,33.34,34.73z M8.66,14.72c-0.07,0-0.13,0.06-0.13,0.13v17.22
			c0,0.07,0.06,0.13,0.13,0.13h24.68c0.07,0,0.13-0.06,0.13-0.13V14.85c0-0.07-0.06-0.13-0.13-0.13H8.66z"/>
	</g>
	<g class="st2">
		<path class="st3" d="M26.06,14.34c-0.7,0-1.27-0.57-1.27-1.27V9.93c0-0.07-0.06-0.13-0.13-0.13h-7.33c-0.07,0-0.13,0.06-0.13,0.13
			v3.14c0,0.7-0.57,1.27-1.27,1.27s-1.27-0.57-1.27-1.27V9.93c0-1.47,1.2-2.66,2.66-2.66h7.33c1.47,0,2.66,1.19,2.66,2.66v3.14
			C27.33,13.77,26.76,14.34,26.06,14.34z"/>
	</g>
	<polygon class="st5" points="22.7,18.51 19.3,18.51 19.3,21.76 16.06,21.76 16.06,25.16 19.3,25.16 19.3,28.4 22.7,28.4 
		22.7,25.16 25.94,25.16 25.94,21.76 22.7,21.76 22.7,18.51 	"/>
</g>
<g id="blogs" class="st1">
	<g class="st2">
		<g>
			<path class="st3" d="M34.74,36H7.26C6.57,36,6,35.44,6,34.74V7.26C6,6.56,6.57,6,7.26,6h27.47C35.43,6,36,6.56,36,7.26v27.48
				C36,35.44,35.43,36,34.74,36z M8.52,33.48h24.95V8.52H8.52V33.48z"/>
		</g>
		<g>
			<path class="st3" d="M34.29,15.25H7.71c-0.35,0-0.63-0.28-0.63-0.63c0-0.35,0.28-0.63,0.63-0.63h26.57
				c0.35,0,0.63,0.28,0.63,0.63C34.92,14.97,34.64,15.25,34.29,15.25z"/>
		</g>
		<path class="st3" d="M11.74,9.7c-0.88,0-1.59,0.71-1.59,1.59c0,0.88,0.71,1.59,1.59,1.59c0.88,0,1.59-0.71,1.59-1.59
			C13.33,10.42,12.61,9.7,11.74,9.7L11.74,9.7z"/>
		<path class="st3" d="M16.04,9.7c-0.88,0-1.59,0.71-1.59,1.59c0,0.88,0.71,1.59,1.59,1.59c0.88,0,1.59-0.71,1.59-1.59
			C17.63,10.42,16.92,9.7,16.04,9.7L16.04,9.7z"/>
		<path class="st3" d="M20.35,9.7c-0.88,0-1.59,0.71-1.59,1.59c0,0.88,0.71,1.59,1.59,1.59c0.88,0,1.59-0.71,1.59-1.59
			C21.94,10.42,21.23,9.7,20.35,9.7L20.35,9.7z"/>
	</g>
	<g class="st2">
		<g>
			<path class="st3" d="M21,20.31h-8.62c-0.35,0-0.63-0.28-0.63-0.63c0-0.35,0.28-0.63,0.63-0.63H21c0.35,0,0.63,0.28,0.63,0.63
				C21.63,20.03,21.35,20.31,21,20.31z"/>
		</g>
		<g>
			<path class="st3" d="M21,24.31h-8.62c-0.35,0-0.63-0.28-0.63-0.63c0-0.35,0.28-0.63,0.63-0.63H21c0.35,0,0.63,0.28,0.63,0.63
				C21.63,24.03,21.35,24.31,21,24.31z"/>
		</g>
		<g>
			<path class="st3" d="M21,28.3h-8.62c-0.35,0-0.63-0.28-0.63-0.63c0-0.35,0.28-0.63,0.63-0.63H21c0.35,0,0.63,0.28,0.63,0.63
				C21.63,28.02,21.35,28.3,21,28.3z"/>
		</g>
		<g>
			<path class="st3" d="M29.63,28.3h-5.47c-0.35,0-0.63-0.28-0.63-0.63v-7.99c0-0.35,0.28-0.63,0.63-0.63h5.47
				c0.35,0,0.63,0.28,0.63,0.63v7.99C30.26,28.02,29.97,28.3,29.63,28.3z M24.79,27.04h4.21v-6.73h-4.21V27.04z"/>
		</g>
	</g>
</g>
</svg>
