<?xml version="1.0" encoding="utf-8"?>
<!-- Generator: Adobe Illustrator 26.0.1, SVG Export Plug-In . SVG Version: 6.00 Build 0)  -->
<svg version="1.1" id="Layer_1" xmlns="http://www.w3.org/2000/svg" xmlns:xlink="http://www.w3.org/1999/xlink" x="0px" y="0px"
	 viewBox="0 0 42 42" style="enable-background:new 0 0 42 42;" xml:space="preserve">
<style type="text/css">
	.st0{fill:none;stroke:#58595B;stroke-width:2;stroke-miterlimit:10;}
	.st1{display:none;}
	.st2{display:inline;}
	.st3{fill:#434A54;}
	.st4{fill:#8DC63F;}
	.st5{display:inline;fill:#434A54;}
</style>
<path class="st0" d="M37,41H5c-2.2,0-4-1.8-4-4V5c0-2.2,1.8-4,4-4h32c2.2,0,4,1.8,4,4v32C41,39.2,39.2,41,37,41z"/>
<g id="login" class="st1">
	<g class="st2">
		<path class="st3" d="M21,17.8c-0.7,0-1.27-0.57-1.27-1.27V7.27C19.73,6.57,20.3,6,21,6c0.7,0,1.27,0.57,1.27,1.27v9.26
			C22.27,17.23,21.7,17.8,21,17.8z"/>
	</g>
	<g class="st2">
		<path class="st3" d="M21,36c-7.37,0-13.36-6-13.36-13.36c0-5.67,3.61-10.74,8.97-12.61c0.66-0.23,1.39,0.12,1.62,0.78
			c0.23,0.66-0.12,1.39-0.78,1.62c-4.35,1.51-7.27,5.61-7.27,10.21c0,5.97,4.85,10.82,10.82,10.82c5.96,0,10.82-4.85,10.82-10.82
			c0-4.59-2.92-8.69-7.26-10.21c-0.66-0.23-1.01-0.96-0.78-1.62c0.23-0.66,0.95-1.02,1.62-0.78c5.37,1.87,8.97,6.94,8.97,12.61
			C34.36,30,28.37,36,21,36z"/>
	</g>
</g>
<g id="logout_00000060723646236635977960000014448659135934792874_" class="st1">
	<g class="st2">
		<path class="st4" d="M21.22,18.89c-0.55,0-1-0.45-1-1v-7.28c0-0.55,0.45-1,1-1c0.55,0,1,0.45,1,1v7.28
			C22.22,18.45,21.77,18.89,21.22,18.89z"/>
	</g>
	<g class="st2">
		<path class="st4" d="M21.22,33.2c-5.79,0-10.5-4.71-10.5-10.5c0-4.46,2.83-8.44,7.05-9.91c0.52-0.18,1.09,0.09,1.27,0.62
			c0.18,0.52-0.09,1.09-0.62,1.27c-3.42,1.19-5.71,4.41-5.71,8.02c0,4.69,3.81,8.5,8.5,8.5c4.69,0,8.5-3.81,8.5-8.5
			c0-3.61-2.29-6.83-5.71-8.02c-0.52-0.18-0.8-0.75-0.62-1.27c0.18-0.52,0.75-0.8,1.27-0.62c4.22,1.47,7.05,5.45,7.05,9.91
			C31.72,28.49,27.01,33.2,21.22,33.2z"/>
	</g>
</g>
<g id="cart" class="st1">
	<g class="st2">
		<path class="st3" d="M31.79,26.38h-15.9c-0.53,0-1-0.36-1.14-0.87l-3.03-10.98c-0.1-0.36-0.02-0.74,0.2-1.03
			c0.22-0.29,0.57-0.47,0.94-0.47h21.95c0.37,0,0.72,0.17,0.94,0.47c0.22,0.29,0.3,0.68,0.2,1.03c-1.01,3.66-2.02,7.32-3.03,10.98
			C32.79,26.03,32.32,26.38,31.79,26.38z M16.79,24.02h14.09c0.79-2.87,1.58-5.74,2.38-8.62H14.42L16.79,24.02z"/>
	</g>
	<g class="st2">
		<path class="st3" d="M15.89,26.38c-0.52,0-1-0.35-1.14-0.87l-3.95-14.41l-3.67-0.16C6.48,10.92,5.97,10.36,6,9.71
			c0.03-0.65,0.55-1.16,1.23-1.13l4.53,0.2c0.51,0.02,0.95,0.37,1.09,0.87l4.17,15.24c0.17,0.63-0.2,1.28-0.83,1.45
			C16.1,26.37,15.99,26.38,15.89,26.38z"/>
	</g>
	<g class="st2">
		<path class="st3" d="M18.72,33.42c-1.79,0-3.25-1.46-3.25-3.25c0-1.79,1.46-3.25,3.25-3.25c1.79,0,3.25,1.46,3.25,3.25
			C21.97,31.96,20.51,33.42,18.72,33.42z M18.72,29.28c-0.49,0-0.89,0.4-0.89,0.89s0.4,0.89,0.89,0.89c0.49,0,0.89-0.4,0.89-0.89
			S19.2,29.28,18.72,29.28z"/>
	</g>
	<g class="st2">
		<path class="st3" d="M28.57,33.42c-1.79,0-3.25-1.46-3.25-3.25c0-1.79,1.46-3.25,3.25-3.25c1.79,0,3.25,1.46,3.25,3.25
			C31.83,31.96,30.37,33.42,28.57,33.42z M28.57,29.28c-0.49,0-0.89,0.4-0.89,0.89s0.4,0.89,0.89,0.89c0.49,0,0.89-0.4,0.89-0.89
			S29.06,29.28,28.57,29.28z"/>
	</g>
</g>
<g id="account" class="st1">
	<path class="st5" d="M21,36c-3.71,0-7.46-0.3-11.13-0.89c-1.42-0.27-2.62-1.61-2.77-3.07c-0.11-1.03-0.21-2.07-0.31-3.11
		c-0.14-1.42,0.75-3.07,2.03-3.74c2.39-1.14,4.91-1.92,7.53-2.36l-0.04-0.28c-0.71-0.6-1.16-1.37-1.23-2.1
		c-0.03-0.24-0.05-0.49-0.08-0.74c-0.59-0.25-1.02-0.81-1.09-1.48L13.6,15.3c-0.05-0.47,0.09-0.94,0.39-1.32
		c0.09-0.11,0.19-0.21,0.31-0.3L14.2,12.8c-0.09-0.99-0.32-3.3,1.49-4.91C16.89,6.7,18.84,6,21,6c2.16,0,4.11,0.7,5.36,1.93
		c1.76,1.56,1.53,3.88,1.44,4.87l-0.02,0.24c-0.02,0.23-0.05,0.44-0.07,0.65c0.11,0.09,0.21,0.18,0.3,0.3
		c0.3,0.38,0.44,0.85,0.39,1.33l-0.3,2.92c-0.06,0.68-0.5,1.23-1.09,1.49l-0.09,0.76c-0.05,0.7-0.51,1.47-1.22,2.07l-0.04,0.29
		c2.62,0.43,5.13,1.21,7.48,2.33c1.32,0.69,2.22,2.34,2.08,3.77c-0.09,0.99-0.19,1.97-0.29,2.96l-0.01,0.14
		c-0.15,1.46-1.36,2.81-2.75,3.07C28.46,35.7,24.71,36,21,36z M16.33,17.18c0.06,0.01,0.12,0.02,0.18,0.04
		c0.47,0.16,0.8,0.57,0.85,1.05l0.02,0.21c0.07,0.57,0.13,1.14,0.19,1.71c0.02,0.08,0.2,0.35,0.58,0.59
		c0.31,0.2,0.52,0.52,0.57,0.89l0.29,2.05c0.05,0.34-0.04,0.68-0.25,0.95c-0.21,0.27-0.51,0.44-0.85,0.49
		c-2.81,0.34-5.49,1.11-7.98,2.29c-0.37,0.19-0.69,0.86-0.65,1.24c0.1,1.04,0.2,2.06,0.31,3.09c0.04,0.38,0.42,0.79,0.69,0.85
		c7.03,1.13,14.35,1.13,21.44-0.01c0.24-0.05,0.63-0.45,0.67-0.84l0.01-0.14c0.1-0.98,0.2-1.96,0.29-2.95
		c0.04-0.38-0.28-1.05-0.69-1.27c-2.44-1.16-5.12-1.93-7.93-2.27c-0.34-0.04-0.64-0.22-0.85-0.49c-0.21-0.27-0.3-0.61-0.25-0.95
		l0.3-2.06c0.05-0.36,0.26-0.68,0.57-0.88c0.36-0.23,0.54-0.5,0.57-0.59l0.23-1.93c0.06-0.49,0.39-0.89,0.86-1.05
		c0.06-0.02,0.12-0.03,0.17-0.04l0.15-1.4c-0.07-0.03-0.13-0.07-0.2-0.11c-0.39-0.26-0.6-0.72-0.54-1.19l0.22-1.92
		c0.09-0.98,0.13-2.09-0.65-2.78c-0.81-0.8-2.16-1.25-3.64-1.25c-1.48,0-2.82,0.45-3.59,1.21c-0.83,0.74-0.79,1.84-0.7,2.82
		l0.22,1.93c0.05,0.47-0.16,0.92-0.55,1.19c-0.06,0.04-0.13,0.08-0.2,0.11L16.33,17.18z"/>
</g>
<g id="doctors" class="st1">
	<g class="st2">
		<path class="st3" d="M33.34,34.73H8.66c-1.47,0-2.66-1.2-2.66-2.67V14.85c0-1.47,1.19-2.66,2.66-2.66h24.68
			c1.47,0,2.66,1.2,2.66,2.66v17.22C36,33.54,34.81,34.73,33.34,34.73z M8.66,14.72c-0.07,0-0.13,0.06-0.13,0.13v17.22
			c0,0.07,0.06,0.13,0.13,0.13h24.68c0.07,0,0.13-0.06,0.13-0.13V14.85c0-0.07-0.06-0.13-0.13-0.13H8.66z"/>
	</g>
	<g class="st2">
		<path class="st3" d="M26.06,14.34c-0.7,0-1.27-0.57-1.27-1.27V9.93c0-0.07-0.06-0.13-0.13-0.13h-7.33c-0.07,0-0.13,0.06-0.13,0.13
			v3.14c0,0.7-0.57,1.27-1.27,1.27s-1.27-0.57-1.27-1.27V9.93c0-1.47,1.2-2.66,2.66-2.66h7.33c1.47,0,2.66,1.19,2.66,2.66v3.14
			C27.33,13.77,26.76,14.34,26.06,14.34z"/>
	</g>
	<polygon class="st5" points="22.7,18.51 19.3,18.51 19.3,21.76 16.06,21.76 16.06,25.16 19.3,25.16 19.3,28.4 22.7,28.4 
		22.7,25.16 25.94,25.16 25.94,21.76 22.7,21.76 22.7,18.51 	"/>
</g>
<g id="blogs">
	<g>
		<g>
			<path class="st3" d="M34.74,36H7.26C6.57,36,6,35.44,6,34.74V7.26C6,6.56,6.57,6,7.26,6h27.47C35.43,6,36,6.56,36,7.26v27.48
				C36,35.44,35.43,36,34.74,36z M8.52,33.48h24.95V8.52H8.52V33.48z"/>
		</g>
		<g>
			<path class="st3" d="M34.29,15.25H7.71c-0.35,0-0.63-0.28-0.63-0.63c0-0.35,0.28-0.63,0.63-0.63h26.57
				c0.35,0,0.63,0.28,0.63,0.63C34.92,14.97,34.64,15.25,34.29,15.25z"/>
		</g>
		<path class="st3" d="M11.74,9.7c-0.88,0-1.59,0.71-1.59,1.59c0,0.88,0.71,1.59,1.59,1.59c0.88,0,1.59-0.71,1.59-1.59
			C13.33,10.42,12.61,9.7,11.74,9.7L11.74,9.7z"/>
		<path class="st3" d="M16.04,9.7c-0.88,0-1.59,0.71-1.59,1.59c0,0.88,0.71,1.59,1.59,1.59c0.88,0,1.59-0.71,1.59-1.59
			C17.63,10.42,16.92,9.7,16.04,9.7L16.04,9.7z"/>
		<path class="st3" d="M20.35,9.7c-0.88,0-1.59,0.71-1.59,1.59c0,0.88,0.71,1.59,1.59,1.59c0.88,0,1.59-0.71,1.59-1.59
			C21.94,10.42,21.23,9.7,20.35,9.7L20.35,9.7z"/>
	</g>
	<g>
		<g>
			<path class="st3" d="M21,20.31h-8.62c-0.35,0-0.63-0.28-0.63-0.63c0-0.35,0.28-0.63,0.63-0.63H21c0.35,0,0.63,0.28,0.63,0.63
				C21.63,20.03,21.35,20.31,21,20.31z"/>
		</g>
		<g>
			<path class="st3" d="M21,24.31h-8.62c-0.35,0-0.63-0.28-0.63-0.63c0-0.35,0.28-0.63,0.63-0.63H21c0.35,0,0.63,0.28,0.63,0.63
				C21.63,24.03,21.35,24.31,21,24.31z"/>
		</g>
		<g>
			<path class="st3" d="M21,28.3h-8.62c-0.35,0-0.63-0.28-0.63-0.63c0-0.35,0.28-0.63,0.63-0.63H21c0.35,0,0.63,0.28,0.63,0.63
				C21.63,28.02,21.35,28.3,21,28.3z"/>
		</g>
		<g>
			<path class="st3" d="M29.63,28.3h-5.47c-0.35,0-0.63-0.28-0.63-0.63v-7.99c0-0.35,0.28-0.63,0.63-0.63h5.47
				c0.35,0,0.63,0.28,0.63,0.63v7.99C30.26,28.02,29.97,28.3,29.63,28.3z M24.79,27.04h4.21v-6.73h-4.21V27.04z"/>
		</g>
	</g>
</g>
</svg>
