<svg width="57" height="78" viewBox="0 0 57 78" fill="none" xmlns="http://www.w3.org/2000/svg">
<path d="M9.7749 39.7663H25.3582V42.8829H9.7749V39.7663ZM9.7749 30.4163H25.3582V33.5329H9.7749V30.4163ZM44.0582 24.1829H12.8916C12.065 24.1829 11.2722 23.8546 10.6878 23.2701C10.1033 22.6856 9.7749 21.8929 9.7749 21.0663V11.7163C9.7749 10.8897 10.1033 10.0969 10.6878 9.51246C11.2722 8.92797 12.065 8.59961 12.8916 8.59961H44.0582C44.8848 8.59961 45.6776 8.92797 46.2621 9.51246C46.8465 10.0969 47.1749 10.8897 47.1749 11.7163V21.0663C47.1749 21.8929 46.8465 22.6856 46.2621 23.2701C45.6776 23.8546 44.8848 24.1829 44.0582 24.1829ZM12.8916 11.7163V21.0663H44.0582V11.7163H12.8916ZM44.0582 45.9996H34.7082C33.8816 45.9996 33.0889 45.6712 32.5044 45.0868C31.9199 44.5023 31.5916 43.7095 31.5916 42.8829V33.5329C31.5916 32.7064 31.9199 31.9136 32.5044 31.3291C33.0889 30.7446 33.8816 30.4163 34.7082 30.4163H44.0582C44.8848 30.4163 45.6776 30.7446 46.2621 31.3291C46.8465 31.9136 47.1749 32.7064 47.1749 33.5329V42.8829C47.1749 43.7095 46.8465 44.5023 46.2621 45.0868C45.6776 45.6712 44.8848 45.9996 44.0582 45.9996ZM34.7082 33.5329V42.8829H44.0582V33.5329H34.7082Z" fill="#371106"/>
<path d="M13.351 56.9893V59.687H16.3559C16.8926 59.687 17.327 59.5874 17.6591 59.3882C17.9966 59.1834 18.1654 58.8237 18.1654 58.3091C18.1654 57.7391 17.9441 57.3628 17.5014 57.1802C17.1195 57.0529 16.6326 56.9893 16.0404 56.9893H13.351ZM13.351 61.7124V64.9746H16.3559C16.8926 64.9746 17.3104 64.9027 17.6093 64.7588C18.1516 64.4932 18.4228 63.984 18.4228 63.2314C18.4228 62.5951 18.1599 62.1579 17.6342 61.9199C17.3409 61.7871 16.9286 61.7179 16.3974 61.7124H13.351ZM16.8539 54.8643C18.3536 54.8864 19.4161 55.3208 20.0414 56.1675C20.4177 56.6877 20.6059 57.3102 20.6059 58.0352C20.6059 58.7822 20.4177 59.3826 20.0414 59.8364C19.8311 60.091 19.5212 60.3234 19.1117 60.5337C19.737 60.7606 20.2074 61.1203 20.5229 61.6128C20.8438 62.1053 21.0043 62.703 21.0043 63.4058C21.0043 64.1307 20.8217 64.7809 20.4564 65.3564C20.224 65.7383 19.9335 66.0592 19.5849 66.3193C19.192 66.6182 18.7271 66.8229 18.1903 66.9336C17.6591 67.0443 17.0808 67.0996 16.4555 67.0996H10.9105V54.8643H16.8539ZM25.3788 67.0996H23.0131V54.8643H25.3788V67.0996ZM31.7538 65.4312C32.4455 65.4312 32.9768 65.1849 33.3476 64.6924C33.7183 64.1999 33.9037 63.4998 33.9037 62.5923C33.9037 61.6847 33.7183 60.9875 33.3476 60.5005C32.9768 60.008 32.4455 59.7617 31.7538 59.7617C31.0621 59.7617 30.5281 60.008 30.1518 60.5005C29.781 60.9875 29.5956 61.6847 29.5956 62.5923C29.5956 63.4998 29.781 64.1999 30.1518 64.6924C30.5281 65.1849 31.0621 65.4312 31.7538 65.4312ZM36.3856 62.5923C36.3856 63.9204 36.0038 65.0576 35.2401 66.0039C34.4765 66.9447 33.3171 67.415 31.7621 67.415C30.2071 67.415 29.0478 66.9447 28.2841 66.0039C27.5204 65.0576 27.1386 63.9204 27.1386 62.5923C27.1386 61.2863 27.5204 60.1546 28.2841 59.1973C29.0478 58.2399 30.2071 57.7612 31.7621 57.7612C33.3171 57.7612 34.4765 58.2399 35.2401 59.1973C36.0038 60.1546 36.3856 61.2863 36.3856 62.5923ZM41.9721 65.1572C42.5255 65.1572 42.9931 64.9497 43.3749 64.5347C43.7567 64.1141 43.9477 63.4473 43.9477 62.5342C43.9477 61.6764 43.765 61.0234 43.3998 60.5752C43.0401 60.127 42.5559 59.9028 41.9472 59.9028C41.1171 59.9028 40.5443 60.293 40.2289 61.0732C40.0629 61.4883 39.9799 62.0002 39.9799 62.6089C39.9799 63.1346 40.0684 63.6022 40.2455 64.0117C40.5665 64.7754 41.142 65.1572 41.9721 65.1572ZM41.3827 57.8359C41.8365 57.8359 42.2322 57.9051 42.5697 58.0435C43.1452 58.2814 43.6101 58.7186 43.9643 59.355V58.0518H46.2636V66.6348C46.2636 67.8024 46.0671 68.6823 45.6742 69.2744C44.9991 70.2926 43.7042 70.8018 41.7895 70.8018C40.6329 70.8018 39.6894 70.5749 38.9589 70.1211C38.2284 69.6673 37.8244 68.9894 37.747 68.0874H40.3202C40.3866 68.3641 40.4945 68.5633 40.6439 68.6851C40.8985 68.9009 41.3274 69.0088 41.9306 69.0088C42.7828 69.0088 43.3528 68.7238 43.6405 68.1538C43.8287 67.7886 43.9228 67.1743 43.9228 66.311V65.73C43.6959 66.1174 43.4524 66.4079 43.1923 66.6016C42.7219 66.9613 42.1104 67.1411 41.3578 67.1411C40.1957 67.1411 39.266 66.7344 38.5687 65.9209C37.877 65.1019 37.5312 63.9951 37.5312 62.6006C37.5312 61.2559 37.8659 60.127 38.5355 59.2139C39.2051 58.2952 40.1542 57.8359 41.3827 57.8359Z" fill="#371106"/>
</svg>
