<svg width="39" height="37" viewBox="0 0 39 37" fill="none" xmlns="http://www.w3.org/2000/svg">
<path d="M38.4262 8.05699C38.0782 7.45405 37.5799 6.9516 36.9799 6.59863C36.3798 6.24567 35.6986 6.05425 35.0025 6.04304H9.2239L8.05581 1.49151C7.93779 1.05214 7.67449 0.665673 7.30879 0.395054C6.94309 0.124435 6.49653 -0.0143932 6.04186 0.00118114H2.01395C1.47982 0.00118114 0.967562 0.213365 0.589873 0.591054C0.212184 0.968743 0 1.481 0 2.01513C0 2.54927 0.212184 3.06152 0.589873 3.43921C0.967562 3.8169 1.47982 4.02909 2.01395 4.02909H4.51125L10.0698 24.6922C10.1878 25.1316 10.4511 25.5181 10.8168 25.7887C11.1825 26.0593 11.629 26.1981 12.0837 26.1826H30.2093C30.5812 26.1814 30.9455 26.0773 31.2619 25.8818C31.5783 25.6863 31.8343 25.407 32.0017 25.0749L38.6075 11.8634C38.8938 11.2632 39.0271 10.6016 38.9954 9.93738C38.9638 9.27321 38.7683 8.6272 38.4262 8.05699Z" fill="#371106"/>
<path d="M11.0766 36.2528C12.745 36.2528 14.0975 34.9003 14.0975 33.2319C14.0975 31.5635 12.745 30.2109 11.0766 30.2109C9.40818 30.2109 8.05566 31.5635 8.05566 33.2319C8.05566 34.9003 9.40818 36.2528 11.0766 36.2528Z" fill="#371106"/>
<path d="M31.2162 36.2528C32.8847 36.2528 34.2372 34.9003 34.2372 33.2319C34.2372 31.5635 32.8847 30.2109 31.2162 30.2109C29.5478 30.2109 28.1953 31.5635 28.1953 33.2319C28.1953 34.9003 29.5478 36.2528 31.2162 36.2528Z" fill="#371106"/>
</svg>
