<svg width="69" height="66" viewBox="0 0 69 66" fill="none" xmlns="http://www.w3.org/2000/svg">
<path d="M6.18604 54.9893V62.9746H8.54346C9.74984 62.9746 10.591 62.3797 11.0669 61.1899C11.327 60.5369 11.457 59.7594 11.457 58.8574C11.457 57.6123 11.2606 56.6577 10.8677 55.9937C10.4803 55.3241 9.70557 54.9893 8.54346 54.9893H6.18604ZM8.9751 52.8643C9.73324 52.8753 10.3641 52.9639 10.8677 53.1299C11.7254 53.4121 12.4199 53.9295 12.9512 54.6821C13.3773 55.2909 13.6678 55.9494 13.8228 56.6577C13.9777 57.366 14.0552 58.0412 14.0552 58.6831C14.0552 60.3101 13.7287 61.688 13.0757 62.8169C12.1903 64.3387 10.8234 65.0996 8.9751 65.0996H3.7041V52.8643H8.9751ZM19.8574 63.4312C20.5492 63.4312 21.0804 63.1849 21.4512 62.6924C21.8219 62.1999 22.0073 61.4998 22.0073 60.5923C22.0073 59.6847 21.8219 58.9875 21.4512 58.5005C21.0804 58.008 20.5492 57.7617 19.8574 57.7617C19.1657 57.7617 18.6317 58.008 18.2554 58.5005C17.8846 58.9875 17.6992 59.6847 17.6992 60.5923C17.6992 61.4998 17.8846 62.1999 18.2554 62.6924C18.6317 63.1849 19.1657 63.4312 19.8574 63.4312ZM24.4893 60.5923C24.4893 61.9204 24.1074 63.0576 23.3438 64.0039C22.5801 64.9447 21.4207 65.415 19.8657 65.415C18.3107 65.415 17.1514 64.9447 16.3877 64.0039C15.624 63.0576 15.2422 61.9204 15.2422 60.5923C15.2422 59.2863 15.624 58.1546 16.3877 57.1973C17.1514 56.2399 18.3107 55.7612 19.8657 55.7612C21.4207 55.7612 22.5801 56.2399 23.3438 57.1973C24.1074 58.1546 24.4893 59.2863 24.4893 60.5923ZM31.5947 59.2974C31.5505 58.9598 31.437 58.6554 31.2544 58.3843C30.9888 58.019 30.5765 57.8364 30.0176 57.8364C29.2207 57.8364 28.6756 58.2321 28.3823 59.0234C28.2274 59.444 28.1499 60.0029 28.1499 60.7002C28.1499 61.3643 28.2274 61.8983 28.3823 62.3022C28.6646 63.0549 29.1958 63.4312 29.9761 63.4312C30.5295 63.4312 30.9224 63.2817 31.1548 62.9829C31.3872 62.6841 31.5283 62.2967 31.5781 61.8208H33.9937C33.9383 62.5402 33.6782 63.2209 33.2134 63.8628C32.4718 64.8976 31.3734 65.415 29.918 65.415C28.4626 65.415 27.3918 64.9834 26.7056 64.1201C26.0194 63.2568 25.6763 62.1362 25.6763 60.7583C25.6763 59.2033 26.0553 57.9941 26.8135 57.1309C27.5716 56.2676 28.6175 55.8359 29.9512 55.8359C31.0856 55.8359 32.0125 56.0905 32.7319 56.5996C33.4569 57.1087 33.8857 58.008 34.0186 59.2974H31.5947ZM34.7241 57.8198V56.1348H35.9858V53.6113H38.3267V56.1348H39.7959V57.8198H38.3267V62.6011C38.3267 62.9718 38.3737 63.2043 38.4678 63.2983C38.5618 63.3869 38.8496 63.4312 39.3311 63.4312C39.403 63.4312 39.4777 63.4312 39.5552 63.4312C39.6382 63.4256 39.7184 63.4201 39.7959 63.4146V65.1826L38.6753 65.2241C37.5575 65.2629 36.7938 65.0692 36.3843 64.6431C36.1187 64.3719 35.9858 63.9541 35.9858 63.3896V57.8198H34.7241ZM45.374 63.4312C46.0658 63.4312 46.597 63.1849 46.9678 62.6924C47.3385 62.1999 47.5239 61.4998 47.5239 60.5923C47.5239 59.6847 47.3385 58.9875 46.9678 58.5005C46.597 58.008 46.0658 57.7617 45.374 57.7617C44.6823 57.7617 44.1483 58.008 43.772 58.5005C43.4012 58.9875 43.2158 59.6847 43.2158 60.5923C43.2158 61.4998 43.4012 62.1999 43.772 62.6924C44.1483 63.1849 44.6823 63.4312 45.374 63.4312ZM50.0059 60.5923C50.0059 61.9204 49.624 63.0576 48.8604 64.0039C48.0967 64.9447 46.9373 65.415 45.3823 65.415C43.8273 65.415 42.668 64.9447 41.9043 64.0039C41.1406 63.0576 40.7588 61.9204 40.7588 60.5923C40.7588 59.2863 41.1406 58.1546 41.9043 57.1973C42.668 56.2399 43.8273 55.7612 45.3823 55.7612C46.9373 55.7612 48.0967 56.2399 48.8604 57.1973C49.624 58.1546 50.0059 59.2863 50.0059 60.5923ZM56.6216 55.8359C56.6659 55.8359 56.7018 55.8387 56.7295 55.8442C56.7627 55.8442 56.8319 55.847 56.937 55.8525V58.2764C56.7876 58.2598 56.6548 58.2487 56.5386 58.2432C56.4224 58.2376 56.3283 58.2349 56.2563 58.2349C55.3045 58.2349 54.6654 58.5448 54.3389 59.1646C54.1562 59.5132 54.0649 60.05 54.0649 60.7749V65.0996H51.6826V56.0518H53.9404V57.6289C54.3057 57.0257 54.6239 56.6134 54.895 56.3921C55.3377 56.0213 55.9132 55.8359 56.6216 55.8359ZM60.1743 62.2109C60.2241 62.6315 60.332 62.9303 60.498 63.1074C60.7913 63.4229 61.3337 63.5806 62.125 63.5806C62.5898 63.5806 62.9578 63.5114 63.229 63.373C63.5057 63.2347 63.644 63.0272 63.644 62.7505C63.644 62.4849 63.5334 62.2829 63.312 62.1445C63.0907 62.0062 62.2689 61.7682 60.8467 61.4307C59.8229 61.1761 59.1007 60.8579 58.6802 60.4761C58.2596 60.0998 58.0493 59.5575 58.0493 58.8491C58.0493 58.0135 58.3758 57.2969 59.0288 56.6992C59.6873 56.096 60.6115 55.7944 61.8013 55.7944C62.9302 55.7944 63.8488 56.0213 64.5571 56.4751C65.271 56.9233 65.6805 57.7008 65.7856 58.8076H63.4199C63.3867 58.5033 63.3009 58.2625 63.1626 58.0854C62.9025 57.7645 62.4598 57.604 61.8345 57.604C61.3198 57.604 60.9518 57.6842 60.7305 57.8447C60.5146 58.0052 60.4067 58.1934 60.4067 58.4092C60.4067 58.6803 60.5229 58.8768 60.7554 58.9985C60.9878 59.1258 61.8096 59.3444 63.2207 59.6543C64.1615 59.8757 64.867 60.2104 65.3374 60.6587C65.8022 61.1125 66.0347 61.6797 66.0347 62.3604C66.0347 63.2568 65.6999 63.9901 65.0303 64.5601C64.3662 65.1245 63.3369 65.4067 61.9424 65.4067C60.5202 65.4067 59.4688 65.1079 58.7881 64.5103C58.113 63.9071 57.7754 63.1406 57.7754 62.2109H60.1743Z" fill="#371106"/>
<path d="M27.3857 33.2873L27.9931 33.1064V32.4726V27.665V26.5308L26.9044 26.8492C20.5176 28.7171 15.8502 34.6054 15.8502 41.5836C15.8502 43.3896 17.3184 44.8496 19.1241 44.8496H50.8271C52.6322 44.8496 54.1002 43.3895 54.1002 41.5836C54.1002 34.6009 49.3569 28.7172 43.0486 26.85L41.9573 26.527V27.665V31.7975V32.457L42.5961 32.6208C44.4821 33.1046 45.8734 34.8153 45.8734 36.841V40.0949C45.8734 40.339 45.6689 40.5465 45.4181 40.5465H44.1127C43.8619 40.5465 43.6573 40.339 43.6573 40.0949C43.6573 39.8508 43.8619 39.6434 44.1127 39.6434H44.9627V38.7934V36.841C44.9627 34.9294 43.4131 33.3879 41.502 33.3879C39.5908 33.3879 38.0413 34.9294 38.0413 36.841V38.7934V39.6434H38.8913C39.1421 39.6434 39.3466 39.8508 39.3466 40.0949C39.3466 40.339 39.1421 40.5465 38.8913 40.5465H37.5859C37.3351 40.5465 37.1306 40.339 37.1306 40.0949V36.841C37.1306 34.8153 38.5218 33.1046 40.4078 32.6208L41.0466 32.457V31.7975V27.1525V26.373L40.27 26.3057C39.6921 26.2556 39.2418 26.2293 38.7036 26.2293H31.2468C30.7136 26.2293 30.1877 26.255 29.6694 26.3067L28.9038 26.383V27.1525V32.4726V33.1064L29.5111 33.2873C31.0478 33.745 32.1672 35.1636 32.1672 36.841C32.1672 38.8829 30.5023 40.5465 28.4484 40.5465C26.3945 40.5465 24.7297 38.8829 24.7297 36.841C24.7297 35.1636 25.849 33.745 27.3857 33.2873ZM34.9752 1.49961C28.74 1.49961 23.6823 6.53991 23.6823 12.7621C23.6823 18.9852 28.74 24.0246 34.9752 24.0246C41.2103 24.0246 46.2681 18.9852 46.2681 12.7621C46.2681 6.53991 41.2104 1.49961 34.9752 1.49961ZM28.4484 34.0387C26.8962 34.0387 25.6404 35.2873 25.6404 36.841C25.6404 38.3947 26.8962 39.6434 28.4484 39.6434C30.0006 39.6434 31.2564 38.3947 31.2564 36.841C31.2564 35.2873 30.0006 34.0387 28.4484 34.0387Z" stroke="#371106" stroke-width="1.7"/>
</svg>
