<svg width="46" height="27" viewBox="0 0 46 27" fill="none" xmlns="http://www.w3.org/2000/svg">
<path d="M22.9992 26.8992C22.4659 26.8992 21.9499 26.7992 21.4512 26.5992C20.9499 26.3992 20.5326 26.1326 20.1992 25.7992L1.79922 7.39922C1.06588 6.66589 0.699219 5.73255 0.699219 4.59922C0.699219 3.46588 1.06588 2.53255 1.79922 1.79922C2.53255 1.06588 3.46589 0.699219 4.59922 0.699219C5.73255 0.699219 6.66589 1.06588 7.39922 1.79922L22.9992 17.3992L38.5992 1.79922C39.3325 1.06588 40.2659 0.699219 41.3992 0.699219C42.5326 0.699219 43.4659 1.06588 44.1992 1.79922C44.9325 2.53255 45.2992 3.46588 45.2992 4.59922C45.2992 5.73255 44.9325 6.66589 44.1992 7.39922L25.7992 25.7992C25.3992 26.1992 24.9659 26.4819 24.4992 26.6472C24.0326 26.8152 23.5326 26.8992 22.9992 26.8992Z" fill="black"/>
</svg>
