<svg width="198" height="169" viewBox="0 0 198 169" fill="none" xmlns="http://www.w3.org/2000/svg">
<path d="M81.18 38.7706C86.7717 36.1904 92.8463 34.8348 99 34.7941C110.815 34.7941 122.147 39.5073 130.502 47.8968C138.856 56.2863 143.55 67.6649 143.55 79.5294C143.538 84.7986 142.565 90.0211 140.679 94.9382L168.3 120.686C180.632 108.914 190.7 94.9625 198 79.5294C198 79.5294 168.3 9.94118 99 9.94118C85.3498 9.87861 71.8454 12.7602 59.4 18.3912L81.18 38.7706ZM19.8 0L9.9 9.94118L35.145 33.8C20.3504 46.3846 8.37338 61.9687 0 79.5294C0 79.5294 29.7 149.118 99 149.118C115.032 149.197 130.827 145.232 144.936 137.586L178.2 169L188.1 159.059L19.8 0ZM99 124.265C87.1846 124.265 75.8531 119.552 67.4984 111.162C59.1436 102.773 54.45 91.3939 54.45 79.5294C54.5047 71.8449 56.5519 64.3072 60.39 57.6588L75.537 71.9741C74.7168 74.4094 74.2825 76.9589 74.25 79.5294C74.24 83.5755 75.2178 87.5624 77.0979 91.1411C78.978 94.7197 81.7031 97.781 85.0345 100.057C88.366 102.333 92.2022 103.754 96.2074 104.196C100.213 104.638 104.265 104.088 108.009 102.593L123.255 117.008C116.046 121.746 107.616 124.268 99 124.265Z" fill="black"/>
</svg>
