<svg width="198" height="135" viewBox="0 0 198 135" fill="none" xmlns="http://www.w3.org/2000/svg">
<path d="M98.5417 40.625C91.414 40.625 84.5782 43.4565 79.5382 48.4965C74.4981 53.5365 71.6667 60.3723 71.6667 67.5C71.6667 74.6277 74.4981 81.4635 79.5382 86.5035C84.5782 91.5435 91.414 94.375 98.5417 94.375C105.669 94.375 112.505 91.5435 117.545 86.5035C122.585 81.4635 125.417 74.6277 125.417 67.5C125.417 60.3723 122.585 53.5365 117.545 48.4965C112.505 43.4565 105.669 40.625 98.5417 40.625ZM98.5417 112.292C86.6622 112.292 75.2692 107.573 66.8692 99.1725C58.4691 90.7724 53.75 79.3795 53.75 67.5C53.75 55.6205 58.4691 44.2276 66.8692 35.8275C75.2692 27.4274 86.6622 22.7083 98.5417 22.7083C110.421 22.7083 121.814 27.4274 130.214 35.8275C138.614 44.2276 143.333 55.6205 143.333 67.5C143.333 79.3795 138.614 90.7724 130.214 99.1725C121.814 107.573 110.421 112.292 98.5417 112.292ZM98.5417 0.3125C53.75 0.3125 15.4979 28.1729 0 67.5C15.4979 106.827 53.75 134.688 98.5417 134.688C143.333 134.688 181.585 106.827 197.083 67.5C181.585 28.1729 143.333 0.3125 98.5417 0.3125Z" fill="black"/>
</svg>
