<svg width="19" height="18" viewBox="0 0 19 18" fill="none" xmlns="http://www.w3.org/2000/svg">
<path d="M18.1996 9.10077C18.1996 4.23933 14.2577 0.300781 9.3996 0.300781C4.53815 0.300781 0.599609 4.23933 0.599609 9.10077C0.599609 13.492 3.81655 17.133 8.0246 17.7924V11.6451H5.78995V9.10132H8.0246V7.16147C8.0246 4.95652 9.33635 3.73883 11.3471 3.73883C12.3102 3.73883 13.3183 3.91043 13.3183 3.91043V6.07577H12.2068C11.1156 6.07577 10.7746 6.75502 10.7746 7.45077V9.10077H13.2149L12.8228 11.6445H10.7746V17.7919C14.9793 17.1324 18.1996 13.4914 18.1996 9.10022V9.10077Z" fill="#371106"/>
</svg>
