<svg width="90" height="90" viewBox="0 0 90 90" fill="none" xmlns="http://www.w3.org/2000/svg">
<path d="M45 88C68.7482 88 88 68.7482 88 45C88 21.2518 68.7482 2 45 2C21.2518 2 2 21.2518 2 45C2 68.7482 21.2518 88 45 88Z" stroke="#020202" stroke-width="4" stroke-miterlimit="10"/>
<path d="M71.4011 78.9365C74.4535 74.0581 76.3126 68.5288 76.8277 62.7972C77.2407 58.0198 76.6863 53.2081 75.1975 48.6497C73.8398 44.3468 71.8352 38.7584 68.8388 35.3365C67.7705 38.9116 68.3323 42.7591 67.3321 46.3428C66.7874 48.2922 65.2041 50.7565 62.9186 50.7693C60.0456 50.7693 59.3519 47.4367 58.956 45.1852C58.0551 40.3855 56.0015 35.8766 52.9719 32.0465C49.1668 27.1221 39.9438 21.7082 41.8165 14.3834L41.9909 14.2344L41.8122 14.3962C39.2585 16.8435 38.8329 22.7722 39.1734 25.9346C39.6671 30.5823 42.4166 34.5788 43.353 39.1287C43.6977 40.7971 44.2553 44.036 42.8933 45.4108C41.5313 46.7855 39.3053 45.6576 38.071 44.6574C35.9429 42.9549 34.2703 39.9161 31.2612 39.6862C32.3763 39.7714 33.6149 46.13 33.7724 47.0749C34.198 49.586 34.3767 52.5271 33.4148 54.9404C31.4229 59.9201 26.8901 57.9877 24.1832 54.7786C20.4889 50.4032 19.6631 44.3468 16.5774 39.5926C13.696 42.6485 13.1725 47.4835 13.0576 51.4843C12.7511 61.4948 14.1472 71.1861 19.2972 79.5154" stroke="#020202" stroke-width="2" stroke-miterlimit="10"/>
<path d="M7.32031 54.625C10.7252 54.625 14.1855 55.5187 17.5351 56.0337C22.9872 56.8849 28.8183 56.204 34.4151 55.9784C40.3312 55.7358 46.0898 56.5785 51.9718 57.0339C58.2496 57.5192 64.3657 56.6083 70.601 55.9443C75.003 55.5366 79.4397 55.7141 83.7951 56.4721" stroke="#020202" stroke-width="2" stroke-miterlimit="10" stroke-dasharray="6.11 6.11"/>
<path d="M10.8223 65.4766C13.078 65.7787 15.3253 66.2895 17.5342 66.6257C22.9864 67.4769 28.8174 66.8002 34.4142 66.5703C40.3303 66.332 46.0889 67.1747 51.9709 67.6301C58.2488 68.1153 64.3649 67.2046 70.6001 66.5406C73.5724 66.2514 76.5658 66.2514 79.5381 66.5406" stroke="#020202" stroke-width="2" stroke-miterlimit="10" stroke-dasharray="5.89 5.89"/>
<path d="M21.3945 78.647C26.004 78.962 30.8006 78.4725 35.4399 78.2852C41.3559 78.0426 47.1145 78.8853 52.9965 79.3407C58.6615 79.7663 64.1945 79.0684 69.8041 78.447" stroke="#020202" stroke-width="2" stroke-miterlimit="10" stroke-dasharray="5.85 5.85"/>
<path d="M71.0566 78.3188L71.644 78.2549C71.8696 78.2293 72.0994 78.2081 72.3292 78.1953" stroke="#020202" stroke-width="2" stroke-miterlimit="10"/>
</svg>
