<svg width="18" height="14" viewBox="0 0 18 14" fill="none" xmlns="http://www.w3.org/2000/svg">
<path d="M4.0618 13.6989V6.88769L1.92032 4.9552L0 3.88281V12.4969C0 13.1619 0.546278 13.6989 1.21857 13.6989H4.0618V13.6989Z" fill="#371106"/>
<path d="M13.5391 13.6989H16.3823C17.0566 13.6989 17.6009 13.1599 17.6009 12.4969V3.88281L15.4258 5.11112L13.5391 6.88764V13.6989V13.6989Z" fill="#371106"/>
<path d="M4.01007 7.05384L3.72461 4.39668L4.01007 1.85352L8.78493 5.45378L13.5598 1.85352L13.8791 4.25938L13.5598 7.05384L8.78493 10.6541L4.01007 7.05384Z" fill="#371106"/>
<path d="M13.5391 1.70861V6.9312L17.6009 3.91818V2.3112C17.6009 0.82078 15.8807 -0.0288675 14.6764 0.864972L13.5391 1.70861Z" fill="#371106"/>
<path d="M0 3.91819L1.8681 5.304L4.0618 6.9312V1.70864L2.92442 0.865001C1.71807 -0.0289023 0 0.82081 0 2.31116V3.91812V3.91819Z" fill="#371106"/>
</svg>
