<svg width="262" height="262" viewBox="0 0 262 262" fill="none" xmlns="http://www.w3.org/2000/svg">
<path d="M76.0498 0.166748H185.95C227.817 0.166748 261.833 34.1834 261.833 76.0501V185.95C261.833 206.076 253.838 225.377 239.607 239.608C225.377 253.839 206.075 261.833 185.95 261.833H76.0498C34.1832 261.833 0.166504 227.817 0.166504 185.95V76.0501C0.166504 55.9246 8.16133 36.6233 22.3922 22.3925C36.6231 8.16158 55.9243 0.166748 76.0498 0.166748ZM73.4332 26.3334C60.9415 26.3334 48.9614 31.2957 40.1284 40.1287C31.2955 48.9616 26.3332 60.9417 26.3332 73.4334V188.567C26.3332 214.603 47.3973 235.667 73.4332 235.667H188.566C201.058 235.667 213.038 230.704 221.871 221.871C230.704 213.039 235.667 201.058 235.667 188.567V73.4334C235.667 47.3976 214.602 26.3334 188.566 26.3334H73.4332ZM199.687 45.9584C204.025 45.9584 208.184 47.6814 211.251 50.7484C214.318 53.8154 216.042 57.9752 216.042 62.3126C216.042 66.65 214.318 70.8097 211.251 73.8767C208.184 76.9437 204.025 78.6667 199.687 78.6667C195.35 78.6667 191.19 76.9437 188.123 73.8767C185.056 70.8097 183.333 66.65 183.333 62.3126C183.333 57.9752 185.056 53.8154 188.123 50.7484C191.19 47.6814 195.35 45.9584 199.687 45.9584ZM131 65.5834C148.349 65.5834 164.988 72.4755 177.256 84.7435C189.524 97.0115 196.417 113.65 196.417 131C196.417 148.35 189.524 164.989 177.256 177.257C164.988 189.525 148.349 196.417 131 196.417C113.65 196.417 97.0113 189.525 84.7433 177.257C72.4753 164.989 65.5832 148.35 65.5832 131C65.5832 113.65 72.4753 97.0115 84.7433 84.7435C97.0113 72.4755 113.65 65.5834 131 65.5834ZM131 91.7501C120.59 91.7501 110.607 95.8853 103.246 103.246C95.8851 110.607 91.7498 120.59 91.7498 131C91.7498 141.41 95.8851 151.393 103.246 158.754C110.607 166.115 120.59 170.25 131 170.25C141.41 170.25 151.393 166.115 158.754 158.754C166.115 151.393 170.25 141.41 170.25 131C170.25 120.59 166.115 110.607 158.754 103.246C151.393 95.8853 141.41 91.7501 131 91.7501Z" fill="white"/>
</svg>
