<svg width="90" height="90" viewBox="0 0 90 90" fill="none" xmlns="http://www.w3.org/2000/svg">
<path d="M45 88C68.7482 88 88 68.7482 88 45C88 21.2518 68.7482 2 45 2C21.2518 2 2 21.2518 2 45C2 68.7482 21.2518 88 45 88Z" stroke="#020202" stroke-width="4" stroke-miterlimit="10"/>
<path d="M41.6271 61.8166C36.5896 53.2277 32.5528 44.1831 29.0142 34.8958C30.33 47.3853 35.3462 58.4653 42.0615 68.9023L41.7975 69.2046C40.2646 68.7149 38.6975 68.3019 37.2029 67.7185C29.3165 64.6483 22.9674 59.8365 19.8334 51.6776C17.3849 45.3115 17.7809 38.7921 19.629 32.3834C20.6765 28.7596 22.2393 25.2763 23.5892 21.7377C23.866 21.001 24.2406 20.422 25.2413 20.8435C33.5407 24.3353 40.767 29.1685 45.5916 37.025C46.1282 37.9022 46.3581 38.6558 45.6172 39.6097C40.7117 45.8821 39.7407 52.9721 41.3929 60.5816C41.4823 60.9989 41.5505 61.4078 41.6271 61.8166Z" fill="black"/>
<path d="M61.143 40.6095C53.8103 48.2233 49.3774 57.4807 46.2391 67.4962C46.0432 67.411 45.8132 67.3897 45.7877 67.2918C42.6067 60.5126 41.3463 53.5547 43.9992 46.2901C45.6557 41.7508 48.7727 38.3696 52.6903 35.6741C57.0508 32.6721 61.8882 30.7559 67.0109 29.5465C67.4367 29.4486 68.3437 29.8403 68.4502 30.1853C70.9413 38.1269 71.8313 46.1367 68.3778 54.0316C65.1245 61.4708 58.9075 65.5502 51.4895 68.0839C50.5612 68.399 49.5945 68.5991 48.3 68.9355C51.7849 59.1524 56.0809 49.6775 61.143 40.6095V40.6095Z" fill="black"/>
</svg>
