<?xml version="1.0" encoding="utf-8"?>
<!-- Generator: Adobe Illustrator 26.0.1, SVG Export Plug-In . SVG Version: 6.00 Build 0)  -->
<svg version="1.1" id="Layer_1" xmlns="http://www.w3.org/2000/svg" xmlns:xlink="http://www.w3.org/1999/xlink" x="0px" y="0px"
	 viewBox="0 0 42 42" style="enable-background:new 0 0 42 42;" xml:space="preserve">
<style type="text/css">
	.st0{fill:none;stroke:#27AAE1;stroke-width:2;stroke-miterlimit:10;}
	.st1{fill:#434A54;}
</style>
<path class="st0" d="M37,41H5c-2.2,0-4-1.8-4-4V5c0-2.2,1.8-4,4-4h32c2.2,0,4,1.8,4,4v32C41,39.2,39.2,41,37,41z"/>
<g>
	<g>
		<path class="st1" d="M21.22,18.89c-0.55,0-1-0.45-1-1v-7.28c0-0.55,0.45-1,1-1c0.55,0,1,0.45,1,1v7.28
			C22.22,18.45,21.77,18.89,21.22,18.89z"/>
	</g>
	<g>
		<path class="st1" d="M21.22,33.2c-5.79,0-10.5-4.71-10.5-10.5c0-4.46,2.83-8.44,7.05-9.91c0.52-0.18,1.09,0.09,1.27,0.62
			c0.18,0.52-0.09,1.09-0.62,1.27c-3.42,1.19-5.71,4.41-5.71,8.02c0,4.69,3.81,8.5,8.5,8.5c4.69,0,8.5-3.81,8.5-8.5
			c0-3.61-2.29-6.83-5.71-8.02c-0.52-0.18-0.8-0.75-0.62-1.27c0.18-0.52,0.75-0.8,1.27-0.62c4.22,1.47,7.05,5.45,7.05,9.91
			C31.72,28.49,27.01,33.2,21.22,33.2z"/>
	</g>
</g>
</svg>
