<?xml version="1.0" encoding="utf-8"?>
<!-- Generator: Adobe Illustrator 26.0.1, SVG Export Plug-In . SVG Version: 6.00 Build 0)  -->
<svg version="1.1" id="Layer_1" xmlns="http://www.w3.org/2000/svg" xmlns:xlink="http://www.w3.org/1999/xlink" x="0px" y="0px"
	 viewBox="0 0 42 42" style="enable-background:new 0 0 42 42;" xml:space="preserve">
<style type="text/css">
	.st0{fill:none;stroke:#27AAE1;stroke-width:2;stroke-miterlimit:10;}
	.st1{display:none;}
	.st2{display:inline;}
	.st3{fill:#434A54;}
	.st4{fill:#8DC63F;}
	.st5{display:inline;fill:#434A54;}
</style>
<path class="st0" d="M37,41H5c-2.2,0-4-1.8-4-4V5c0-2.2,1.8-4,4-4h32c2.2,0,4,1.8,4,4v32C41,39.2,39.2,41,37,41z"/>
<g id="login" class="st1">
	<g class="st2">
		<path class="st3" d="M21.22,18.89c-0.55,0-1-0.45-1-1v-7.28c0-0.55,0.45-1,1-1c0.55,0,1,0.45,1,1v7.28
			C22.22,18.45,21.77,18.89,21.22,18.89z"/>
	</g>
	<g class="st2">
		<path class="st3" d="M21.22,33.2c-5.79,0-10.5-4.71-10.5-10.5c0-4.46,2.83-8.44,7.05-9.91c0.52-0.18,1.09,0.09,1.27,0.62
			c0.18,0.52-0.09,1.09-0.62,1.27c-3.42,1.19-5.71,4.41-5.71,8.02c0,4.69,3.81,8.5,8.5,8.5c4.69,0,8.5-3.81,8.5-8.5
			c0-3.61-2.29-6.83-5.71-8.02c-0.52-0.18-0.8-0.75-0.62-1.27c0.18-0.52,0.75-0.8,1.27-0.62c4.22,1.47,7.05,5.45,7.05,9.91
			C31.72,28.49,27.01,33.2,21.22,33.2z"/>
	</g>
</g>
<g id="logout_00000060723646236635977960000014448659135934792874_">
	<g>
		<path class="st4" d="M21.22,18.89c-0.55,0-1-0.45-1-1v-7.28c0-0.55,0.45-1,1-1c0.55,0,1,0.45,1,1v7.28
			C22.22,18.45,21.77,18.89,21.22,18.89z"/>
	</g>
	<g>
		<path class="st4" d="M21.22,33.2c-5.79,0-10.5-4.71-10.5-10.5c0-4.46,2.83-8.44,7.05-9.91c0.52-0.18,1.09,0.09,1.27,0.62
			c0.18,0.52-0.09,1.09-0.62,1.27c-3.42,1.19-5.71,4.41-5.71,8.02c0,4.69,3.81,8.5,8.5,8.5c4.69,0,8.5-3.81,8.5-8.5
			c0-3.61-2.29-6.83-5.71-8.02c-0.52-0.18-0.8-0.75-0.62-1.27c0.18-0.52,0.75-0.8,1.27-0.62c4.22,1.47,7.05,5.45,7.05,9.91
			C31.72,28.49,27.01,33.2,21.22,33.2z"/>
	</g>
</g>
<g id="cart" class="st1">
	<g class="st2">
		<path class="st3" d="M30.33,25.97H16.89c-0.45,0-0.84-0.3-0.96-0.73l-2.56-9.28c-0.08-0.3-0.02-0.62,0.17-0.87
			c0.19-0.25,0.48-0.39,0.8-0.39h18.56c0.31,0,0.61,0.15,0.8,0.39c0.19,0.25,0.25,0.57,0.17,0.87c-0.86,3.09-1.71,6.19-2.56,9.28
			C31.17,25.67,30.78,25.97,30.33,25.97z M17.65,23.97h11.92c0.67-2.43,1.34-4.86,2.01-7.28H15.64L17.65,23.97z"/>
	</g>
	<g class="st2">
		<path class="st3" d="M16.89,25.97c-0.44,0-0.84-0.29-0.96-0.74l-3.34-12.18l-3.11-0.14c-0.55-0.02-0.98-0.49-0.96-1.04
			c0.02-0.55,0.47-0.98,1.04-0.96l3.83,0.17c0.43,0.02,0.81,0.32,0.92,0.73l3.53,12.88c0.15,0.53-0.17,1.08-0.7,1.23
			C17.06,25.96,16.97,25.97,16.89,25.97z"/>
	</g>
	<g class="st2">
		<path class="st3" d="M19.27,31.92c-1.52,0-2.75-1.23-2.75-2.75s1.23-2.75,2.75-2.75c1.52,0,2.75,1.23,2.75,2.75
			S20.79,31.92,19.27,31.92z M19.27,28.42c-0.41,0-0.75,0.34-0.75,0.75s0.34,0.75,0.75,0.75c0.41,0,0.75-0.34,0.75-0.75
			S19.69,28.42,19.27,28.42z"/>
	</g>
	<g class="st2">
		<path class="st3" d="M27.61,31.92c-1.52,0-2.75-1.23-2.75-2.75s1.23-2.75,2.75-2.75c1.52,0,2.75,1.23,2.75,2.75
			S29.12,31.92,27.61,31.92z M27.61,28.42c-0.41,0-0.75,0.34-0.75,0.75s0.34,0.75,0.75,0.75c0.41,0,0.75-0.34,0.75-0.75
			S28.02,28.42,27.61,28.42z"/>
	</g>
</g>
<g id="account" class="st1">
	<path class="st5" d="M21.22,33.3c-2.94,0-5.91-0.24-8.83-0.71c-1.13-0.21-2.08-1.28-2.2-2.43c-0.09-0.82-0.17-1.64-0.25-2.46
		c-0.11-1.13,0.59-2.43,1.61-2.97c1.89-0.9,3.89-1.53,5.97-1.87l-0.03-0.23c-0.56-0.47-0.92-1.08-0.98-1.66
		c-0.02-0.19-0.04-0.39-0.06-0.58c-0.47-0.2-0.81-0.64-0.86-1.18l-0.24-2.32c-0.04-0.38,0.07-0.75,0.31-1.05
		c0.07-0.09,0.15-0.17,0.24-0.24l-0.07-0.7c-0.07-0.78-0.25-2.62,1.18-3.89c0.95-0.94,2.5-1.5,4.21-1.5c1.71,0,3.26,0.56,4.25,1.53
		c1.39,1.24,1.22,3.07,1.14,3.86l-0.02,0.19c-0.02,0.18-0.04,0.35-0.06,0.51c0.09,0.07,0.17,0.15,0.24,0.24
		c0.24,0.3,0.35,0.67,0.31,1.06l-0.24,2.32c-0.05,0.54-0.39,0.98-0.86,1.18L25.91,21c-0.04,0.55-0.4,1.16-0.96,1.64l-0.03,0.23
		c2.08,0.34,4.06,0.96,5.93,1.85c1.05,0.55,1.76,1.85,1.65,2.99c-0.07,0.78-0.15,1.56-0.23,2.34l-0.01,0.11
		c-0.12,1.16-1.08,2.23-2.18,2.43C27.13,33.06,24.16,33.3,21.22,33.3z M17.52,18.38c0.05,0.01,0.1,0.02,0.14,0.04
		c0.37,0.12,0.63,0.45,0.68,0.83l0.02,0.16c0.05,0.45,0.1,0.9,0.15,1.36c0.02,0.06,0.16,0.28,0.46,0.47
		c0.25,0.16,0.41,0.41,0.45,0.71l0.23,1.62c0.04,0.27-0.03,0.54-0.2,0.75c-0.16,0.21-0.41,0.35-0.67,0.38
		c-2.23,0.27-4.35,0.88-6.32,1.81c-0.29,0.15-0.54,0.68-0.51,0.98c0.08,0.82,0.16,1.64,0.25,2.45c0.03,0.3,0.33,0.63,0.55,0.67
		c5.57,0.89,11.38,0.9,16.99,0c0.19-0.04,0.5-0.36,0.53-0.66l0.01-0.11c0.08-0.78,0.16-1.56,0.23-2.34c0.03-0.3-0.22-0.84-0.55-1.01
		c-1.93-0.92-4.06-1.53-6.29-1.8c-0.27-0.03-0.51-0.17-0.67-0.38c-0.16-0.21-0.23-0.49-0.2-0.75l0.23-1.63
		c0.04-0.29,0.21-0.54,0.45-0.7c0.29-0.19,0.43-0.4,0.45-0.47l0.18-1.53c0.05-0.38,0.31-0.71,0.68-0.83
		c0.05-0.02,0.09-0.03,0.14-0.04l0.12-1.11c-0.05-0.02-0.11-0.05-0.16-0.09c-0.31-0.21-0.47-0.57-0.43-0.95l0.17-1.53
		c0.07-0.78,0.1-1.66-0.52-2.21c-0.65-0.63-1.71-0.99-2.89-0.99c-1.17,0-2.24,0.36-2.85,0.96c-0.65,0.58-0.63,1.46-0.55,2.24
		l0.17,1.53c0.04,0.37-0.12,0.73-0.43,0.94c-0.05,0.03-0.1,0.06-0.16,0.09L17.52,18.38z"/>
</g>
<g id="doctors" class="st1">
	<g class="st2">
		<path class="st3" d="M30.95,32.24H11.49c-1.16,0-2.1-0.94-2.1-2.1V16.56c0-1.16,0.94-2.1,2.1-2.1h19.46c1.16,0,2.1,0.94,2.1,2.1
			v13.58C33.05,31.3,32.1,32.24,30.95,32.24z M11.49,16.46c-0.05,0-0.1,0.05-0.1,0.1v13.58c0,0.06,0.05,0.1,0.1,0.1h19.46
			c0.05,0,0.1-0.05,0.1-0.1V16.56c0-0.05-0.05-0.1-0.1-0.1H11.49z"/>
	</g>
	<g class="st2">
		<path class="st3" d="M25.21,16.16c-0.55,0-1-0.45-1-1v-2.48c0-0.06-0.04-0.1-0.1-0.1h-5.78c-0.06,0-0.1,0.04-0.1,0.1v2.48
			c0,0.55-0.45,1-1,1s-1-0.45-1-1v-2.48c0-1.16,0.94-2.1,2.1-2.1h5.78c1.16,0,2.1,0.94,2.1,2.1v2.48
			C26.21,15.71,25.76,16.16,25.21,16.16z"/>
	</g>
	<polygon class="st5" points="22.56,19.45 19.88,19.45 19.88,22.01 17.32,22.01 17.32,24.69 19.88,24.69 19.88,27.25 22.56,27.25 
		22.56,24.69 25.12,24.69 25.12,22.01 22.56,22.01 22.56,19.45 	"/>
</g>
<g id="blogs" class="st1">
	<g class="st2">
		<g>
			<path class="st3" d="M32.1,33.29H10.33c-0.55,0-1-0.45-1-1V10.52c0-0.55,0.45-1,1-1H32.1c0.55,0,1,0.45,1,1v21.77
				C33.1,32.85,32.65,33.29,32.1,33.29z M11.33,31.29H31.1V11.52H11.33V31.29z"/>
		</g>
		<g>
			<path class="st3" d="M31.75,16.85H10.69c-0.28,0-0.5-0.22-0.5-0.5c0-0.28,0.22-0.5,0.5-0.5h21.06c0.28,0,0.5,0.22,0.5,0.5
				C32.25,16.63,32.02,16.85,31.75,16.85z"/>
		</g>
		<path class="st3" d="M13.88,12.46c-0.7,0-1.26,0.56-1.26,1.26c0,0.7,0.57,1.26,1.26,1.26c0.7,0,1.26-0.56,1.26-1.26
			C15.14,13.02,14.57,12.46,13.88,12.46L13.88,12.46z"/>
		<path class="st3" d="M17.29,12.46c-0.7,0-1.26,0.56-1.26,1.26c0,0.7,0.56,1.26,1.26,1.26c0.7,0,1.26-0.56,1.26-1.26
			C18.55,13.02,17.98,12.46,17.29,12.46L17.29,12.46z"/>
		<path class="st3" d="M20.7,12.46c-0.7,0-1.26,0.56-1.26,1.26c0,0.7,0.56,1.26,1.26,1.26c0.7,0,1.26-0.56,1.26-1.26
			C21.96,13.02,21.4,12.46,20.7,12.46L20.7,12.46z"/>
	</g>
	<g class="st2">
		<g>
			<path class="st3" d="M21.22,20.86h-6.83c-0.28,0-0.5-0.22-0.5-0.5c0-0.28,0.22-0.5,0.5-0.5h6.83c0.28,0,0.5,0.22,0.5,0.5
				C21.72,20.64,21.49,20.86,21.22,20.86z"/>
		</g>
		<g>
			<path class="st3" d="M21.22,24.03h-6.83c-0.28,0-0.5-0.22-0.5-0.5s0.22-0.5,0.5-0.5h6.83c0.28,0,0.5,0.22,0.5,0.5
				S21.49,24.03,21.22,24.03z"/>
		</g>
		<g>
			<path class="st3" d="M21.22,27.2h-6.83c-0.28,0-0.5-0.22-0.5-0.5s0.22-0.5,0.5-0.5h6.83c0.28,0,0.5,0.22,0.5,0.5
				S21.49,27.2,21.22,27.2z"/>
		</g>
		<g>
			<path class="st3" d="M28.05,27.2h-4.33c-0.28,0-0.5-0.22-0.5-0.5v-6.33c0-0.28,0.22-0.5,0.5-0.5h4.33c0.28,0,0.5,0.22,0.5,0.5
				v6.33C28.55,26.97,28.33,27.2,28.05,27.2z M24.22,26.2h3.33v-5.33h-3.33V26.2z"/>
		</g>
	</g>
</g>
</svg>
