<svg width="90" height="90" viewBox="0 0 90 90" fill="none" xmlns="http://www.w3.org/2000/svg">
<path d="M48.8275 57.5691C55.2431 57.5691 60.4441 52.3681 60.4441 45.9525C60.4441 39.5368 55.2431 34.3359 48.8275 34.3359C42.4118 34.3359 37.2109 39.5368 37.2109 45.9525C37.2109 52.3681 42.4118 57.5691 48.8275 57.5691Z" fill="#020202"/>
<path d="M58.7552 28.3385C62.6521 28.3385 65.8111 25.1794 65.8111 21.2825C65.8111 17.3856 62.6521 14.2266 58.7552 14.2266C54.8583 14.2266 51.6992 17.3856 51.6992 21.2825C51.6992 25.1794 54.8583 28.3385 58.7552 28.3385Z" fill="#020202"/>
<path d="M73.9017 57.565C77.7986 57.565 80.9576 54.406 80.9576 50.5091C80.9576 46.6122 77.7986 43.4531 73.9017 43.4531C70.0048 43.4531 66.8457 46.6122 66.8457 50.5091C66.8457 54.406 70.0048 57.565 73.9017 57.565Z" fill="#020202"/>
<path d="M61.6497 77.6744C65.5466 77.6744 68.7056 74.5153 68.7056 70.6185C68.7056 66.7216 65.5466 63.5625 61.6497 63.5625C57.7528 63.5625 54.5938 66.7216 54.5938 70.6185C54.5938 74.5153 57.7528 77.6744 61.6497 77.6744Z" fill="#020202"/>
<path d="M24.5813 73.2369C28.4782 73.2369 31.6373 70.0778 31.6373 66.1809C31.6373 62.2841 28.4782 59.125 24.5813 59.125C20.6844 59.125 17.5254 62.2841 17.5254 66.1809C17.5254 70.0778 20.6844 73.2369 24.5813 73.2369Z" fill="#020202"/>
<path d="M24.5813 28.3385C28.4782 28.3385 31.6373 25.1794 31.6373 21.2825C31.6373 17.3856 28.4782 14.2266 24.5813 14.2266C20.6844 14.2266 17.5254 17.3856 17.5254 21.2825C17.5254 25.1794 20.6844 28.3385 24.5813 28.3385Z" fill="#020202"/>
<path d="M40.6054 37.7417L29.2188 26.3594" stroke="#020202" stroke-width="4" stroke-miterlimit="10"/>
<path d="M55.9359 27.7578L53.3086 35.2268" stroke="#020202" stroke-width="4" stroke-miterlimit="10"/>
<path d="M70.6771 51.6948L58.7539 48.0156" stroke="#020202" stroke-width="4" stroke-miterlimit="10"/>
<path d="M58.7536 66.1828L51.6934 53.8125" stroke="#020202" stroke-width="4" stroke-miterlimit="10"/>
<path d="M40.6048 52.625L28.209 62.2317" stroke="#020202" stroke-width="4" stroke-miterlimit="10"/>
<path d="M45 88C68.7482 88 88 68.7482 88 45C88 21.2518 68.7482 2 45 2C21.2518 2 2 21.2518 2 45C2 68.7482 21.2518 88 45 88Z" stroke="#020202" stroke-width="4" stroke-miterlimit="10"/>
</svg>
