<svg width="117" height="69" viewBox="0 0 117 69" fill="none" xmlns="http://www.w3.org/2000/svg">
<path d="M68.0969 32.9366L69.5979 26.7874V23.1429C68.9532 15.0062 62.6303 8.59961 55.0183 8.59961H52.4827V23.1429H43.3037L41.8897 16.3242C41.7651 15.7067 41.4518 15.154 41.0014 14.757C40.551 14.36 39.9903 14.1424 39.4115 14.1399H34.0996V16.9101H39.4115L42.6186 32.3771C41.4742 32.7083 40.4376 33.383 39.6261 34.3249C38.8147 35.2667 38.2609 36.438 38.0274 37.7061C37.794 38.9741 37.8903 40.2882 38.3054 41.4996C38.7205 42.7109 39.4378 43.771 40.376 44.5599C41.3143 45.3487 42.436 45.8347 43.6141 45.9628C44.7922 46.0909 45.9796 45.8561 47.0417 45.2848C48.1039 44.7135 48.9984 43.8287 49.624 42.7305C50.2495 41.6323 50.581 40.3647 50.581 39.0713C50.581 38.8376 50.5704 38.6067 50.5493 38.3788H58.8533C58.8325 38.6066 58.8219 38.8375 58.8216 39.0713C58.8212 40.2994 59.1196 41.5056 59.6864 42.5661C60.2532 43.6267 61.068 44.5035 62.0472 45.1067C63.0264 45.7099 64.1348 46.0178 65.2587 45.9988C66.3827 45.9798 67.4819 45.6346 68.4435 44.9985C69.4051 44.3625 70.1947 43.4586 70.7311 42.3793C71.2676 41.3001 71.5318 40.0844 71.4965 38.8569C71.4612 37.6294 71.1278 36.4343 70.5304 35.3939C69.933 34.3536 69.0932 33.5055 68.0969 32.9366ZM55.0183 11.3698C61.2313 11.3698 66.3607 16.5359 66.9961 23.1429H55.0183V11.3698ZM44.242 43.2265C43.4897 43.2265 42.7544 42.9828 42.1289 42.5262C41.5035 42.0697 41.016 41.4207 40.7281 40.6614C40.4402 39.9022 40.3649 39.0667 40.5117 38.2607C40.6584 37.4546 41.0207 36.7142 41.5526 36.1331C42.0845 35.552 42.7622 35.1562 43.5 34.9959C44.2378 34.8356 45.0025 34.9179 45.6975 35.2324C46.3925 35.5469 46.9865 36.0795 47.4044 36.7628C47.8223 37.4461 48.0454 38.2495 48.0454 39.0713C48.0442 40.173 47.6431 41.2291 46.9301 42.0081C46.2171 42.7871 45.2503 43.2253 44.242 43.2265ZM59.6745 35.6086H49.7281C49.2516 34.7087 48.5961 33.9372 47.81 33.3512C47.0239 32.7653 46.1274 32.3797 45.1866 32.2231L43.8781 25.9131H67.0623V26.4238L65.6598 32.1691C65.4938 32.1542 65.3272 32.1464 65.1606 32.1457C64.0485 32.1466 62.9562 32.467 61.9933 33.0749C61.0303 33.6827 60.2307 34.5565 59.6745 35.6086ZM65.1606 43.2265C64.4084 43.2265 63.673 42.9828 63.0476 42.5262C62.4221 42.0697 61.9346 41.4207 61.6468 40.6614C61.3589 39.9022 61.2836 39.0667 61.4303 38.2607C61.5771 37.4546 61.9393 36.7142 62.4712 36.1331C63.0031 35.552 63.6808 35.1562 64.4186 34.9959C65.1564 34.8356 65.9211 34.9179 66.6161 35.2324C67.3111 35.5469 67.9051 36.0795 68.323 36.7628C68.741 37.4461 68.964 38.2495 68.964 39.0713C68.9629 40.173 68.5618 41.2291 67.8488 42.0081C67.1357 42.7871 66.169 43.2253 65.1606 43.2265Z" fill="#371106"/>
<path d="M10.6897 52.3154H14.367V64.5508H11.9847V56.2749C11.9847 56.0369 11.9874 55.7049 11.993 55.2788C11.9985 54.8472 12.0013 54.5151 12.0013 54.2827L9.68535 64.5508H7.20341L4.9041 54.2827C4.9041 54.5151 4.90687 54.8472 4.9124 55.2788C4.91793 55.7049 4.9207 56.0369 4.9207 56.2749V64.5508H2.53838V52.3154H6.25713L8.48174 61.936L10.6897 52.3154ZM20.6092 62.8823C21.3009 62.8823 21.8322 62.6361 22.2029 62.1436C22.5737 61.651 22.7591 60.951 22.7591 60.0435C22.7591 59.1359 22.5737 58.4386 22.2029 57.9517C21.8322 57.4591 21.3009 57.2129 20.6092 57.2129C19.9174 57.2129 19.3834 57.4591 19.0071 57.9517C18.6364 58.4386 18.451 59.1359 18.451 60.0435C18.451 60.951 18.6364 61.651 19.0071 62.1436C19.3834 62.6361 19.9174 62.8823 20.6092 62.8823ZM25.241 60.0435C25.241 61.3716 24.8592 62.5088 24.0955 63.4551C23.3318 64.3958 22.1725 64.8662 20.6175 64.8662C19.0625 64.8662 17.9031 64.3958 17.1395 63.4551C16.3758 62.5088 15.9939 61.3716 15.9939 60.0435C15.9939 58.7375 16.3758 57.6058 17.1395 56.6484C17.9031 55.6911 19.0625 55.2124 20.6175 55.2124C22.1725 55.2124 23.3318 55.6911 24.0955 56.6484C24.8592 57.6058 25.241 58.7375 25.241 60.0435ZM37.053 55.3037C37.4515 55.3037 37.8444 55.3812 38.2317 55.5361C38.6191 55.6911 38.9705 55.9622 39.2859 56.3496C39.5405 56.665 39.712 57.0524 39.8006 57.5117C39.8559 57.8161 39.8836 58.2616 39.8836 58.8481L39.867 64.5508H37.4432V58.79C37.4432 58.4469 37.3878 58.1647 37.2771 57.9434C37.0669 57.5228 36.6795 57.3125 36.115 57.3125C35.462 57.3125 35.011 57.5837 34.762 58.126C34.6347 58.4137 34.5711 58.7596 34.5711 59.1636V64.5508H32.1888V59.1636C32.1888 58.6268 32.1334 58.2367 32.0228 57.9932C31.8235 57.556 31.4334 57.3374 30.8523 57.3374C30.1772 57.3374 29.7234 57.556 29.491 57.9932C29.3637 58.2422 29.3001 58.613 29.3001 59.1055V64.5508H26.9012V55.5195H29.2005V56.8394C29.4938 56.369 29.7705 56.0342 30.0306 55.835C30.4899 55.4808 31.0848 55.3037 31.8152 55.3037C32.507 55.3037 33.0659 55.4559 33.492 55.7603C33.8351 56.0425 34.0952 56.4049 34.2723 56.8477C34.5822 56.3164 34.9668 55.9263 35.4261 55.6772C35.9131 55.4282 36.4554 55.3037 37.053 55.3037ZM46.6155 61.3218C46.6155 60.5858 46.7981 59.9549 47.1634 59.4292C47.5286 58.9035 48.1263 58.3833 48.9563 57.8687L49.2137 57.7109C48.8595 57.3125 48.5856 56.9058 48.3919 56.4907C48.1982 56.0757 48.1014 55.644 48.1014 55.1958C48.1014 54.3049 48.4002 53.6104 48.9978 53.1123C49.5955 52.6087 50.3702 52.3569 51.3221 52.3569C52.1909 52.3569 52.9075 52.6143 53.472 53.1289C54.042 53.638 54.327 54.291 54.327 55.0879C54.327 55.8073 54.1554 56.3911 53.8123 56.8394C53.4747 57.2876 52.9767 57.7026 52.3182 58.0845L54.053 60.2261C54.2522 59.9383 54.4044 59.6257 54.5096 59.2881C54.6202 58.9505 54.6783 58.5936 54.6839 58.2173H56.784C56.7508 58.9588 56.5737 59.7087 56.2527 60.4668C56.0756 60.8929 55.7879 61.3633 55.3895 61.8779L57.6141 64.5508H54.742L53.8953 63.5132C53.4858 63.895 53.104 64.1772 52.7498 64.3599C52.1189 64.6864 51.3912 64.8496 50.5667 64.8496C49.3271 64.8496 48.3587 64.4844 47.6614 63.7539C46.9642 63.0234 46.6155 62.2127 46.6155 61.3218ZM50.2762 55.1128C50.2762 55.3341 50.3536 55.5666 50.5086 55.8101C50.6082 55.9705 50.824 56.2555 51.1561 56.665C51.4881 56.4326 51.726 56.2362 51.8699 56.0757C52.1466 55.7769 52.285 55.4531 52.285 55.1045C52.285 54.8499 52.202 54.623 52.0359 54.4238C51.8699 54.2246 51.6181 54.125 51.2806 54.125C51.0703 54.125 50.8738 54.1831 50.6912 54.2993C50.4145 54.4709 50.2762 54.742 50.2762 55.1128ZM48.9729 61.2471C48.9729 61.651 49.1362 62.0218 49.4627 62.3594C49.7947 62.6969 50.2181 62.8657 50.7327 62.8657C51.1201 62.8657 51.4853 62.7772 51.8284 62.6001C52.177 62.4175 52.4593 62.2155 52.6751 61.9941L50.4339 59.2217C49.8418 59.6146 49.4489 59.9604 49.2552 60.2593C49.067 60.5581 48.9729 60.8874 48.9729 61.2471ZM66.4876 54.4404V57.1382H69.4925C70.0293 57.1382 70.4637 57.0386 70.7957 56.8394C71.1333 56.6346 71.302 56.2749 71.302 55.7603C71.302 55.1903 71.0807 54.814 70.638 54.6313C70.2561 54.5041 69.7692 54.4404 69.177 54.4404H66.4876ZM66.4876 59.1636V62.4258H69.4925C70.0293 62.4258 70.4471 62.3538 70.7459 62.21C71.2882 61.9443 71.5594 61.4352 71.5594 60.6826C71.5594 60.0462 71.2965 59.609 70.7708 59.3711C70.4775 59.2383 70.0652 59.1691 69.534 59.1636H66.4876ZM69.9905 52.3154C71.4902 52.3376 72.5527 52.772 73.178 53.6187C73.5543 54.1388 73.7425 54.7614 73.7425 55.4863C73.7425 56.2334 73.5543 56.8338 73.178 57.2876C72.9677 57.5422 72.6578 57.7746 72.2483 57.9849C72.8737 58.2118 73.344 58.5715 73.6595 59.064C73.9804 59.5565 74.1409 60.1541 74.1409 60.8569C74.1409 61.5819 73.9583 62.2321 73.5931 62.8076C73.3606 63.1895 73.0701 63.5104 72.7215 63.7705C72.3286 64.0693 71.8637 64.2741 71.327 64.3848C70.7957 64.4954 70.2174 64.5508 69.5921 64.5508H64.0472V52.3154H69.9905ZM81.0887 60.1514C80.9393 60.2454 80.7871 60.3229 80.6321 60.3838C80.4827 60.4391 80.2752 60.4917 80.0096 60.5415L79.4783 60.6411C78.9803 60.7297 78.6233 60.8376 78.4075 60.9648C78.0423 61.1807 77.8597 61.5155 77.8597 61.9692C77.8597 62.3732 77.9703 62.6665 78.1917 62.8491C78.4186 63.0262 78.6925 63.1147 79.0135 63.1147C79.5226 63.1147 79.9902 62.9653 80.4163 62.6665C80.8479 62.3677 81.0721 61.8226 81.0887 61.0312V60.1514ZM79.6526 59.0474C80.0898 58.992 80.4025 58.9229 80.5906 58.8398C80.9282 58.696 81.097 58.4718 81.097 58.1675C81.097 57.7967 80.9669 57.5422 80.7068 57.4038C80.4523 57.2599 80.076 57.188 79.5779 57.188C79.019 57.188 78.6233 57.3263 78.3909 57.603C78.2249 57.8078 78.1142 58.0845 78.0589 58.4331H75.7762C75.826 57.6418 76.0473 56.9915 76.4402 56.4824C77.0656 55.6855 78.1391 55.2871 79.6609 55.2871C80.6515 55.2871 81.5314 55.4836 82.3006 55.8765C83.0698 56.2694 83.4544 57.0109 83.4544 58.1011V62.2515C83.4544 62.5392 83.4599 62.8879 83.471 63.2974C83.4876 63.6073 83.5346 63.8175 83.6121 63.9282C83.6896 64.0389 83.8058 64.1302 83.9607 64.2021V64.5508H81.3875C81.3156 64.3682 81.2658 64.1966 81.2381 64.0361C81.2104 63.8757 81.1883 63.693 81.1717 63.4883C80.8452 63.8424 80.4689 64.144 80.0428 64.3931C79.5337 64.6864 78.9581 64.833 78.3162 64.833C77.4972 64.833 76.8193 64.6006 76.2825 64.1357C75.7513 63.6654 75.4856 63.0013 75.4856 62.1436C75.4856 61.0312 75.9145 60.2261 76.7723 59.728C77.2426 59.4569 77.9344 59.2632 78.8475 59.147L79.6526 59.0474ZM90.452 55.3037C91.6417 55.3037 92.5714 55.7326 93.241 56.5903C93.9161 57.4481 94.2537 58.5549 94.2537 59.9106C94.2537 61.3162 93.9217 62.4811 93.2576 63.4053C92.5936 64.3294 91.6666 64.7915 90.4769 64.7915C89.7298 64.7915 89.1294 64.6421 88.6756 64.3433C88.4044 64.1662 88.1111 63.8563 87.7957 63.4136V64.5508H85.4798V52.332H87.8372V56.6816C88.136 56.2611 88.4653 55.9401 88.825 55.7188C89.2511 55.4421 89.7934 55.3037 90.452 55.3037ZM89.846 62.8408C90.4547 62.8408 90.9279 62.5946 91.2654 62.1021C91.603 61.6095 91.7718 60.9621 91.7718 60.1597C91.7718 59.5177 91.6888 58.9865 91.5228 58.5659C91.2073 57.769 90.6263 57.3706 89.7796 57.3706C88.9218 57.3706 88.3325 57.7607 88.0115 58.541C87.8455 58.9561 87.7625 59.4928 87.7625 60.1514C87.7625 60.9261 87.934 61.568 88.2771 62.0771C88.6202 62.5863 89.1432 62.8408 89.846 62.8408ZM96.3206 66.2856L96.6194 66.3022C96.8519 66.3133 97.0732 66.305 97.2835 66.2773C97.4938 66.2497 97.6709 66.186 97.8147 66.0864C97.9531 65.9924 98.0804 65.7959 98.1966 65.4971C98.3183 65.1982 98.3681 65.0156 98.346 64.9492L95.0257 55.5029H97.657L99.6326 62.1768L101.5 55.5029H104.015L100.911 64.4014C100.313 66.1169 99.8401 67.1794 99.4915 67.5889C99.1429 68.0039 98.4456 68.2114 97.3997 68.2114C97.1894 68.2114 97.0206 68.2087 96.8934 68.2031C96.7661 68.2031 96.5752 68.1948 96.3206 68.1782V66.2856Z" fill="#371106"/>
<path d="M109.75 57.9004L113.15 61.3004L116.55 57.9004" stroke="#371106" stroke-width="0.85"/>
</svg>
