<svg width="86" height="72" viewBox="0 0 86 72" fill="none" xmlns="http://www.w3.org/2000/svg">
<path d="M56.2875 24.8625V26.1375H57.5625H58.625V49.3H23.775V26.1375H24.8375H26.1125V24.8625V20.1875C26.1125 14.4402 30.7777 9.77501 36.525 9.77501C38.0048 9.77501 39.4187 10.0876 40.6839 10.6477L41.1991 10.8757L41.7145 10.6484C43.0247 10.0705 44.4413 9.77307 45.8733 9.77501H45.875C51.6223 9.77501 56.2875 14.4402 56.2875 20.1875V24.8625ZM28.2375 24.8625V26.1375H29.5125H34.1875H35.4625V24.8625V20.1875C35.4625 17.848 36.2684 15.7045 37.5918 13.94L39.1218 11.9H36.5718H36.525C31.964 11.9 28.2375 15.6265 28.2375 20.1875V24.8625ZM52.8875 26.1375H54.1625V24.8625V20.1875C54.1625 15.6265 50.436 11.9 45.875 11.9H45.8282H43.2525L44.8144 13.9481C46.1826 15.7423 46.928 17.934 46.9375 20.1902V24.8625V26.1375H48.2125H52.8875ZM42.0538 14.0513L41.2 13.2815L40.3462 14.0513C38.672 15.5609 37.5875 17.7437 37.5875 20.1875V24.8625V26.1375H38.8625H43.5375H44.8125V24.8625V20.1875C44.8125 17.7437 43.728 15.5609 42.0538 14.0513Z" stroke="#371106" stroke-width="2.55"/>
<path d="M8.49599 62.9077C8.49599 62.2713 8.32721 61.8175 7.98965 61.5464C7.65762 61.2752 7.19 61.1396 6.58681 61.1396H4.20449V64.7422H6.58681C7.19 64.7422 7.65762 64.5955 7.98965 64.3022C8.32721 64.009 8.49599 63.5441 8.49599 62.9077ZM11.0277 62.8911C11.0277 64.3354 10.6625 65.3564 9.93203 65.9541C9.20156 66.5518 8.15843 66.8506 6.80264 66.8506H4.20449V71.25H1.66445V59.0146H6.99355C8.22207 59.0146 9.20156 59.3301 9.93203 59.9609C10.6625 60.5918 11.0277 61.5685 11.0277 62.8911ZM17.6684 61.9863C17.7126 61.9863 17.7486 61.9891 17.7763 61.9946C17.8095 61.9946 17.8786 61.9974 17.9838 62.0029V64.4268C17.8344 64.4102 17.7016 64.3991 17.5854 64.3936C17.4691 64.388 17.3751 64.3853 17.3031 64.3853C16.3513 64.3853 15.7121 64.6951 15.3856 65.3149C15.203 65.6636 15.1117 66.2004 15.1117 66.9253V71.25H12.7294V62.2021H14.9872V63.7793C15.3524 63.1761 15.6706 62.7638 15.9418 62.5425C16.3845 62.1717 16.96 61.9863 17.6684 61.9863ZM23.4374 69.5815C24.1291 69.5815 24.6604 69.3353 25.0312 68.8428C25.4019 68.3503 25.5873 67.6502 25.5873 66.7427C25.5873 65.8351 25.4019 65.1379 25.0312 64.6509C24.6604 64.1584 24.1291 63.9121 23.4374 63.9121C22.7457 63.9121 22.2117 64.1584 21.8354 64.6509C21.4646 65.1379 21.2792 65.8351 21.2792 66.7427C21.2792 67.6502 21.4646 68.3503 21.8354 68.8428C22.2117 69.3353 22.7457 69.5815 23.4374 69.5815ZM28.0692 66.7427C28.0692 68.0708 27.6874 69.208 26.9237 70.1543C26.1601 71.0951 25.0007 71.5654 23.4457 71.5654C21.8907 71.5654 20.7313 71.0951 19.9677 70.1543C19.204 69.208 18.8222 68.0708 18.8222 66.7427C18.8222 65.4367 19.204 64.305 19.9677 63.3477C20.7313 62.3903 21.8907 61.9116 23.4457 61.9116C25.0007 61.9116 26.1601 62.3903 26.9237 63.3477C27.6874 64.305 28.0692 65.4367 28.0692 66.7427ZM33.1078 61.9863C33.6557 61.9863 34.1426 62.1081 34.5687 62.3516C34.9949 62.5895 35.3407 62.9215 35.6063 63.3477V59.0312H38.0053V71.25H35.706V69.9966C35.3684 70.5334 34.9838 70.9235 34.5521 71.167C34.1205 71.4105 33.5837 71.5322 32.9418 71.5322C31.8848 71.5322 30.9939 71.1061 30.2689 70.2539C29.5495 69.3962 29.1898 68.2977 29.1898 66.9585C29.1898 65.4146 29.544 64.1999 30.2523 63.3145C30.9662 62.429 31.918 61.9863 33.1078 61.9863ZM33.6225 69.54C34.2921 69.54 34.8012 69.291 35.1498 68.793C35.4984 68.2949 35.6728 67.6502 35.6728 66.8589C35.6728 65.7521 35.3933 64.9608 34.8344 64.4849C34.4913 64.1971 34.0928 64.0532 33.6391 64.0532C32.9473 64.0532 32.4382 64.3161 32.1117 64.8418C31.7908 65.362 31.6303 66.0094 31.6303 66.7842C31.6303 67.6198 31.7935 68.2894 32.12 68.793C32.452 69.291 32.9529 69.54 33.6225 69.54ZM42.5209 62.2021V67.6558C42.5209 68.1704 42.5818 68.5578 42.7035 68.8179C42.9193 69.2772 43.3427 69.5068 43.9735 69.5068C44.7815 69.5068 45.3349 69.1803 45.6337 68.5273C45.7886 68.1732 45.8661 67.7056 45.8661 67.1245V62.2021H48.265V71.25H45.9657V69.9717C45.9436 69.9993 45.8882 70.0824 45.7997 70.2207C45.7112 70.359 45.606 70.4808 45.4843 70.5859C45.1135 70.918 44.7538 71.1449 44.4052 71.2666C44.0621 71.3883 43.6581 71.4492 43.1933 71.4492C41.8541 71.4492 40.952 70.9678 40.4872 70.0049C40.2271 69.4736 40.0971 68.6906 40.0971 67.6558V62.2021H42.5209ZM55.9599 65.4478C55.9156 65.1102 55.8021 64.8058 55.6195 64.5347C55.3539 64.1694 54.9416 63.9868 54.3827 63.9868C53.5858 63.9868 53.0408 64.3825 52.7475 65.1738C52.5925 65.5944 52.515 66.1533 52.515 66.8506C52.515 67.5146 52.5925 68.0487 52.7475 68.4526C53.0297 69.2052 53.5609 69.5815 54.3412 69.5815C54.8946 69.5815 55.2875 69.4321 55.5199 69.1333C55.7523 68.8345 55.8935 68.4471 55.9433 67.9712H58.3588C58.3034 68.6906 58.0434 69.3713 57.5785 70.0132C56.837 71.048 55.7385 71.5654 54.2831 71.5654C52.8277 71.5654 51.7569 71.1338 51.0707 70.2705C50.3845 69.4072 50.0414 68.2866 50.0414 66.9087C50.0414 65.3537 50.4205 64.1445 51.1786 63.2812C51.9367 62.418 52.9826 61.9863 54.3163 61.9863C55.4507 61.9863 56.3777 62.2409 57.0971 62.75C57.822 63.2591 58.2509 64.1584 58.3837 65.4478H55.9599ZM59.0893 63.9702V62.2852H60.351V59.7617H62.6918V62.2852H64.161V63.9702H62.6918V68.7515C62.6918 69.1222 62.7388 69.3547 62.8329 69.4487C62.927 69.5373 63.2147 69.5815 63.6962 69.5815C63.7681 69.5815 63.8428 69.5815 63.9203 69.5815C64.0033 69.576 64.0836 69.5705 64.161 69.5649V71.333L63.0404 71.3745C61.9226 71.4132 61.1589 71.2196 60.7494 70.7935C60.4838 70.5223 60.351 70.1045 60.351 69.54V63.9702H59.0893ZM67.5229 68.3613C67.5727 68.7819 67.6806 69.0807 67.8466 69.2578C68.1399 69.5732 68.6822 69.731 69.4735 69.731C69.9384 69.731 70.3064 69.6618 70.5775 69.5234C70.8542 69.3851 70.9926 69.1776 70.9926 68.9009C70.9926 68.6353 70.8819 68.4333 70.6605 68.2949C70.4392 68.1566 69.6174 67.9186 68.1952 67.5811C67.1715 67.3265 66.4493 67.0083 66.0287 66.6265C65.6081 66.2502 65.3979 65.7078 65.3979 64.9995C65.3979 64.1639 65.7243 63.4473 66.3773 62.8496C67.0359 62.2464 67.96 61.9448 69.1498 61.9448C70.2787 61.9448 71.1973 62.1717 71.9057 62.6255C72.6195 63.0737 73.029 63.8512 73.1342 64.958H70.7685C70.7353 64.6536 70.6495 64.4129 70.5111 64.2358C70.251 63.9149 69.8083 63.7544 69.183 63.7544C68.6684 63.7544 68.3004 63.8346 68.079 63.9951C67.8632 64.1556 67.7553 64.3438 67.7553 64.5596C67.7553 64.8307 67.8715 65.0272 68.1039 65.1489C68.3363 65.2762 69.1581 65.4948 70.5692 65.8047C71.51 66.026 72.2156 66.3608 72.6859 66.8091C73.1508 67.2629 73.3832 67.8301 73.3832 68.5107C73.3832 69.4072 73.0484 70.1405 72.3788 70.7104C71.7147 71.2749 70.6854 71.5571 69.2909 71.5571C67.8687 71.5571 66.8173 71.2583 66.1366 70.6606C65.4615 70.0575 65.1239 69.291 65.1239 68.3613H67.5229Z" fill="#371106"/>
<path d="M78.4004 63.75L81.8004 67.15L85.2004 63.75" stroke="#371106" stroke-width="0.85"/>
</svg>
