<?xml version="1.0" encoding="utf-8"?>
<!-- Generator: Adobe Illustrator 16.0.0, SVG Export Plug-In . SVG Version: 6.00 Build 0)  -->
<!DOCTYPE svg PUBLIC "-//W3C//DTD SVG 1.1//EN" "http://www.w3.org/Graphics/SVG/1.1/DTD/svg11.dtd">
<svg version="1.1" id="RV_Name" xmlns="http://www.w3.org/2000/svg" xmlns:xlink="http://www.w3.org/1999/xlink" x="0px" y="0px"
	 width="2970px" height="812px" viewBox="0 0 2970 812" enable-background="new 0 0 2970 812" xml:space="preserve">
<g>
	<path d="M178.628,383.545v222c0,0,11.333,19.334,21.333,28.667s20.185,18.961,22.694,20.209c2.679,1.333,5.306,1.791,9.973,1.124
		s4.667-8.667,4.667-8.667V455.545c0,0,48-35.333,60.667-42s27.333-17.333,40-16s24.667,11.333,31.333,21.333
		c6.667,10,9.333,17.333,10.667,20s1.333,8,6,8s11.334-4.666,14.667-8.666s17.333-22,20.667-26.667s4-7.999,4-11.333
		s-2.667-8.668-5.333-13.334s-15.333-24-21.333-31.333s-20.667-23.333-24-26s-6.418-7.917-14-8.667
		c-16.998-1.682-32.193,18.222-39.293,24c-6.12,4.98-51.125,44.375-69.5,60.25c-2.959,2.557-7.375,1.815-9.625,0.25
		c-2.875-2-2.75-10.25-2.75-10.25l0.597-68.951c0,0-0.472-6.674-14.222-7.3c-9.244-0.421-39.5-2.374-54.625,2.001
		c-13.856,4.008-20.597,15.153-26,25.25c-6.526,12.195-11.407,25.589-11.5,28.75c-0.114,3.875,2.125,6.625,8,7.75
		C148.517,383.932,178.628,383.545,178.628,383.545z"/>
	<path d="M464.96,326.378h146.5c0,0,113,8,111,114c-2,106-99,107-122.5,107.5s-73.771-19.232-89.5-34.5
		c-3.821-3.709-9.625-5.875-13.5-5c-2.844,0.643-5.324,1.813-5.875,7.375c-1.375,13.875,0.396,29.124,1,36.5
		c0.851,10.401,9.875,48.625,24.875,62.625s22,23,55.5,24.5s73.5-38,75.5-40s35-37,39-44.5s12-2.5,15,0s24.5,22.5,24,40.5
		s-32.775,47.699-52.5,57.5c-39.75,19.75-62,17.5-81.5,17.5s-81-3-122-59.5s-24.5-142.5-21.5-154s24.5-53,28-58.5s6.548-9.107,7-12
		c0.625-4-4.509-6.253-7.5-6.125c-8.75,0.375-25.865,0.605-32.5-0.125c-5.189-0.571-4.262-19.496,3-33.125
		C455.585,329.878,464.96,326.378,464.96,326.378z M570.96,507.003c94.645-2.375,94.625-67.5,94.625-67.5
		c0.021-30.375-18.625-61.243-73.25-60.875c-53.648,0.361-67.97,35.682-75,49.25c-7.75,14.958-20.875,51-20.875,51
		S518.102,508.329,570.96,507.003z"/>
	<path d="M774.625,349.548c11.335-26.67,22.835-26.67,22.835-26.67s112.333,0,149,0c71.002,0,76.832,59.333,76.832,59.333v267.336
		c0,0,0,5.997-6,6.301c-2.219,0.112-12.99-9.479-17.333-14.301c-1.996-2.216-17.651-16.94-20.667-14
		c-20.262,19.757-63.665,40.997-129.665,36.997s-109.002-53.663-111.002-88.997s13.333-64.666,40-85.333s57.333-26,95.333-42
		s75.002-33.003,76.335-51.003c1.137-15.349-47.668-14.996-47.668-14.996h-134C768.625,382.215,762.604,377.833,774.625,349.548z
		 M966.627,554.545v-90.333c0,0,0-10.667-9.333-7.667s-69.333,28.333-82,33s-76,25.667-75,78.667s32.667,56.001,62.333,57.667
		S957.627,601.211,966.627,554.545z"/>
	<path d="M1075.068,195.447v422.979c0,0-0.048,19.952,20.642,32.202c10.997,6.511,19.5,11.501,29.25,11.5
		c5.896-0.001,7.105-6.279,7.105-6.279V235.945c0,0-0.855-17.816-20.355-31.816c-5.845-4.196-20.75-14.5-29.25-13.5
		S1075.068,195.447,1075.068,195.447z"/>
	<path d="M1219.46,408.878l83,221c0,0,13,37,39,32.25s47.5-19.25,75-78.75s63.334-193.825,63.334-193.825s0.666-7.675,7.5-7.675
		c7.334,0,20.166,0,20.166,0s15.787-4.335,25-23c9.411-19.067,12.834-26.25,10.1-36c-1.58-5.635-18.85-9.75-48.6-11.5
		c-32.84-1.932-49.25-2.107-62.25,4.25c-5.632,2.755-16.755,11.131-24.75,25.083c-4.25,7.417-13.957,24.289-13.957,30.886
		c0,17.031,60.728,6.947,63.124,10.781c2.5,4,0.753,7.077-0.5,10.666c-12.167,34.843-46.004,125.865-49.667,136.008
		c-4.333,12-27.167,60.834-44.558,61.325c-14.959,0.423-22.942-25.5-22.942-25.5l-60.5-170c0,0-3-9.5-0.5-11.5s15-2,22-3
		s19.5-19.5,22-25s11.75-23.25,9.25-27.25s-2.25-13-52-17.5c-25.934-2.346-49.25-2.75-64,8c-9.865,7.189-33.233,36.023-34.25,53.75
		c-0.449,7.833,4.666,8.113,10,8c10.97-0.233,21.165-1.594,21.833,2.333C1213.627,390.545,1219.46,408.878,1219.46,408.878z"/>
	<path d="M1585.96,326.378h146.5c0,0,113,8,111,114c-2,106-99,107-122.5,107.5s-73.771-19.232-89.5-34.5
		c-3.821-3.709-9.625-5.875-13.5-5c-2.844,0.643-5.324,1.813-5.875,7.375c-1.375,13.875,0.396,29.124,1,36.5
		c0.852,10.401,9.875,48.625,24.875,62.625s22,23,55.5,24.5s73.5-38,75.5-40s35-37,39-44.5s12-2.5,15,0s24.5,22.5,24,40.5
		s-32.775,47.699-52.5,57.5c-39.75,19.75-62,17.5-81.5,17.5s-81-3-122-59.5s-24.5-142.5-21.5-154s24.5-53,28-58.5s6.548-9.107,7-12
		c0.625-4-4.509-6.253-7.5-6.125c-8.75,0.375-25.865,0.605-32.5-0.125c-5.189-0.571-4.262-19.496,3-33.125
		C1576.585,329.878,1585.96,326.378,1585.96,326.378z M1691.96,507.003c94.645-2.375,94.625-67.5,94.625-67.5
		c0.021-30.375-18.625-61.243-73.25-60.875c-53.648,0.361-67.97,35.682-75,49.25c-7.75,14.958-20.875,51-20.875,51
		S1639.102,508.329,1691.96,507.003z"/>
	<path d="M2109.46,190.628c8.5-1,23.405,9.304,29.25,13.5c19.5,14,20.355,31.816,20.355,31.816v419.904c0,0-1.21,6.278-7.105,6.279
		c-9.75,0.001-21.083-10.776-28.75-21c-3.75-5-9.25-14.75-13.25-19.75c-3.397-4.247-5.25-5.5-5.25-5.5l-17.75,13
		c0,0-38,36.25-101.75,36.25c-81,0-113.25-99.5-113.25-152c0-34.75,27.5-160.75,123-160.75c66,0,107.108,63.999,107.108,63.999
		V195.447C2102.068,195.447,2100.96,191.628,2109.46,190.628z M2015.085,399.878c-53.625,0-85.875,61.25-85.875,130
		c0,60,21.73,90.75,79.75,90.75c63.75,0,92-37.5,92-37.5v-127C2100.96,456.128,2078.46,399.878,2015.085,399.878z"/>
	<path d="M2213.46,327.609c8.5-0.71,24.116,5.495,29.25,9.578c20.355,16.191,20.355,33.572,20.355,33.572v286.914
		c0,0-1.21,4.454-7.105,4.455c-9.75,0.001-19.651-5.08-29.25-12.159c-17.75-13.091-20.642-30.847-20.642-30.847V331.027
		C2206.068,331.027,2204.96,328.318,2213.46,327.609z M2236.46,273.378c24,0,39.5-29,39.5-42c0-15.5-10.5-40.818-37.5-40.818
		c-26.194,0-41.5,34.985-41.5,40.818S2212.46,273.378,2236.46,273.378z"/>
	<path d="M2482.96,326.378c32.333,0,96.656,37.706,93.396,58.862c-2.229,14.471-24.229,20.304-56.767,14.56
		c-10.216-1.804-24.796-30.256-58.13-28.922c-5.321,0.213-44.427,2.238-74,68.25c-14,31.25-13.647,61.021-13.75,67.75
		c-0.164,10.767,1.868,37.401,2.75,44.75c1.5,12.5,6.75,30.5,19.5,49.25c11.541,16.972,30.557,34.459,64,32
		c34-2.5,57.048-31.946,66.25-42.75c7.368-8.651,26.25-38,32.5-44.75c5.775-6.237,14.25-2.25,17.25,0.25s24.5,22.5,24,40.5
		s-25.75,45.5-61.5,63.25c-30.144,14.967-59.5,15.75-79,15.75s-76.5,0.25-117.5-56.25s-34.667-124-27.5-152
		c2.947-11.514,16-43,28-58.5c9.871-12.75,26-31,56-52C2424.054,328.462,2461.252,326.378,2482.96,326.378z"/>
	<polygon points="2543.961,141.544 2659.628,141.544 2659.628,165.211 2613.961,165.211 2613.961,289.544 2587.961,289.544 
		2587.961,165.211 2543.961,165.211 	"/>
	<polygon points="2681.961,141.544 2717.628,141.544 2758.628,243.878 2799.294,141.544 2836.294,141.544 2836.294,289.544 
		2809.628,289.544 2809.628,175.92 2764.628,289.544 2753.294,289.544 2707.294,175.878 2707.294,289.544 2681.961,289.544 	"/>
</g>
</svg>
