<?xml version="1.0" encoding="utf-8"?>
<!-- Generator: Adobe Illustrator 26.0.1, SVG Export Plug-In . SVG Version: 6.00 Build 0)  -->
<svg version="1.1" id="RV_Name" xmlns="http://www.w3.org/2000/svg" xmlns:xlink="http://www.w3.org/1999/xlink" x="0px" y="0px"
	 viewBox="0 0 2970 812" style="enable-background:new 0 0 2970 812;" xml:space="preserve">
<style type="text/css">
	.st0{fill:#FFFFFF;}
</style>
<g>
	<path class="st0" d="M178.63,383.55v222c0,0,11.33,19.33,21.33,28.67c10,9.33,20.19,18.96,22.69,20.21
		c2.68,1.33,5.31,1.79,9.97,1.12c4.67-0.67,4.67-8.67,4.67-8.67V455.55c0,0,48-35.33,60.67-42c12.67-6.67,27.33-17.33,40-16
		c12.67,1.33,24.67,11.33,31.33,21.33c6.67,10,9.33,17.33,10.67,20c1.33,2.67,1.33,8,6,8c4.67,0,11.33-4.67,14.67-8.67
		s17.33-22,20.67-26.67c3.33-4.67,4-8,4-11.33c0-3.33-2.67-8.67-5.33-13.33c-2.67-4.67-15.33-24-21.33-31.33
		c-6-7.33-20.67-23.33-24-26c-3.33-2.67-6.42-7.92-14-8.67c-17-1.68-32.19,18.22-39.29,24c-6.12,4.98-51.12,44.38-69.5,60.25
		c-2.96,2.56-7.37,1.82-9.62,0.25c-2.88-2-2.75-10.25-2.75-10.25l0.6-68.95c0,0-0.47-6.67-14.22-7.3c-9.24-0.42-39.5-2.37-54.62,2
		c-13.86,4.01-20.6,15.15-26,25.25c-6.53,12.2-11.41,25.59-11.5,28.75c-0.11,3.88,2.12,6.62,8,7.75
		C148.52,383.93,178.63,383.55,178.63,383.55z"/>
	<path class="st0" d="M464.96,326.38h146.5c0,0,113,8,111,114c-2,106-99,107-122.5,107.5s-73.77-19.23-89.5-34.5
		c-3.82-3.71-9.62-5.87-13.5-5c-2.84,0.64-5.32,1.81-5.88,7.37c-1.38,13.88,0.4,29.12,1,36.5c0.85,10.4,9.88,48.62,24.87,62.62
		c15,14,22,23,55.5,24.5s73.5-38,75.5-40s35-37,39-44.5s12-2.5,15,0s24.5,22.5,24,40.5s-32.77,47.7-52.5,57.5
		c-39.75,19.75-62,17.5-81.5,17.5s-81-3-122-59.5s-24.5-142.5-21.5-154s24.5-53,28-58.5s6.55-9.11,7-12c0.62-4-4.51-6.25-7.5-6.12
		c-8.75,0.38-25.87,0.61-32.5-0.12c-5.19-0.57-4.26-19.5,3-33.12C455.59,329.88,464.96,326.38,464.96,326.38z M570.96,507
		c94.64-2.38,94.62-67.5,94.62-67.5c0.02-30.37-18.62-61.24-73.25-60.87c-53.65,0.36-67.97,35.68-75,49.25
		c-7.75,14.96-20.87,51-20.87,51S518.1,508.33,570.96,507z"/>
	<path class="st0" d="M774.63,349.55c11.33-26.67,22.83-26.67,22.83-26.67s112.33,0,149,0c71,0,76.83,59.33,76.83,59.33v267.34
		c0,0,0,6-6,6.3c-2.22,0.11-12.99-9.48-17.33-14.3c-2-2.22-17.65-16.94-20.67-14c-20.26,19.76-63.66,41-129.66,37s-109-53.66-111-89
		c-2-35.33,13.33-64.67,40-85.33c26.67-20.67,57.33-26,95.33-42s75-33,76.34-51c1.14-15.35-47.67-15-47.67-15h-134
		C768.63,382.22,762.6,377.83,774.63,349.55z M966.63,554.54v-90.33c0,0,0-10.67-9.33-7.67s-69.33,28.33-82,33s-76,25.67-75,78.67
		s32.67,56,62.33,57.67C892.29,627.54,957.63,601.21,966.63,554.54z"/>
	<path class="st0" d="M1075.07,195.45v422.98c0,0-0.05,19.95,20.64,32.2c11,6.51,19.5,11.5,29.25,11.5c5.9,0,7.11-6.28,7.11-6.28
		v-419.9c0,0-0.86-17.82-20.36-31.82c-5.84-4.2-20.75-14.5-29.25-13.5S1075.07,195.45,1075.07,195.45z"/>
	<path class="st0" d="M1219.46,408.88l83,221c0,0,13,37,39,32.25s47.5-19.25,75-78.75s63.33-193.82,63.33-193.82s0.67-7.67,7.5-7.67
		c7.33,0,20.17,0,20.17,0s15.79-4.33,25-23c9.41-19.07,12.83-26.25,10.1-36c-1.58-5.63-18.85-9.75-48.6-11.5
		c-32.84-1.93-49.25-2.11-62.25,4.25c-5.63,2.75-16.76,11.13-24.75,25.08c-4.25,7.42-13.96,24.29-13.96,30.89
		c0,17.03,60.73,6.95,63.12,10.78c2.5,4,0.75,7.08-0.5,10.67c-12.17,34.84-46,125.86-49.67,136.01c-4.33,12-27.17,60.83-44.56,61.33
		c-14.96,0.42-22.94-25.5-22.94-25.5l-60.5-170c0,0-3-9.5-0.5-11.5s15-2,22-3s19.5-19.5,22-25s11.75-23.25,9.25-27.25
		s-2.25-13-52-17.5c-25.93-2.35-49.25-2.75-64,8c-9.86,7.19-33.23,36.02-34.25,53.75c-0.45,7.83,4.67,8.11,10,8
		c10.97-0.23,21.17-1.59,21.83,2.33C1213.63,390.55,1219.46,408.88,1219.46,408.88z"/>
	<path class="st0" d="M1585.96,326.38h146.5c0,0,113,8,111,114c-2,106-99,107-122.5,107.5s-73.77-19.23-89.5-34.5
		c-3.82-3.71-9.62-5.87-13.5-5c-2.84,0.64-5.32,1.81-5.88,7.37c-1.38,13.88,0.4,29.12,1,36.5c0.85,10.4,9.88,48.62,24.88,62.62
		s22,23,55.5,24.5s73.5-38,75.5-40s35-37,39-44.5s12-2.5,15,0s24.5,22.5,24,40.5s-32.78,47.7-52.5,57.5
		c-39.75,19.75-62,17.5-81.5,17.5s-81-3-122-59.5s-24.5-142.5-21.5-154s24.5-53,28-58.5s6.55-9.11,7-12c0.62-4-4.51-6.25-7.5-6.12
		c-8.75,0.38-25.87,0.61-32.5-0.12c-5.19-0.57-4.26-19.5,3-33.12C1576.59,329.88,1585.96,326.38,1585.96,326.38z M1691.96,507
		c94.64-2.38,94.62-67.5,94.62-67.5c0.02-30.37-18.62-61.24-73.25-60.87c-53.65,0.36-67.97,35.68-75,49.25
		c-7.75,14.96-20.88,51-20.88,51S1639.1,508.33,1691.96,507z"/>
	<path class="st0" d="M2109.46,190.63c8.5-1,23.41,9.3,29.25,13.5c19.5,14,20.36,31.82,20.36,31.82v419.9c0,0-1.21,6.28-7.11,6.28
		c-9.75,0-21.08-10.78-28.75-21c-3.75-5-9.25-14.75-13.25-19.75c-3.4-4.25-5.25-5.5-5.25-5.5l-17.75,13c0,0-38,36.25-101.75,36.25
		c-81,0-113.25-99.5-113.25-152c0-34.75,27.5-160.75,123-160.75c66,0,107.11,64,107.11,64V195.45
		C2102.07,195.45,2100.96,191.63,2109.46,190.63z M2015.09,399.88c-53.62,0-85.88,61.25-85.88,130c0,60,21.73,90.75,79.75,90.75
		c63.75,0,92-37.5,92-37.5v-127C2100.96,456.13,2078.46,399.88,2015.09,399.88z"/>
	<path class="st0" d="M2213.46,327.61c8.5-0.71,24.12,5.5,29.25,9.58c20.36,16.19,20.36,33.57,20.36,33.57v286.91
		c0,0-1.21,4.45-7.11,4.45c-9.75,0-19.65-5.08-29.25-12.16c-17.75-13.09-20.64-30.85-20.64-30.85v-288.1
		C2206.07,331.03,2204.96,328.32,2213.46,327.61z M2236.46,273.38c24,0,39.5-29,39.5-42c0-15.5-10.5-40.82-37.5-40.82
		c-26.19,0-41.5,34.99-41.5,40.82C2196.96,237.21,2212.46,273.38,2236.46,273.38z"/>
	<path class="st0" d="M2482.96,326.38c32.33,0,96.66,37.71,93.4,58.86c-2.23,14.47-24.23,20.3-56.77,14.56
		c-10.22-1.8-24.8-30.26-58.13-28.92c-5.32,0.21-44.43,2.24-74,68.25c-14,31.25-13.65,61.02-13.75,67.75
		c-0.16,10.77,1.87,37.4,2.75,44.75c1.5,12.5,6.75,30.5,19.5,49.25c11.54,16.97,30.56,34.46,64,32c34-2.5,57.05-31.95,66.25-42.75
		c7.37-8.65,26.25-38,32.5-44.75c5.78-6.24,14.25-2.25,17.25,0.25s24.5,22.5,24,40.5s-25.75,45.5-61.5,63.25
		c-30.14,14.97-59.5,15.75-79,15.75s-76.5,0.25-117.5-56.25s-34.67-124-27.5-152c2.95-11.51,16-43,28-58.5c9.87-12.75,26-31,56-52
		C2424.05,328.46,2461.25,326.38,2482.96,326.38z"/>
	<polygon class="st0" points="2543.96,141.54 2659.63,141.54 2659.63,165.21 2613.96,165.21 2613.96,289.54 2587.96,289.54 
		2587.96,165.21 2543.96,165.21 	"/>
	<polygon class="st0" points="2681.96,141.54 2717.63,141.54 2758.63,243.88 2799.29,141.54 2836.29,141.54 2836.29,289.54 
		2809.63,289.54 2809.63,175.92 2764.63,289.54 2753.29,289.54 2707.29,175.88 2707.29,289.54 2681.96,289.54 	"/>
</g>
</svg>
