<svg width="29" height="24" viewBox="0 0 29 24" fill="none" xmlns="http://www.w3.org/2000/svg">
<path d="M9.14355 2.85742H27.4293M9.14355 11.9957H20.5721M9.14355 21.1431H27.4293" stroke="#371106" stroke-width="3" stroke-linecap="round" stroke-linejoin="round"/>
<path fill-rule="evenodd" clip-rule="evenodd" d="M2.28441 5.14369C3.42726 5.14369 4.57012 4.00084 4.57012 2.85798C4.57012 1.71512 3.42726 0.572266 2.28441 0.572266C1.14155 0.572266 0.000976562 1.71512 0.000976562 2.85798C0.000976562 4.00084 1.14155 5.14369 2.28441 5.14369ZM2.28441 14.2866C3.42726 14.2866 4.57012 13.1437 4.57012 12.0008C4.57012 10.858 3.42726 9.71512 2.28441 9.71512C1.14155 9.71512 0.000976562 10.858 0.000976562 12.0008C0.000976562 13.1437 1.14155 14.2866 2.28441 14.2866ZM2.28441 23.4294C3.42726 23.4294 4.57012 22.2866 4.57012 21.1437C4.57012 20.0008 3.42726 18.858 2.28441 18.858C1.14155 18.858 0.000976562 20.0008 0.000976562 21.1437C0.000976562 22.2866 1.14155 23.4294 2.28441 23.4294Z" fill="#371106"/>
</svg>
