<svg width="70" height="70" viewBox="0 0 70 70" fill="none" xmlns="http://www.w3.org/2000/svg">
<path d="M18 35L32.5714 47.1429L52 22.8571M35 69C30.5351 69 26.1138 68.1206 21.9888 66.4119C17.8637 64.7032 14.1156 62.1988 10.9584 59.0416C7.80118 55.8844 5.29676 52.1363 3.5881 48.0112C1.87944 43.8862 1 39.4649 1 35C1 30.5351 1.87944 26.1138 3.5881 21.9888C5.29676 17.8637 7.80118 14.1156 10.9584 10.9584C14.1156 7.80118 17.8637 5.29676 21.9888 3.5881C26.1138 1.87944 30.5351 1 35 1C44.0174 1 52.6654 4.58213 59.0416 10.9584C65.4179 17.3346 69 25.9826 69 35C69 44.0174 65.4179 52.6654 59.0416 59.0416C52.6654 65.4179 44.0174 69 35 69Z" stroke="#01AF6B" stroke-width="2"/>
</svg>
