<svg width="18" height="15" viewBox="0 0 18 15" fill="none" xmlns="http://www.w3.org/2000/svg">
<path d="M18.0003 1.7273C17.3413 2.01471 16.6422 2.20337 15.9264 2.287C16.672 1.84709 17.2445 1.15049 17.5141 0.320496C16.8053 0.734536 16.0298 1.02625 15.2212 1.18304C14.5625 0.492261 13.6241 0.0605469 12.5855 0.0605469C10.5914 0.0605469 8.97459 1.65205 8.97459 3.61496C8.97459 3.89359 9.00656 4.16484 9.06809 4.42506C6.06716 4.27678 3.40654 2.86171 1.62558 0.711197C1.31483 1.23617 1.13677 1.84682 1.13677 2.49815C1.13677 3.73137 1.77429 4.81928 2.74311 5.45673C2.1697 5.43905 1.60891 5.2866 1.10755 5.01209C1.10734 5.02698 1.10734 5.04187 1.10734 5.05683C1.10734 6.77901 2.35199 8.21567 4.00377 8.54221C3.47205 8.68456 2.91432 8.7054 2.37317 8.60312C2.83262 10.0153 4.16616 11.0429 5.74617 11.0717C4.51039 12.025 2.95341 12.5932 1.26176 12.5932C0.970258 12.5932 0.682884 12.5764 0.400391 12.5436C1.99834 13.5521 3.89632 14.1405 5.93544 14.1405C12.5771 14.1405 16.209 8.72426 16.209 4.02718C16.209 3.87301 16.2056 3.71973 16.1985 3.56732C16.9055 3.06426 17.5156 2.44118 18.0003 1.7273" fill="#371106"/>
</svg>
