<?xml version="1.0" encoding="utf-8"?>
<!-- Generator: Adobe Illustrator 26.0.1, SVG Export Plug-In . SVG Version: 6.00 Build 0)  -->
<svg version="1.1" id="Layer_1" xmlns="http://www.w3.org/2000/svg" xmlns:xlink="http://www.w3.org/1999/xlink" x="0px" y="0px"
	 viewBox="0 0 400 400" style="enable-background:new 0 0 400 400;" xml:space="preserve">
<style type="text/css">
	.st0{fill:#F68E4A;}
	.st1{fill:#E56925;}
	.st2{fill:#7DAC4F;}
	.st3{fill:#47331A;}
	.st4{fill:#5C7D38;}
	.st5{fill:#F9F076;}
	.st6{fill:#D5CC27;}
	.st7{fill:#FFFFFF;}
</style>
<g id="Cereal">
	<g>
		<g>
			<polygon class="st0" points="294.72,14.99 256,66.61 344.87,66.61 383.59,14.99 			"/>
		</g>
	</g>
	<g>
		<g>
			<polygon class="st1" points="105.28,14.99 16.41,14.99 55.13,66.61 144,66.61 			"/>
		</g>
	</g>
	<g>
		<g>
			<rect x="55.13" y="66.61" class="st1" width="88.87" height="318.4"/>
		</g>
	</g>
	<g>
		<g>
			<rect x="144" y="66.61" class="st2" width="198.81" height="318.4"/>
		</g>
	</g>
	<g>
		<g>
			<path class="st0" d="M144,66.61v161.21c29.26,45.03,80,74.81,137.7,74.81c21.6,0,42.23-4.18,61.12-11.77V66.61H144z"/>
		</g>
	</g>
	<g>
		<g>
			<g>
				<g>
					<g>
						<path class="st3" d="M144,56.78H55.13c-5.43,0-9.83,4.4-9.83,9.83v318.4c0,5.43,4.4,9.83,9.83,9.83H144
							c5.43,0,9.83-4.4,9.83-9.83V66.61C153.83,61.18,149.43,56.78,144,56.78z M134.17,375.17H64.96V76.44h69.21V375.17z"/>
					</g>
				</g>
			</g>
		</g>
	</g>
	<g>
		<g>
			<rect x="55.13" y="231.78" class="st4" width="88.87" height="153.22"/>
		</g>
	</g>
	<g>
		<g>
			<g>
				<g>
					<g>
						<path class="st3" d="M144,221.95H55.13c-5.43,0-9.83,4.4-9.83,9.83v153.22c0,5.43,4.4,9.83,9.83,9.83H144
							c5.43,0,9.83-4.4,9.83-9.83V231.78C153.83,226.35,149.43,221.95,144,221.95z M134.17,375.17H64.96V241.62h69.21V375.17z"/>
					</g>
				</g>
			</g>
		</g>
	</g>
	<g>
		<g>
			<g>
				<g>
					<g>
						<path class="st3" d="M342.81,56.78H144c-5.43,0-9.83,4.4-9.83,9.83v318.4c0,5.43,4.4,9.83,9.83,9.83h198.81
							c5.43,0,9.83-4.4,9.83-9.83V66.61C352.65,61.18,348.24,56.78,342.81,56.78z M332.98,375.17H153.83V76.44h179.15V375.17z"/>
					</g>
				</g>
			</g>
		</g>
	</g>
	<g>
		<g>
			<g>
				<g>
					<g>
						<path class="st3" d="M151.87,60.71L113.15,9.09c-1.86-2.48-4.77-3.93-7.87-3.93H16.41c-3.72,0-7.13,2.1-8.79,5.44
							c-1.67,3.33-1.31,7.32,0.93,10.3l38.71,51.62c1.86,2.48,4.77,3.93,7.87,3.93H144c3.72,0,7.13-2.1,8.79-5.44
							C154.46,67.68,154.1,63.69,151.87,60.71z M60.04,56.78L36.08,24.83h64.29l23.97,31.95H60.04z"/>
					</g>
				</g>
			</g>
		</g>
	</g>
	<g>
		<g>
			<g>
				<g>
					<g>
						<path class="st3" d="M392.38,10.6c-1.67-3.33-5.07-5.44-8.79-5.44h-88.87c-3.09,0-6.01,1.46-7.87,3.93l-38.71,51.62
							c-2.23,2.98-2.59,6.97-0.93,10.3c1.67,3.33,5.07,5.44,8.79,5.44h88.87c3.09,0,6.01-1.46,7.87-3.93l38.71-51.62
							C393.69,17.91,394.05,13.93,392.38,10.6z M339.96,56.78h-64.29l23.97-31.95h64.29L339.96,56.78z"/>
					</g>
				</g>
			</g>
		</g>
	</g>
	<g>
		<g>
			<g>
				<g>
					<g>
						<path class="st3" d="M342.81,56.78H144c-5.43,0-9.83,4.4-9.83,9.83v161.22c0,1.9,0.55,3.76,1.59,5.36
							c32.26,49.65,86.82,79.29,145.94,79.29c22.37,0,44.17-4.2,64.78-12.48c3.73-1.5,6.17-5.11,6.17-9.13V66.61
							C352.65,61.18,348.24,56.78,342.81,56.78z M332.98,284.07c-16.44,5.8-33.66,8.73-51.28,8.73
							c-51.48,0-99.06-25.34-127.86-67.94V76.44h179.15V284.07z"/>
					</g>
				</g>
			</g>
		</g>
	</g>
	<g>
		<g>
			<path class="st5" d="M314.27,103.69c-59.02,5.92-105.02,29.17-102.73,51.93c2.28,22.76,51.98,36.42,111,30.5
				c6.97-0.7,13.74-1.65,20.28-2.8v-81C333.67,102.28,324.1,102.71,314.27,103.69z"/>
		</g>
	</g>
	<g>
		<g>
			<g>
				<g>
					<g>
						<path class="st3" d="M342.87,92.5c-9.72-0.06-19.67,0.42-29.58,1.41c-29.72,2.98-57.35,10.32-77.81,20.66
							c-23.29,11.77-35.26,26.7-33.73,42.04s16.24,27.59,41.4,34.51c15,4.12,32.95,6.23,52.24,6.23c9.14,0,18.57-0.47,28.13-1.43
							c7.01-0.7,14.07-1.68,21.01-2.9c4.7-0.83,8.13-4.91,8.13-9.68v-81C352.65,96.92,348.28,92.53,342.87,92.5z M332.98,174.94
							c-3.81,0.55-7.63,1.02-11.43,1.4c-59.27,5.94-98.95-8.88-100.23-21.7c-1.28-12.82,34.67-35.22,93.93-41.16
							c5.92-0.59,11.86-0.99,17.73-1.18V174.94z"/>
					</g>
				</g>
			</g>
		</g>
	</g>
	<g>
		<g>
			<path class="st6" d="M322.53,186.12c-59.02,5.92-108.72-7.74-111-30.5c0,0,0.2,108.38,117.62,96.61
				c4.79-0.48,9.32-1.13,13.66-1.91v-66.99C336.27,184.48,329.49,185.42,322.53,186.12z"/>
		</g>
	</g>
	<g>
		<g>
			<g>
				<g>
					<g>
						<path class="st3" d="M349.14,175.79c-2.23-1.87-5.16-2.66-8.03-2.15c-6.46,1.14-13.04,2.04-19.56,2.7
							c-59.27,5.94-98.95-8.88-100.23-21.7c-0.52-5.22-4.99-9.12-10.28-8.84c-5.24,0.27-9.34,4.59-9.33,9.84
							c0,2.03,0.49,50.16,35.26,81.55c18.97,17.13,44.11,25.76,74.92,25.76c5.88,0,11.97-0.31,18.26-0.95
							c4.8-0.48,9.65-1.16,14.42-2.02c4.68-0.84,8.09-4.92,8.09-9.68v-66.99C352.65,180.42,351.36,177.66,349.14,175.79z
							 M332.98,241.89c-1.59,0.21-3.19,0.39-4.81,0.55c-33.41,3.35-59.62-3.29-77.91-19.73c-12.3-11.06-19.37-25.11-23.43-37.49
							c4.81,2.25,10.26,4.23,16.31,5.89c22.1,6.07,50.64,7.78,80.36,4.8c3.15-0.32,6.31-0.69,9.47-1.11V241.89z"/>
					</g>
				</g>
			</g>
		</g>
	</g>
	<g>
		<g>
			<rect x="89.73" y="263.62" class="st7" width="19.67" height="55.75"/>
		</g>
	</g>
	<g>
		<g>
			<rect x="89.73" y="336.53" class="st7" width="19.67" height="18.41"/>
		</g>
	</g>
</g>
</svg>
