<?xml version="1.0" encoding="utf-8"?>
<!-- Generator: Adobe Illustrator 26.0.1, SVG Export Plug-In . SVG Version: 6.00 Build 0)  -->
<svg version="1.1" id="Layer_1" xmlns="http://www.w3.org/2000/svg" xmlns:xlink="http://www.w3.org/1999/xlink" x="0px" y="0px"
	 viewBox="0 0 400 400" style="enable-background:new 0 0 400 400;" xml:space="preserve">
<style type="text/css">
	.st0{fill:#7DAC4F;}
	.st1{fill:#47331A;}
	.st2{fill:#F68E4A;}
	.st3{fill:#E56925;}
	.st4{fill:#F9F076;}
	.st5{fill:#FFFFFF;}
</style>
<g id="Lemon_Tea">
	<g>
		<g>
			<polygon class="st0" points="224.05,13.29 160.71,225.16 193.17,225.16 256.51,13.29 			"/>
		</g>
	</g>
	<g>
		<g>
			<g>
				<g>
					<g>
						<path class="st1" d="M263.11,8.38c-1.55-2.08-4-3.31-6.59-3.31h-32.46c-3.63,0-6.84,2.39-7.88,5.87l-63.34,211.87
							c-0.74,2.49-0.27,5.18,1.28,7.27c1.55,2.08,4,3.31,6.59,3.31h32.46c3.63,0,6.84-2.39,7.88-5.87l63.34-211.87
							C265.13,13.15,264.66,10.46,263.11,8.38z M187.05,216.94h-15.3l58.42-195.43h15.3L187.05,216.94z"/>
					</g>
				</g>
			</g>
		</g>
	</g>
	<g>
		<g>
			<rect x="130.58" y="86.01" class="st2" width="138.84" height="300.71"/>
		</g>
	</g>
	<g>
		<g>
			<rect x="130.58" y="86.01" class="st3" width="51.98" height="300.71"/>
		</g>
	</g>
	<g>
		<g>
			<g>
				<g>
					<g>
						<path class="st1" d="M269.42,77.78H130.58c-4.54,0-8.22,3.68-8.22,8.22v300.71c0,4.54,3.68,8.22,8.22,8.22h138.84
							c4.54,0,8.22-3.68,8.22-8.22V86.01C277.64,81.47,273.96,77.78,269.42,77.78z M261.2,378.49H138.8V94.23H261.2V378.49z"/>
					</g>
				</g>
			</g>
		</g>
	</g>
	<g>
		<g>
			<rect x="130.58" y="343.64" class="st2" width="138.84" height="43.07"/>
		</g>
	</g>
	<g>
		<g>
			<rect x="130.58" y="343.64" class="st3" width="51.98" height="43.07"/>
		</g>
	</g>
	<g>
		<g>
			<g>
				<g>
					<g>
						<path class="st1" d="M269.42,335.42H130.58c-4.54,0-8.22,3.68-8.22,8.22v43.07c0,4.54,3.68,8.22,8.22,8.22h138.84
							c4.54,0,8.22-3.68,8.22-8.22v-43.07C277.64,339.1,273.96,335.42,269.42,335.42z M261.2,378.49H138.8v-26.62H261.2V378.49z"/>
					</g>
				</g>
			</g>
		</g>
	</g>
	<g>
		<g>
			<path class="st4" d="M130.58,229.03V339.9c28.32,7.84,59.91,1.39,83.19-19.9L130.58,229.03z"/>
		</g>
	</g>
	<g>
		<g>
			<path class="st0" d="M195.51,259.86c20.77,18.99,48.15,26.16,73.91,21.93V179.03L195.51,259.86z"/>
		</g>
	</g>
	<g>
		<g>
			<g>
				<g>
					<g>
						<path class="st1" d="M219.84,314.45l-83.19-90.97c-2.29-2.5-5.88-3.35-9.04-2.12c-3.16,1.23-5.25,4.27-5.25,7.66V339.9
							c0,3.7,2.47,6.94,6.03,7.92c8.63,2.39,17.38,3.56,26.04,3.56c23.74,0,46.82-8.78,64.9-25.31
							C222.67,323,222.9,317.8,219.84,314.45z M138.8,333.4v-83.2l63.07,68.97C183.78,332.63,161.04,337.78,138.8,333.4z"/>
					</g>
				</g>
			</g>
		</g>
	</g>
	<g>
		<g>
			<g>
				<g>
					<g>
						<path class="st1" d="M272.4,171.37c-3.16-1.23-6.75-0.39-9.04,2.12l-73.91,80.83c-1.47,1.61-2.24,3.74-2.15,5.92
							c0.1,2.18,1.06,4.23,2.67,5.7c17.98,16.44,41,25.28,64.9,25.28c5.27,0,10.58-0.43,15.89-1.3c3.97-0.65,6.89-4.09,6.89-8.11
							V179.03C277.64,175.64,275.56,172.6,272.4,171.37z M261.2,274.51c-19.32,1.52-38.3-3.96-53.79-15.48l53.79-58.83V274.51z"/>
					</g>
				</g>
			</g>
		</g>
	</g>
	<g>
		<g>
			<rect x="227.35" y="109.56" class="st5" width="16.44" height="38.76"/>
		</g>
	</g>
	<g>
		<g>
			<rect x="227.35" y="162.54" class="st5" width="16.44" height="20.19"/>
		</g>
	</g>
	<g>
		<g>
			<path class="st1" d="M277.26,233.87c-1.38-4.33-6-6.72-10.33-5.34l-73.91,23.5c-4.33,1.38-6.72,6-5.34,10.33
				c1.11,3.5,4.35,5.73,7.83,5.73c0.83,0,1.66-0.13,2.49-0.39l73.91-23.5C276.24,242.82,278.63,238.2,277.26,233.87z"/>
		</g>
	</g>
	<g>
		<g>
			<path class="st1" d="M215.99,312.08l-83.19-23.32c-4.37-1.22-8.91,1.32-10.14,5.7c-1.23,4.37,1.32,8.91,5.7,10.14l83.19,23.32
				c0.74,0.21,1.49,0.31,2.22,0.31c3.59,0,6.89-2.37,7.91-6.01C222.92,317.85,220.36,313.31,215.99,312.08z"/>
		</g>
	</g>
</g>
</svg>
