<?xml version="1.0" encoding="utf-8"?>
<!-- Generator: Adobe Illustrator 26.0.1, SVG Export Plug-In . SVG Version: 6.00 Build 0)  -->
<svg version="1.1" id="Layer_1" xmlns="http://www.w3.org/2000/svg" xmlns:xlink="http://www.w3.org/1999/xlink" x="0px" y="0px"
	 viewBox="0 0 400 400" style="enable-background:new 0 0 400 400;" xml:space="preserve">
<style type="text/css">
	.st0{fill:#F68E4A;}
	.st1{fill:#E56925;}
	.st2{fill:#FFFFFF;}
	.st3{fill:#F9F076;}
	.st4{fill:#47331A;}
	.st5{display:none;}
	.st6{display:inline;}
	.st7{fill:#D5CC27;}
	.st8{fill:#D5CC27;stroke:#BE1E2D;stroke-width:10;stroke-miterlimit:10;}
	.st9{fill:#F4F8E6;stroke:#BE1E2D;stroke-width:10;stroke-miterlimit:10;}
</style>
<g>
	<g id="Waffles">
		<g>
			<g>
				<circle class="st0" cx="227.98" cy="164.83" r="148.32"/>
			</g>
		</g>
		<g>
			<g>
				<path class="st1" d="M79.66,164.83c0,81.04,64.99,146.88,145.69,148.29V164.83H79.66z"/>
			</g>
		</g>
		<g>
			<g>
				<path class="st2" d="M293.14,47.14l-7.26,13.37c15.19,8.25,28.73,19.92,39.16,33.76l12.15-9.16
					C325.46,69.55,310.23,56.42,293.14,47.14z"/>
			</g>
		</g>
		<g>
			<g>
				<circle class="st3" cx="228.36" cy="165.21" r="118.07"/>
			</g>
		</g>
		<g>
			<g>
				<g>
					<g>
						<g>
							<path class="st4" d="M383.77,158.29c-3.6-85.9-76.43-152.86-162.32-149.26c-85.9,3.6-152.86,76.42-149.26,162.32
								c3.51,83.69,72.71,149.4,155.71,149.4c2.19,0,4.4-0.05,6.61-0.14C320.41,317.01,387.37,244.2,383.77,158.29z M233.87,305.41
								c-2,0.08-3.98,0.13-5.97,0.13c-74.89-0.01-137.35-59.3-140.52-134.82C84.14,93.2,144.56,27.49,222.08,24.24
								c2-0.08,3.98-0.13,5.97-0.13c74.89,0,137.35,59.3,140.52,134.82C371.82,236.45,311.39,302.16,233.87,305.41z"/>
						</g>
					</g>
				</g>
			</g>
		</g>
		<g class="st5">
			<g class="st6">
				<path class="st7" d="M227.98,57.98c-59.01,0-106.85,47.84-106.85,106.85h111.94V58.1C231.38,58.02,229.68,57.98,227.98,57.98z"
					/>
			</g>
		</g>
		<g class="st5">
			<g class="st6">
				<path class="st7" d="M227.98,164.83v106.85c59.01,0,106.85-47.84,106.85-106.85H227.98z"/>
			</g>
		</g>
		<g class="st5">
			<g class="st6">
				<g>
					<g>
						<g>
							<path class="st4" d="M227.98,50.37c-63.11,0-114.46,51.34-114.46,114.45s51.34,114.46,114.46,114.46
								s114.46-51.34,114.46-114.46S291.09,50.37,227.98,50.37z M227.98,264.07c-54.72,0-99.24-44.52-99.24-99.24
								c0-54.72,44.52-99.24,99.24-99.24c54.72,0,99.24,44.52,99.24,99.24C327.22,219.55,282.7,264.07,227.98,264.07z"/>
						</g>
					</g>
				</g>
			</g>
		</g>
		<g class="st5">
			<g class="st6">
				<path class="st4" d="M225.35,50.37c-4.2,0-7.61,3.41-7.61,7.61v213.7c0,4.2,3.41,7.61,7.61,7.61c4.2,0,7.61-3.41,7.61-7.61
					V57.98C232.96,53.78,229.55,50.37,225.35,50.37z"/>
			</g>
		</g>
		<g class="st5">
			<g class="st6">
				<path class="st4" d="M332.2,157.22H121.13c-4.2,0-7.61,3.41-7.61,7.61c0,4.2,3.41,7.61,7.61,7.61H332.2
					c4.2,0,7.61-3.41,7.61-7.61C339.81,160.62,336.4,157.22,332.2,157.22z"/>
			</g>
		</g>
		<g class="st5">
			<g class="st6">
				<path class="st4" d="M188.06,90.56c-4.2,0-7.61,3.41-7.61,7.61v133.31c0,4.2,3.41,7.61,7.61,7.61c4.2,0,7.61-3.41,7.61-7.61
					V98.17C195.67,93.97,192.26,90.56,188.06,90.56z"/>
			</g>
		</g>
		<g class="st5">
			<g class="st6">
				<path class="st4" d="M261.83,90.56c-4.2,0-7.61,3.41-7.61,7.61v133.31c0,4.2,3.41,7.61,7.61,7.61s7.61-3.41,7.61-7.61V98.17
					C269.44,93.97,266.04,90.56,261.83,90.56z"/>
			</g>
		</g>
		<g class="st5">
			<g class="st6">
				<path class="st4" d="M292,120.93H158.7c-4.2,0-7.61,3.41-7.61,7.61c0,4.2,3.41,7.61,7.61,7.61H292c4.2,0,7.61-3.41,7.61-7.61
					C299.61,124.34,296.21,120.93,292,120.93z"/>
			</g>
		</g>
		<g class="st5">
			<g class="st6">
				<path class="st4" d="M292,193.51H158.7c-4.2,0-7.61,3.41-7.61,7.61c0,4.2,3.41,7.61,7.61,7.61H292c4.2,0,7.61-3.41,7.61-7.61
					C299.61,196.91,296.21,193.51,292,193.51z"/>
			</g>
		</g>
	</g>
	<g>
		<path class="st8" d="M17.15,56.55c8.69-20.43,45.12-39.99,45.12-39.99S98.66,53.5,103,66.54c4.35,13.04-17.35,45.32-28.78,40.59
			C62.79,102.4,17.15,56.55,17.15,56.55z"/>
		<path class="st8" d="M291.7,391.1c20.43-8.69,65-55.99,65-55.99s-39.12-34.21-52.16-38.56c-13.04-4.35-45.32,17.35-40.59,28.78
			C268.68,336.76,291.7,391.1,291.7,391.1z"/>
		<path class="st8" d="M59.01,84.31c0,0-7.61-41.3,7.61-67.8c30.95,7.61,289.03,315.58,289.03,315.58s-29.86,18.47-72.36,10.58
			C255.04,311.15,59.01,84.31,59.01,84.31z"/>
		<path class="st8" d="M84.29,61.44c0,0-39.83-13.29-68.2-1.91C19.32,91.23,288.33,389.7,288.33,389.7s22.45-27,20.56-70.18
			C281.62,287.15,84.29,61.44,84.29,61.44z"/>
	</g>
	<circle class="st8" cx="225.35" cy="90.92" r="36"/>
	<circle class="st9" cx="285.88" cy="162.55" r="36"/>
</g>
</svg>
