<?xml version="1.0" encoding="utf-8"?>
<!-- Generator: Adobe Illustrator 26.0.1, SVG Export Plug-In . SVG Version: 6.00 Build 0)  -->
<svg version="1.1" id="Layer_1" xmlns="http://www.w3.org/2000/svg" xmlns:xlink="http://www.w3.org/1999/xlink" x="0px" y="0px"
	 viewBox="0 0 400 400" style="enable-background:new 0 0 400 400;" xml:space="preserve">
<style type="text/css">
	.st0{fill:#F9F076;}
	.st1{fill:#D5CC27;}
	.st2{fill:#F68E4A;}
	.st3{fill:#47331A;}
	.st4{fill:#FFFFFF;}
</style>
<g id="Vegetarian">
	<g>
		<g>
			<g>
				<rect x="244.57" y="147.56" class="st0" width="105.6" height="236.45"/>
			</g>
		</g>
		<g>
			<g>
				<rect x="49.84" y="147.56" class="st1" width="194.73" height="236.45"/>
			</g>
		</g>
		<g>
			<g>
				<polygon class="st1" points="147.2,69.97 49.84,147.56 244.57,147.56 				"/>
			</g>
		</g>
		<g>
			<g>
				<rect x="147.2" y="15.99" class="st2" width="101.48" height="53.98"/>
			</g>
		</g>
		<g>
			<g>
				<polygon class="st0" points="252.8,69.97 147.2,69.97 244.57,147.56 350.16,147.56 				"/>
			</g>
		</g>
		<g>
			<g>
				<g>
					<g>
						<g>
							<path class="st3" d="M244.57,136.01H49.84c-6.38,0-11.55,5.17-11.55,11.55v236.45c0,6.38,5.17,11.55,11.55,11.55h194.73
								c6.38,0,11.55-5.17,11.55-11.55V147.56C256.12,141.18,250.95,136.01,244.57,136.01z M233.01,372.46H61.39V159.12h171.62
								V372.46z"/>
						</g>
					</g>
				</g>
			</g>
		</g>
		<g>
			<g>
				<g>
					<g>
						<g>
							<path class="st3" d="M350.16,136.01h-105.6c-6.38,0-11.55,5.17-11.55,11.55v236.45c0,6.38,5.17,11.55,11.55,11.55h105.6
								c6.38,0,11.55-5.17,11.55-11.55V147.56C361.72,141.18,356.54,136.01,350.16,136.01z M338.61,372.46h-82.49V159.12h82.49
								V372.46z"/>
						</g>
					</g>
				</g>
			</g>
		</g>
		<g>
			<g>
				<g>
					<g>
						<g>
							<path class="st3" d="M251.77,138.53L154.4,60.94c-4.21-3.36-10.19-3.36-14.4,0l-97.36,77.59c-3.84,3.06-5.33,8.21-3.71,12.85
								c1.62,4.64,6,7.74,10.91,7.74h194.73c4.91,0,9.28-3.1,10.91-7.74C257.09,146.74,255.61,141.59,251.77,138.53z M82.87,136.01
								l64.33-51.26l64.33,51.26H82.87z"/>
						</g>
					</g>
				</g>
			</g>
		</g>
		<g>
			<g>
				<g>
					<g>
						<g>
							<path class="st3" d="M357.36,138.53L260,60.94c-2.05-1.63-4.58-2.52-7.2-2.52H147.2c-4.91,0-9.28,3.1-10.91,7.74
								c-1.62,4.64-0.14,9.79,3.71,12.85l97.36,77.59c2.05,1.63,4.58,2.52,7.2,2.52h105.6c4.91,0,9.28-3.1,10.91-7.74
								C362.69,146.74,361.2,141.59,357.36,138.53z M248.61,136.01l-68.37-54.48h68.52l68.37,54.48H248.61z"/>
						</g>
					</g>
				</g>
			</g>
		</g>
		<g>
			<g>
				<g>
					<g>
						<g>
							<path class="st3" d="M248.68,4.44H147.2c-6.38,0-11.55,5.17-11.55,11.55v53.98c0,6.38,5.17,11.55,11.55,11.55h101.48
								c6.38,0,11.55-5.17,11.55-11.55V15.99C260.24,9.61,255.06,4.44,248.68,4.44z M237.13,58.42h-78.37V27.54h78.37V58.42z"/>
						</g>
					</g>
				</g>
			</g>
		</g>
		<g>
			<g>
				<rect x="81.53" y="181.71" class="st4" width="23.11" height="95.18"/>
			</g>
		</g>
	</g>
</g>
</svg>
