<?xml version="1.0" encoding="utf-8"?>
<!-- Generator: Adobe Illustrator 26.0.1, SVG Export Plug-In . SVG Version: 6.00 Build 0)  -->
<svg version="1.1" id="Layer_1" xmlns="http://www.w3.org/2000/svg" xmlns:xlink="http://www.w3.org/1999/xlink" x="0px" y="0px"
	 viewBox="0 0 400 400" style="enable-background:new 0 0 400 400;" xml:space="preserve">
<style type="text/css">
	.st0{fill:#F68E4A;}
	.st1{fill:#E56925;}
	.st2{fill:#47331A;}
	.st3{fill:#F9F076;}
	.st4{fill:#D5CC27;}
	.st5{fill:#FFFFFF;}
</style>
<g id="Energy_Drink">
	<g>
		<g>
			<path class="st0" d="M258.07,135.42L258.07,135.42c-18.36-18.36-28.67-43.26-28.67-69.23V47.95h-58.79v18.24
				c0,25.97-10.32,50.87-28.68,69.23v0c-19.28,19.28-30.12,45.44-30.12,72.71v143.8c0,19.61,15.9,35.51,35.51,35.51h105.37
				c19.61,0,35.5-15.9,35.5-35.5V224.33v-16.2C288.19,180.86,277.36,154.7,258.07,135.42z"/>
		</g>
	</g>
	<g>
		<g>
			<path class="st1" d="M170.6,351.93V208.13c0-27.27,10.83-53.43,30.12-72.71c18.35-18.35,28.66-43.24,28.67-69.19
				c0-0.01,0-0.02,0-0.03V47.95h-58.79v18.24c0,25.97-10.32,50.87-28.68,69.23c-19.28,19.28-30.12,45.44-30.12,72.71v143.81
				c0,19.61,15.9,35.51,35.51,35.51h58.79C186.5,387.44,170.6,371.54,170.6,351.93z"/>
		</g>
	</g>
	<g>
		<g>
			<g>
				<g>
					<g>
						<path class="st2" d="M263.76,129.73c-16.97-16.97-26.32-39.54-26.32-63.54V47.95c0-4.44-3.6-8.04-8.04-8.04h-58.79
							c-4.44,0-8.04,3.6-8.04,8.04v18.24c0,24-9.35,46.57-26.32,63.54c-20.94,20.94-32.47,48.78-32.47,78.4v143.81
							c0,24.01,19.53,43.54,43.54,43.54h105.37c24.01,0,43.54-19.53,43.54-43.54V208.13C296.23,178.51,284.69,150.67,263.76,129.73z
							 M280.15,351.93c0,15.15-12.32,27.47-27.47,27.47H147.32c-15.15,0-27.47-12.32-27.47-27.47V208.13
							c0-25.32,9.86-49.12,27.76-67.03c20.01-20.01,31.03-46.61,31.03-74.91v-10.2h42.71v10.2c0,28.3,11.02,54.9,31.03,74.91v0
							c17.9,17.9,27.76,41.71,27.76,67.03V351.93z"/>
					</g>
				</g>
			</g>
		</g>
	</g>
	<g>
		<g>
			<rect x="153.98" y="12.56" class="st3" width="92.04" height="68.76"/>
		</g>
	</g>
	<g>
		<g>
			<rect x="153.98" y="12.56" class="st4" width="34.57" height="68.76"/>
		</g>
	</g>
	<g>
		<g>
			<g>
				<g>
					<g>
						<path class="st2" d="M246.02,4.52h-92.04c-4.44,0-8.04,3.6-8.04,8.04v68.76c0,4.44,3.6,8.04,8.04,8.04h92.04
							c4.44,0,8.04-3.6,8.04-8.04V12.56C254.06,8.12,250.46,4.52,246.02,4.52z M237.98,73.28h-75.97V20.6h75.97V73.28z"/>
					</g>
				</g>
			</g>
		</g>
	</g>
	<g>
		<g>
			<path class="st3" d="M257.54,224.33l28.04-39.1c-1.55-6.78-3.78-13.38-6.65-19.7h-27.76l-85.67,98.88h84.66l-56.64,89.01
				l94.68-83.76v-45.34H257.54z"/>
		</g>
	</g>
	<g>
		<g>
			<g>
				<g>
					<g>
						<path class="st2" d="M288.19,216.29h-15l18.92-26.37c1.34-1.87,1.82-4.23,1.3-6.48c-1.67-7.3-4.08-14.45-7.17-21.24
							c-1.31-2.87-4.16-4.71-7.32-4.71h-27.76c-2.33,0-4.55,1.01-6.07,2.77l-85.67,98.88c-2.06,2.38-2.54,5.74-1.24,8.6
							c1.31,2.86,4.16,4.7,7.31,4.7h70.02l-48.78,76.65c-2.15,3.38-1.48,7.83,1.56,10.43c1.5,1.28,3.36,1.92,5.22,1.92
							c1.9,0,3.81-0.67,5.33-2.02l94.68-83.75c1.72-1.53,2.71-3.72,2.71-6.02v-45.34C296.23,219.89,292.63,216.29,288.19,216.29z
							 M280.15,266.04l-49.21,43.53l26-40.85c1.58-2.47,1.68-5.61,0.27-8.18c-1.41-2.57-4.11-4.17-7.05-4.17h-67.06l71.74-82.8
							h18.76c1.28,3.26,2.37,6.6,3.28,9.99L251,219.64c-1.76,2.45-1.99,5.68-0.62,8.36c1.38,2.68,4.14,4.37,7.15,4.37h22.61V266.04z
							"/>
					</g>
				</g>
			</g>
		</g>
	</g>
	<g>
		<g>
			<g>
				<g>
					<g>
						<path class="st5" d="M177.32,142.13l-5.69-6c-1.24,1.18-30.45,29.16-30.45,56.57h16.08c0-16.99,18.35-38.17,25.43-44.9
							c0,0,0,0,0.01-0.01L177.32,142.13z"/>
					</g>
				</g>
			</g>
		</g>
	</g>
</g>
</svg>
