<?xml version="1.0" encoding="utf-8"?>
<!-- Generator: Adobe Illustrator 26.0.1, SVG Export Plug-In . SVG Version: 6.00 Build 0)  -->
<svg version="1.1" id="Layer_1" xmlns="http://www.w3.org/2000/svg" xmlns:xlink="http://www.w3.org/1999/xlink" x="0px" y="0px"
	 viewBox="0 0 400 400" style="enable-background:new 0 0 400 400;" xml:space="preserve">
<style type="text/css">
	.st0{fill:#E56925;}
	.st1{fill:#F9F076;}
	.st2{fill:#47331A;}
	.st3{fill:#D5CC27;}
	.st4{fill:#F68E4A;}
	.st5{fill:#7DAC4F;}
	.st6{fill:#FFFFFF;}
</style>
<g id="Noodle">
	<g>
		<g>
			<polygon class="st0" points="309.83,13.56 222.4,212.09 250.5,212.09 351.37,13.56 			"/>
		</g>
	</g>
	<g>
		<g>
			
				<ellipse transform="matrix(0.7071 -0.7071 0.7071 0.7071 -99.4155 159.4669)" class="st1" cx="142.79" cy="199.74" rx="80.56" ry="80.56"/>
		</g>
	</g>
	<g>
		<g>
			<g>
				<g>
					<g>
						<path class="st2" d="M142.79,110.38c-49.27,0-89.35,40.08-89.35,89.35s40.08,89.35,89.35,89.35
							c49.27,0,89.35-40.08,89.35-89.35S192.06,110.38,142.79,110.38z M142.79,271.5c-39.57,0-71.76-32.19-71.76-71.76
							s32.19-71.76,71.76-71.76s71.76,32.19,71.76,71.76S182.35,271.5,142.79,271.5z"/>
					</g>
				</g>
			</g>
		</g>
	</g>
	<g>
		<g>
			
				<ellipse transform="matrix(0.9732 -0.2298 0.2298 0.9732 -42.0708 38.1486)" class="st3" cx="142.79" cy="199.74" rx="52.61" ry="52.61"/>
		</g>
	</g>
	<g>
		<g>
			<g>
				<g>
					<g>
						<path class="st2" d="M142.79,138.33c-33.86,0-61.41,27.55-61.41,61.41s27.55,61.41,61.41,61.41
							c33.86,0,61.41-27.55,61.41-61.41S176.65,138.33,142.79,138.33z M142.79,243.55c-24.16,0-43.82-19.66-43.82-43.82
							s19.66-43.82,43.82-43.82c24.16,0,43.82,19.66,43.82,43.82S166.95,243.55,142.79,243.55z"/>
					</g>
				</g>
			</g>
		</g>
	</g>
	<g>
		<g>
			<circle class="st1" cx="142.79" cy="199.74" r="22.31"/>
		</g>
	</g>
	<g>
		<g>
			<g>
				<g>
					<g>
						<path class="st2" d="M142.79,168.63c-17.15,0-31.11,13.95-31.11,31.11s13.95,31.11,31.11,31.11
							c17.15,0,31.11-13.95,31.11-31.11S159.94,168.63,142.79,168.63z M142.79,213.25c-7.45,0-13.51-6.06-13.51-13.51
							s6.06-13.51,13.51-13.51s13.51,6.06,13.51,13.51S150.23,213.25,142.79,213.25z"/>
					</g>
				</g>
			</g>
		</g>
	</g>
	<g>
		<g>
			<path class="st4" d="M26.85,212.09v1.81c0,83.88,68,151.88,151.88,151.88h0c83.88,0,151.88-68,151.88-151.88v-1.81H26.85z"/>
		</g>
	</g>
	<g>
		<g>
			<path class="st0" d="M120.48,213.9v-1.81H26.85v1.81c0,83.88,68,151.88,151.88,151.88c16.34,0,32.07-2.59,46.81-7.36
				C164.57,338.67,120.48,281.44,120.48,213.9z"/>
		</g>
	</g>
	<g>
		<g>
			<g>
				<g>
					<g>
						<path class="st2" d="M330.6,203.29H26.85c-4.86,0-8.8,3.94-8.8,8.8v1.81c0,88.6,72.08,160.68,160.68,160.68
							S339.4,302.49,339.4,213.9v-1.81C339.4,207.23,335.46,203.29,330.6,203.29z M178.72,356.98
							c-76.55,0-139.25-60.43-142.91-136.09h285.82C317.97,296.55,255.27,356.98,178.72,356.98z"/>
					</g>
				</g>
			</g>
		</g>
	</g>
	<g>
		<g>
			<rect x="115.7" y="352.12" class="st5" width="121.27" height="34.33"/>
		</g>
	</g>
	<g>
		<g>
			<g>
				<g>
					<g>
						<path class="st2" d="M236.97,343.32H115.7c-4.86,0-8.8,3.94-8.8,8.8v34.33c0,4.86,3.94,8.8,8.8,8.8h121.27
							c4.86,0,8.8-3.94,8.8-8.8v-34.33C245.77,347.26,241.83,343.32,236.97,343.32z M228.17,377.64H124.5v-16.73h103.67V377.64z"/>
					</g>
				</g>
			</g>
		</g>
	</g>
	<g>
		<g>
			<path class="st1" d="M29.81,243.88c2.15,10.71,5.42,21.02,9.69,30.79h278.44c4.27-9.77,7.55-20.08,9.69-30.79H29.81z"/>
		</g>
	</g>
	<g>
		<g>
			<path class="st3" d="M123.44,243.88H29.81c1.88,9.37,4.62,18.43,8.14,27.1c0,0,0,0,0,0.01c0.5,1.23,1.02,2.46,1.55,3.67
				c0,0,0,0.01,0.01,0.01h93.63C128.86,264.9,125.59,254.59,123.44,243.88z"/>
		</g>
	</g>
	<g>
		<g>
			<g>
				<g>
					<g>
						<path class="st2" d="M334.44,238.3c-1.67-2.04-4.17-3.22-6.81-3.22H29.81c-2.64,0-5.13,1.18-6.81,3.22
							c-1.67,2.04-2.34,4.72-1.82,7.3c2.24,11.17,5.69,22.13,10.26,32.59c1.4,3.2,4.57,5.27,8.06,5.27h278.44
							c3.5,0,6.66-2.07,8.06-5.27c4.57-10.46,8.02-21.42,10.26-32.59C336.78,243.02,336.11,240.34,334.44,238.3z M312.06,265.87
							H45.39c-1.69-4.32-3.16-8.73-4.42-13.19h275.51C315.22,257.14,313.75,261.55,312.06,265.87z"/>
					</g>
				</g>
			</g>
		</g>
	</g>
	<g>
		<g>
			<path class="st2" d="M363.29,178.42l-34.5-9.82c-11.28-3.21-23.6-0.91-32.96,6.16c-5.11,3.86-11.56,5.04-17.71,3.23
				c-6.14-1.81-10.93-6.29-13.14-12.3L257,143.91c-3.82-10.43-12-18.58-22.44-22.38c-10.44-3.8-21.95-2.81-31.58,2.72l-11.95,6.86
				c-4.21,2.42-5.67,7.8-3.25,12.01c2.42,4.21,7.79,5.67,12.01,3.25l11.95-6.86c5.13-2.94,11.25-3.47,16.8-1.45
				c5.55,2.02,9.9,6.36,11.94,11.91l7.99,21.77c4.15,11.3,13.14,19.73,24.69,23.12c3.55,1.05,7.16,1.56,10.73,1.56
				c8.04,0,15.9-2.61,22.55-7.63c4.98-3.76,11.53-4.99,17.54-3.28l34.5,9.82c4.67,1.33,9.54-1.38,10.87-6.05
				C370.67,184.62,367.96,179.75,363.29,178.42z"/>
		</g>
	</g>
	<g>
		<g>
			<g>
				<g>
					<g>
						<path class="st2" d="M358.87,8.96c-1.6-2.61-4.44-4.2-7.5-4.2h-41.54c-3.49,0-6.65,2.06-8.05,5.25l-87.43,198.53
							c-1.2,2.72-0.94,5.86,0.68,8.35c1.63,2.49,4.4,3.99,7.37,3.99l28.1,0c3.31,0,6.34-1.86,7.84-4.81L359.22,17.54
							C360.6,14.82,360.47,11.56,358.87,8.96z M245.1,203.29h-9.21l79.68-180.94h21.46L245.1,203.29z"/>
					</g>
				</g>
			</g>
		</g>
	</g>
	<g>
		<g>
			<path class="st2" d="M377.05,48.75c-4.36-2.15-9.63-0.37-11.79,3.99l-2.63,5.32c-9.02,18.26-27.28,29.6-47.65,29.6h-32.55
				c-26.9,0-52.06,13.24-67.29,35.42c-2.75,4.01-1.73,9.48,2.27,12.23c1.52,1.05,3.26,1.55,4.97,1.55c2.8,0,5.55-1.34,7.26-3.82
				c11.95-17.4,31.68-27.78,52.78-27.78h32.55c27.11,0,51.41-15.1,63.43-39.4l2.63-5.32C383.19,56.18,381.41,50.9,377.05,48.75z"/>
		</g>
	</g>
	<g>
		<g>
			<rect x="192.12" y="289.21" class="st6" width="40.02" height="17.6"/>
		</g>
	</g>
	<g>
		<g>
			<rect x="252.5" y="289.21" class="st6" width="15.96" height="17.6"/>
		</g>
	</g>
</g>
</svg>
