<?xml version="1.0" encoding="utf-8"?>
<!-- Generator: Adobe Illustrator 26.0.1, SVG Export Plug-In . SVG Version: 6.00 Build 0)  -->
<svg version="1.1" id="Layer_1" xmlns="http://www.w3.org/2000/svg" xmlns:xlink="http://www.w3.org/1999/xlink" x="0px" y="0px"
	 viewBox="0 0 400 400" style="enable-background:new 0 0 400 400;" xml:space="preserve">
<style type="text/css">
	.st0{fill:#F68E4A;}
	.st1{fill:#47331A;}
	.st2{fill:#E56925;}
	.st3{fill:#D5CC27;}
	.st4{fill:#F9F076;}
	.st5{fill:#7DAC4F;}
	.st6{fill:#FFFFFF;}
</style>
<g id="Soup">
	<g>
		<g>
			<g>
				<path class="st0" d="M232.29,72.06c4.81,13.09-21.41,34.77-58.56,48.43c-37.15,13.66-71.17,14.12-75.98,1.04
					c0,0,20.06,54.56,87.33,29.83C252.35,126.62,232.29,72.06,232.29,72.06z"/>
			</g>
		</g>
		<g>
			<g>
				<g>
					<g>
						<g>
							<path class="st1" d="M240.94,69.86c-0.09-0.29-0.19-0.57-0.29-0.85c0-0.01-0.01-0.02-0.01-0.03
								c-1.7-4.61-6.81-6.97-11.42-5.28c-4.61,1.7-6.98,6.81-5.28,11.42c0,0,0,0,0,0.01c0.23,0.67-0.74,5.69-10.86,14.06
								c-10.3,8.52-25.37,16.67-42.41,22.93c-17.05,6.27-33.8,9.82-47.17,10c-13.13,0.15-17.11-3.01-17.39-3.67
								c0-0.01,0-0.01,0-0.01c0,0,0,0,0,0c-1.7-4.61-6.81-6.98-11.42-5.28c-4.61,1.7-6.98,6.81-5.28,11.42c0,0,0,0,0,0
								c0.1,0.28,0.22,0.57,0.34,0.86c1.45,3.5,7.57,16.74,20.95,27.26c9.11,7.16,22.77,13.95,41.8,13.95
								c10.28,0,22.12-1.98,35.66-6.96c38.6-14.19,50.93-38.02,54.48-55.5C246.01,87.51,242.1,73.46,240.94,69.86z M182.01,143
								c-23.92,8.8-43.66,7.76-58.7-3.07c0.14,0,0.28,0,0.43,0c15.33-0.21,34.18-4.15,53.07-11.09
								c18.89-6.94,35.8-16.15,47.61-25.92c0.11-0.09,0.22-0.18,0.33-0.27C220.31,120.63,205.94,134.2,182.01,143z"/>
						</g>
					</g>
				</g>
			</g>
		</g>
		<g>
			<g>
				<path class="st2" d="M353.2,13.83L218.33,63.41c7.33,1.34,12.32,4.21,13.95,8.65c2.24,6.1-2.26,14.07-11.48,22.23L363.5,41.83
					c4.26-1.57,7.58-4.99,9.01-9.3C376.44,20.67,364.93,9.52,353.2,13.83z"/>
			</g>
		</g>
		<g>
			<g>
				
					<ellipse transform="matrix(0.9386 -0.3451 0.3451 0.9386 -23.2619 62.8856)" class="st3" cx="165.02" cy="96.79" rx="71.67" ry="25.25"/>
			</g>
		</g>
		<g>
			<g>
				<g>
					<g>
						<g>
							<path class="st1" d="M374.92,10.72c-6.63-6.42-16.12-8.43-24.78-5.24v0L215.26,55.06c-3.77,1.38-6.14,5.12-5.79,9.12
								c0.34,4,3.32,7.27,7.27,7.99c5.38,0.98,7.07,2.61,7.2,2.96c0.21,0.56-0.54,4.98-9.02,12.5c-3.2,2.84-3.94,7.55-1.74,11.23
								c1.64,2.75,4.58,4.34,7.64,4.34c1.02,0,2.06-0.18,3.07-0.55l142.68-52.46c6.85-2.52,12.09-7.93,14.39-14.85
								C383.86,26.57,381.54,17.14,374.92,10.72z M364.06,29.72c-0.58,1.75-1.9,3.12-3.64,3.75L241.69,77.13
								c0.28-3.16-0.22-5.89-1.05-8.14c-0.42-1.15-1.01-2.38-1.82-3.63l117.45-43.18c3.2-1.18,5.45,0.53,6.26,1.33
								C363.35,24.3,365.13,26.48,364.06,29.72z"/>
						</g>
					</g>
				</g>
			</g>
		</g>
		<g>
			<g>
				<path class="st4" d="M173.73,120.48c-7.14,2.63-14.17,4.76-20.9,6.41v141.93h52.69V105.35
					C196.5,110.86,185.69,116.09,173.73,120.48z"/>
			</g>
		</g>
		<g>
			<g>
				<path class="st3" d="M179.18,252.92V118.38c-1.79,0.72-3.6,1.42-5.45,2.1c-7.14,2.63-14.17,4.76-20.9,6.41v141.93h52.69v-15.9
					H179.18z"/>
			</g>
		</g>
		<g>
			<g>
				<path class="st1" d="M205.53,96.45c-4.91,0-8.9,3.98-8.9,8.9v154.57h-34.9V126.89c0-4.91-3.98-8.9-8.9-8.9
					c-4.91,0-8.9,3.98-8.9,8.9v141.93c0,4.91,3.98,8.9,8.9,8.9h52.69c4.91,0,8.9-3.98,8.9-8.9V105.35
					C214.42,100.44,210.44,96.45,205.53,96.45z"/>
			</g>
		</g>
		<g>
			<g>
				<path class="st1" d="M240.64,68.99C238,61.81,229.9,53.35,206.3,53.65c-15.33,0.21-34.18,4.15-53.07,11.09
					c-18.89,6.94-35.8,16.15-47.61,25.92c-18.19,15.04-18.86,26.75-16.22,33.93c3.73,10.15,15.51,15.41,33.11,15.41
					c9.3,0,20.23-1.47,32.44-4.46c4.77-1.17,7.69-5.99,6.53-10.76s-5.99-7.7-10.76-6.53c-28.39,6.96-43.62,2.91-44.61,0.19
					c-0.24-0.64,0.7-5.67,10.86-14.07c10.3-8.52,25.37-16.67,42.41-22.93c17.05-6.27,33.8-9.82,47.17-10
					c13.16-0.16,17.15,3.04,17.39,3.68c0.57,1.55-3.56,10.75-23.04,22.63c-4.2,2.56-5.52,8.04-2.96,12.23
					c2.56,4.19,8.04,5.52,12.23,2.96C234.73,97.97,245.55,82.35,240.64,68.99z"/>
			</g>
		</g>
	</g>
	<g>
		<g>
			<g>
				<path class="st0" d="M26.71,210.79v1.83c0,84.83,68.77,153.59,153.59,153.59h0c84.83,0,153.59-68.77,153.59-153.59v-1.83H26.71z
					"/>
			</g>
		</g>
		<g>
			<g>
				<path class="st2" d="M121.4,212.62v-1.83H26.71v1.83c0,84.83,68.77,153.59,153.59,153.59c16.52,0,32.43-2.62,47.34-7.45
					C165.99,338.8,121.4,280.92,121.4,212.62z"/>
			</g>
		</g>
		<g>
			<g>
				<g>
					<g>
						<g>
							<path class="st1" d="M333.9,201.89H26.71c-4.91,0-8.9,3.98-8.9,8.9v1.83c0,89.6,72.89,162.49,162.49,162.49
								S342.8,302.22,342.8,212.62v-1.83C342.8,205.88,338.81,201.89,333.9,201.89z M180.31,357.31
								c-77.41,0-140.82-61.11-144.52-137.62h289.05C321.13,296.2,257.72,357.31,180.31,357.31z"/>
						</g>
					</g>
				</g>
			</g>
		</g>
		<g>
			<g>
				<rect x="116.57" y="352.4" class="st5" width="122.64" height="34.71"/>
			</g>
		</g>
		<g>
			<g>
				<g>
					<g>
						<g>
							<path class="st1" d="M239.21,343.5H116.57c-4.91,0-8.9,3.98-8.9,8.9v34.71c0,4.91,3.98,8.9,8.9,8.9h122.64
								c4.91,0,8.9-3.98,8.9-8.9V352.4C248.11,347.48,244.13,343.5,239.21,343.5z M230.31,378.21H125.47V361.3h104.84V378.21z"/>
						</g>
					</g>
				</g>
			</g>
		</g>
		<g>
			<g>
				<path class="st4" d="M29.71,242.94c2.17,10.84,5.48,21.26,9.8,31.14H321.1c4.32-9.88,7.63-20.3,9.8-31.14H29.71z"/>
			</g>
		</g>
		<g>
			<g>
				<path class="st3" d="M124.4,242.94H29.71c1.9,9.48,4.67,18.64,8.23,27.41c0,0,0,0,0,0.01c0.51,1.25,1.03,2.49,1.57,3.72
					c0,0,0,0.01,0.01,0.01h94.68C129.88,264.2,126.57,253.78,124.4,242.94z"/>
			</g>
		</g>
		<g>
			<g>
				<g>
					<g>
						<g>
							<path class="st1" d="M337.78,237.3c-1.69-2.06-4.22-3.26-6.88-3.26H29.71c-2.67,0-5.19,1.2-6.88,3.26
								c-1.69,2.06-2.37,4.77-1.84,7.39c2.26,11.29,5.75,22.38,10.37,32.96c1.42,3.24,4.62,5.33,8.15,5.33H321.1
								c3.54,0,6.74-2.09,8.15-5.33c4.62-10.58,8.11-21.66,10.37-32.96C340.15,242.07,339.47,239.36,337.78,237.3z M315.15,265.18
								H45.46c-1.71-4.37-3.2-8.83-4.47-13.34h278.62C318.34,256.35,316.85,260.81,315.15,265.18z"/>
						</g>
					</g>
				</g>
			</g>
		</g>
		<g>
			<g>
				<rect x="193.86" y="292.6" class="st6" width="40.47" height="17.8"/>
			</g>
		</g>
		<g>
			<g>
				<rect x="254.91" y="292.6" class="st6" width="16.14" height="17.8"/>
			</g>
		</g>
	</g>
</g>
</svg>
