<?xml version="1.0" encoding="utf-8"?>
<!-- Generator: Adobe Illustrator 26.0.1, SVG Export Plug-In . SVG Version: 6.00 Build 0)  -->
<svg version="1.1" id="Layer_1" xmlns="http://www.w3.org/2000/svg" xmlns:xlink="http://www.w3.org/1999/xlink" x="0px" y="0px"
	 viewBox="0 0 400 400" style="enable-background:new 0 0 400 400;" xml:space="preserve">
<style type="text/css">
	.st0{fill:#F9F076;}
	.st1{fill:#D5CC27;}
	.st2{fill:#47331A;}
	.st3{fill:#F68E4A;}
	.st4{fill:#E56925;}
	.st5{fill:#FFFFFF;}
</style>
<g>
	<g>
		<g>
			<g>
				
					<ellipse transform="matrix(0.9986 -0.0537 0.0537 0.9986 -9.5951 2.6651)" class="st0" cx="44.78" cy="179.81" rx="21.82" ry="11.78"/>
			</g>
		</g>
		<g>
			<g>
				<path class="st1" d="M22.99,180.98c0,0,13.31,11.08,22.42,10.59c9.11-0.49,21.16-12.93,21.16-12.93L22.99,180.98z"/>
			</g>
		</g>
		<g>
			<g>
				
					<ellipse transform="matrix(0.8539 -0.5204 0.5204 0.8539 -98.817 63.7492)" class="st0" cx="64.14" cy="207.89" rx="21.82" ry="11.78"/>
			</g>
		</g>
		<g>
			<g>
				<path class="st1" d="M45.51,219.24c0,0,16.97,3.45,24.76-1.3c7.79-4.75,12.5-21.41,12.5-21.41L45.51,219.24z"/>
			</g>
		</g>
		<g>
			<g>
				
					<ellipse transform="matrix(0.7071 -0.7071 0.7071 0.7071 -92.2049 64.695)" class="st0" cx="31.99" cy="143.65" rx="11.78" ry="21.82"/>
			</g>
		</g>
		<g>
			<g>
				<path class="st1" d="M16.56,128.22c0,0,0.65,17.31,7.1,23.76c6.45,6.45,23.76,7.1,23.76,7.1L16.56,128.22z"/>
			</g>
		</g>
		<g>
			<g>
				
					<ellipse transform="matrix(0.0537 -0.9986 0.9986 0.0537 -91.7162 216.0852)" class="st0" cx="68.15" cy="156.43" rx="21.82" ry="11.78"/>
			</g>
		</g>
		<g>
			<g>
				<path class="st1" d="M69.33,134.64l-2.34,43.58c0,0,12.44-12.04,12.93-21.16C80.41,147.95,69.33,134.64,69.33,134.64z"/>
			</g>
		</g>
		<g>
			<g>
				
					<ellipse transform="matrix(0.5204 -0.8539 0.8539 0.5204 -103.9665 166.4827)" class="st0" cx="96.23" cy="175.8" rx="21.82" ry="11.78"/>
			</g>
		</g>
		<g>
			<g>
				<path class="st1" d="M107.59,157.17l-22.71,37.27c0,0,16.67-4.71,21.41-12.5C111.04,174.14,107.59,157.17,107.59,157.17z"/>
			</g>
		</g>
		<g>
			<g>
				<g>
					<g>
						<g>
							<path class="st2" d="M42.7,132.94c-7.03-7.03-17.06-10.03-26.82-8.02c-1.32,0.27-2.34,1.3-2.61,2.61
								c-2.01,9.76,0.98,19.78,8.02,26.82c5.59,5.59,13.07,8.63,20.81,8.63c1.99,0,4.01-0.2,6.01-0.61c1.31-0.27,2.34-1.3,2.61-2.61
								C52.73,150,49.73,139.97,42.7,132.94z M44.48,156.14c-6.8,0.71-13.55-1.65-18.44-6.54c-4.89-4.89-7.25-11.64-6.54-18.44
								c6.8-0.71,13.55,1.65,18.44,6.54C42.83,142.58,45.19,149.34,44.48,156.14z"/>
						</g>
					</g>
				</g>
			</g>
		</g>
		<g>
			<g>
				<g>
					<g>
						<g>
							<path class="st2" d="M69.27,176.64c-5.92-8.02-15.38-12.49-25.31-11.95c-9.93,0.53-18.86,5.99-23.88,14.6
								c-0.68,1.16-0.6,2.61,0.2,3.69c5.6,7.59,14.37,11.99,23.71,11.99c0.53,0,1.06-0.01,1.6-0.04c9.93-0.53,18.86-5.99,23.88-14.6
								C70.15,179.17,70.07,177.72,69.27,176.64z M45.23,188.22c-6.89,0.37-13.5-2.39-18.09-7.46c4.01-5.53,10.28-8.98,17.18-9.35
								c6.9-0.37,13.5,2.39,18.09,7.46C58.4,184.39,52.13,187.84,45.23,188.22z"/>
						</g>
					</g>
				</g>
			</g>
		</g>
		<g>
			<g>
				<g>
					<g>
						<g>
							<path class="st2" d="M84.21,193.49c-9.01-4.26-19.46-3.71-27.95,1.47c-8.49,5.18-13.77,14.21-14.11,24.17
								c-0.05,1.34,0.71,2.58,1.92,3.16c4.02,1.9,8.33,2.84,12.63,2.84c5.32,0,10.62-1.45,15.32-4.31v0
								c8.49-5.18,13.77-14.21,14.11-24.17C86.18,195.31,85.43,194.07,84.21,193.49z M68.52,215.07c-5.9,3.6-13.02,4.3-19.46,2
								c0.91-6.77,4.8-12.78,10.7-16.38c5.9-3.6,13.02-4.3,19.46-2C78.31,205.47,74.42,211.48,68.52,215.07z"/>
						</g>
					</g>
				</g>
			</g>
		</g>
		<g>
			<g>
				<g>
					<g>
						<g>
							<path class="st2" d="M71.32,131.94c-1.08-0.8-2.53-0.88-3.69-0.2c-8.61,5.02-14.06,13.95-14.6,23.88
								c-0.53,9.93,3.93,19.39,11.95,25.31c0.59,0.44,1.29,0.66,2,0.66c0.58,0,1.17-0.15,1.69-0.46
								c8.61-5.02,14.06-13.95,14.6-23.88v0C83.81,147.32,79.34,137.86,71.32,131.94z M76.56,156.89
								c-0.37,6.9-3.82,13.17-9.35,17.18c-5.07-4.58-7.83-11.19-7.46-18.09c0.37-6.9,3.82-13.17,9.35-17.18
								C74.17,143.38,76.93,149.99,76.56,156.89z"/>
						</g>
					</g>
				</g>
			</g>
		</g>
		<g>
			<g>
				<g>
					<g>
						<g>
							<path class="st2" d="M110.63,155.73c-0.57-1.21-1.82-1.97-3.16-1.92c-9.96,0.34-18.99,5.62-24.17,14.11
								c-5.18,8.49-5.72,18.94-1.47,27.95c0.56,1.18,1.74,1.93,3.04,1.93c0.04,0,0.08,0,0.12,0c9.96-0.34,18.99-5.62,24.17-14.11
								C114.34,175.19,114.88,164.74,110.63,155.73z M103.42,180.18c-3.6,5.9-9.61,9.79-16.38,10.7c-2.29-6.44-1.59-13.56,2-19.46
								c3.6-5.9,9.6-9.79,16.38-10.7C107.71,167.16,107.01,174.28,103.42,180.18z"/>
						</g>
					</g>
				</g>
			</g>
		</g>
		<g>
			<g>
				<path class="st2" d="M105.9,212.8l-56.1-56.1c-1.31-1.31-3.44-1.31-4.76,0c-1.31,1.31-1.31,3.44,0,4.76l56.1,56.1
					c0.66,0.66,1.52,0.98,2.38,0.98c0.86,0,1.72-0.33,2.38-0.98C107.21,216.24,107.21,214.11,105.9,212.8z"/>
			</g>
		</g>
	</g>
	<g id="Fried_Rice">
		<g>
			<g>
				<path class="st0" d="M12.65,221.75l2.95,6.6c16.29,36.43,52.47,59.89,92.38,59.89h184.03c39.91,0,76.09-23.46,92.38-59.89
					l2.95-6.6H12.65z"/>
			</g>
		</g>
		<g>
			<g>
				<path class="st1" d="M144.25,228.35l-2.95-6.6H12.65l2.95,6.6c16.29,36.43,52.47,59.89,92.38,59.89h128.64
					C196.71,288.24,160.53,264.79,144.25,228.35z"/>
			</g>
		</g>
		<g>
			<g>
				<path class="st3" d="M200,111.76c-60.75,0-110,49.25-110,110H310C310,161,260.75,111.76,200,111.76z"/>
			</g>
		</g>
		<g>
			<g>
				<path class="st4" d="M200,111.76c-60.75,0-110,49.25-110,110h58.37c0-50.64,34.23-93.29,80.81-106.07
					C219.89,113.13,210.11,111.76,200,111.76z"/>
			</g>
		</g>
		<g>
			<g>
				<path class="st4" d="M201.98,135.81c-0.98-3.34-4.48-5.25-7.82-4.27l-15.28,4.49c-3.34,0.98-5.25,4.48-4.27,7.82
					c0.98,3.34,4.48,5.25,7.82,4.27l15.28-4.49C201.05,142.66,202.96,139.15,201.98,135.81z"/>
			</g>
		</g>
		<g>
			<g>
				<path class="st4" d="M210.13,166.36l-10.96-11.56c-2.4-2.53-6.39-2.63-8.91-0.23c-2.53,2.4-2.63,6.39-0.23,8.91l10.96,11.56
					c2.4,2.53,6.39,2.63,8.91,0.23S212.53,168.89,210.13,166.36z"/>
			</g>
		</g>
		<g>
			<g>
				<path class="st4" d="M227.63,198.86c-3.1-1.58-6.9-0.34-8.48,2.76l-7.22,14.2c-1.58,3.1-0.34,6.9,2.76,8.48h0
					c3.1,1.58,6.9,0.34,8.48-2.76l7.22-14.2C231.97,204.23,230.73,200.44,227.63,198.86z"/>
			</g>
		</g>
		<g>
			<g>
				<path class="st4" d="M244.23,168.13l-15.92,0.59c-3.48,0.13-6.2,3.05-6.07,6.53c0.13,3.48,3.05,6.2,6.53,6.07l15.92-0.59
					c3.48-0.13,6.2-3.05,6.07-6.53C250.64,170.72,247.71,168,244.23,168.13z"/>
			</g>
		</g>
		<g>
			<g>
				<path class="st4" d="M198.58,190.94c-0.71-3.41-4.04-5.6-7.45-4.89l-15.6,3.23c-3.41,0.71-5.6,4.04-4.89,7.45v0
					c0.71,3.41,4.04,5.6,7.45,4.89l15.6-3.23C197.09,197.68,199.28,194.35,198.58,190.94z"/>
			</g>
		</g>
		<g>
			<g>
				<path class="st4" d="M269.34,192.31l-15.39-4.12c-3.36-0.9-6.82,1.1-7.72,4.46v0c-0.9,3.36,1.1,6.82,4.46,7.72l15.39,4.12
					c3.36,0.9,6.82-1.1,7.72-4.46C274.7,196.66,272.71,193.21,269.34,192.31z"/>
			</g>
		</g>
		<g>
			<g>
				<path class="st4" d="M160.76,201.85c-2.37-2.55-6.36-2.69-8.91-0.32l-11.66,10.86c-2.55,2.37-2.69,6.36-0.32,8.91
					c2.37,2.55,6.36,2.69,8.91,0.32l11.66-10.86C162.99,208.39,163.13,204.4,160.76,201.85z"/>
			</g>
		</g>
		<g>
			<g>
				<path class="st4" d="M140.83,183.77l-15.84-1.66c-3.46-0.36-6.56,2.15-6.93,5.61v0c-0.36,3.46,2.15,6.56,5.61,6.93l15.84,1.66
					c3.46,0.36,6.56-2.15,6.93-5.61S144.29,184.13,140.83,183.77z"/>
			</g>
		</g>
		<g>
			<g>
				<path class="st4" d="M233.3,142.33l-15.84-1.66c-3.46-0.36-6.56,2.15-6.93,5.61s2.15,6.56,5.61,6.93l15.84,1.66
					c3.46,0.36,6.56-2.15,6.93-5.61S236.76,142.69,233.3,142.33z"/>
			</g>
		</g>
		<g>
			<g>
				<path class="st4" d="M297.35,172.87l-15.92,0.42c-3.48,0.09-6.23,2.99-6.14,6.47s2.99,6.23,6.47,6.14l15.92-0.42
					c3.48-0.09,6.23-2.99,6.14-6.47S300.83,172.78,297.35,172.87z"/>
			</g>
		</g>
		<g>
			<g>
				<path class="st4" d="M173.38,156.86L173.38,156.86c-2.75-2.14-6.71-1.65-8.85,1.1l-9.79,12.57c-2.14,2.75-1.65,6.71,1.1,8.85
					c2.75,2.14,6.71,1.65,8.85-1.1l9.79-12.57C176.62,162.96,176.13,159,173.38,156.86z"/>
			</g>
		</g>
		<g>
			<g>
				<path class="st4" d="M143.87,152.57l-15.27-4.54c-3.34-0.99-6.85,0.91-7.84,4.24s0.91,6.85,4.24,7.84l15.27,4.54
					c3.34,0.99,6.85-0.91,7.84-4.24S147.2,153.57,143.87,152.57z"/>
			</g>
		</g>
		<g>
			<g>
				<path class="st4" d="M281.57,151.38c-1.21-3.26-4.84-4.93-8.1-3.72l-14.93,5.54c-3.26,1.21-4.93,4.84-3.72,8.1
					c1.21,3.26,4.84,4.93,8.1,3.72l14.93-5.54C281.12,158.27,282.79,154.64,281.57,151.38z"/>
			</g>
		</g>
		<g>
			<g>
				<g>
					<g>
						<g>
							<path class="st2" d="M394.07,217.4c-1.48-2.28-4.01-3.65-6.72-3.65H12.65c-2.71,0-5.24,1.37-6.72,3.65
								c-1.48,2.28-1.7,5.15-0.59,7.62l2.95,6.6c17.55,39.26,56.68,64.63,99.69,64.63h184.03c43.01,0,82.14-25.37,99.69-64.63
								l2.95-6.6C395.77,222.54,395.54,219.67,394.07,217.4z M292.02,280.23H107.98c-34.96,0-66.92-19.64-82.82-50.47h349.67
								C358.94,260.59,326.98,280.23,292.02,280.23z"/>
						</g>
					</g>
				</g>
			</g>
		</g>
		<g>
			<g>
				<g>
					<g>
						<g>
							<path class="st2" d="M200,103.75c-65.07,0-118,52.94-118,118c0,4.42,3.59,8.01,8.01,8.01H310c4.42,0,8.01-3.59,8.01-8.01
								C318,156.68,265.07,103.75,200,103.75z M98.32,213.74c4.1-52.51,48.13-93.98,101.68-93.98s97.58,41.47,101.68,93.98H98.32z"
								/>
						</g>
					</g>
				</g>
			</g>
		</g>
		<g>
			<g>
				<rect x="84.07" y="241.65" class="st5" width="40.57" height="16.02"/>
			</g>
		</g>
	</g>
</g>
</svg>
